<svg width="24" height="24" xmlns="http://www.w3.org/2000/svg"><path d="M12 0C5.379 0 0 5.379 0 12s5.379 12 12 12 12-5.379 12-12S18.621 0 12 0zm0 1.043c6.057 0 10.957 4.9 10.957 10.957S18.057 22.957 12 22.957 1.043 18.057 1.043 12 5.943 1.043 12 1.043zm.824 3.13c-1.383 0-2.432.453-3.08 1.253-.646.8-.874 1.868-.874 3.04v.925H7.826a.522.522 0 0 0-.522.522v2.609c0 .288.234.521.522.521H8.87v6.261c0 .288.233.522.521.522h3.13a.522.522 0 0 0 .522-.522v-6.26h2.087a.522.522 0 0 0 .512-.42l.522-2.61a.522.522 0 0 0-.512-.623h-2.609V8.247c0-.253.017-.251.09-.299.073-.047.338-.122.803-.122h1.716a.522.522 0 0 0 .522-.522V5.217a.522.522 0 0 0-.347-.49s-1.502-.553-3.003-.553zm0 1.044c.988 0 1.903.267 2.306.393v1.173h-1.194c-.546 0-.99.044-1.37.291-.381.247-.566.721-.566 1.173v1.666c0 .288.234.522.522.522h2.493L14.702 12h-2.18a.522.522 0 0 0-.522.522v6.26H9.913v-6.26A.522.522 0 0 0 9.391 12H8.348v-1.565H9.39a.522.522 0 0 0 .522-.522V8.466c0-1.033.211-1.85.643-2.383.432-.534 1.098-.866 2.268-.866z" fill="#FFF" fill-rule="nonzero" opacity=".6"/></svg>