<?xml version="1.0" encoding="UTF-8"?>
<svg width="24px" height="24px" viewBox="0 0 24 24" version="1.1" xmlns="http://www.w3.org/2000/svg" xmlns:xlink="http://www.w3.org/1999/xlink">
    <!-- Generator: sketchtool 51.1 (57501) - http://www.bohemiancoding.com/sketch -->
    <title>9BD3BEF6-89A7-4A39-B5A8-0305EA6FA127</title>
    <desc>Created with sketchtool.</desc>
    <defs></defs>
    <g id="Symbols" stroke="none" stroke-width="1" fill="none" fill-rule="evenodd" opacity="0.6">
        <g id="Footer" transform="translate(-660.000000, -446.000000)" fill="#FFFFFF" fill-rule="nonzero">
            <g id="Group-15">
                <g transform="translate(626.000000, 446.000000)">
                    <g id="icons8-google-plus-circled" transform="translate(34.000000, 0.000000)">
                        <path d="M12,0 C5.37876261,0 0,5.37876261 0,12 C0,18.6212374 5.37876261,24 12,24 C18.6212374,24 24,18.6212374 24,12 C24,5.37876261 18.6212374,0 12,0 Z M12,1.04347826 C18.0572995,1.04347826 22.9565217,5.94270052 22.9565217,12 C22.9565217,18.0572995 18.0572995,22.9565217 12,22.9565217 C5.94270052,22.9565217 1.04347826,18.0572995 1.04347826,12 C1.04347826,5.94270052 5.94270052,1.04347826 12,1.04347826 Z M12.0173913,6.85 C9.1419127,6.85 6.8,9.1919127 6.8,12.0673913 C6.8,14.9428699 9.1419127,17.2847826 12.0173913,17.2847826 C14.8928699,17.2847826 17.2347826,14.9428699 17.2347826,12.0673913 C17.2347826,11.8714913 17.2239946,11.6781097 17.2031929,11.488587 L17.1522419,11.023913 L12.5391304,11.023913 L12.5391304,12.0673913 L16.1913043,12.0673913 C16.1913043,14.3790431 14.3290431,16.2413043 12.0173913,16.2413043 C9.70573948,16.2413043 7.84347826,14.3790431 7.84347826,12.0673913 C7.84347826,9.75573948 9.70573948,7.89347826 12.0173913,7.89347826 C12.8780871,7.89347826 13.673348,8.15221391 14.3366845,8.59660313 L14.3366845,8.59762209 C14.4992944,8.70618243 14.6543433,8.82668487 14.8003395,8.9573367 L15.4963317,8.17880435 C15.3146757,8.0162153 15.1212028,7.86607287 14.9165083,7.72941583 C14.087671,7.17415287 13.0881737,6.85 12.0173913,6.85 Z" id="Shape"></path>
                    </g>
                </g>
            </g>
        </g>
    </g>
</svg>