<svg width="24" height="24" xmlns="http://www.w3.org/2000/svg"><g fill="none" fill-rule="evenodd"><path fill="none" d="M-192-574h320V92h-320z"/><path d="M12 0C5.379 0 0 5.379 0 12s5.379 12 12 12 12-5.379 12-12S18.621 0 12 0zm0 1.043c6.057 0 10.957 4.9 10.957 10.957S18.057 22.957 12 22.957 1.043 18.057 1.043 12 5.943 1.043 12 1.043zM7.304 5.217c-.858 0-1.565.707-1.565 1.566 0 .858.707 1.565 1.565 1.565.859 0 1.566-.707 1.566-1.565 0-.859-.707-1.566-1.566-1.566zm0 1.044c.295 0 .522.227.522.522a.514.514 0 0 1-.522.521.514.514 0 0 1-.521-.521c0-.295.227-.522.521-.522zM6.261 8.87a.522.522 0 0 0-.522.521v7.826c0 .289.234.522.522.522h2.087a.522.522 0 0 0 .522-.522V9.391a.522.522 0 0 0-.522-.521H6.26zm4.174 0a.522.522 0 0 0-.522.521v7.826c0 .289.234.522.522.522h2.087a.522.522 0 0 0 .521-.522v-3.913a1.305 1.305 0 0 1 2.61 0V17.217c0 .289.233.522.52.522h2.088a.522.522 0 0 0 .522-.522v-4.434A3.92 3.92 0 0 0 14.87 8.87c-.672 0-1.274.217-1.827.516a.522.522 0 0 0-.521-.516h-2.087zM6.783 9.913h1.043v6.783H6.783V9.913zm4.174 0H12v.426a.522.522 0 0 0 .883.376 2.85 2.85 0 0 1 1.987-.802 2.862 2.862 0 0 1 2.87 2.87v3.913h-1.044V13.304a2.358 2.358 0 0 0-2.348-2.347A2.358 2.358 0 0 0 12 13.304v3.392h-1.043V9.913z" fill="#000" fill-opacity=".5" fill-rule="nonzero" opacity=".5"/></g></svg>
