<?xml version="1.0" encoding="UTF-8"?>
<svg width="46px" height="46px" viewBox="0 0 46 46" version="1.1" xmlns="http://www.w3.org/2000/svg" xmlns:xlink="http://www.w3.org/1999/xlink">
    <!-- Generator: sketchtool 51.1 (57501) - http://www.bohemiancoding.com/sketch -->
    <title>79C6DDF7-9446-4138-A635-5158A44F47DC</title>
    <desc>Created with sketchtool.</desc>
    <defs></defs>
    <g id="Meet-us" stroke="none" stroke-width="1" fill="none" fill-rule="evenodd">
        <g id="Meet-us-Choose-date" transform="translate(-689.000000, -563.000000)" fill="#E2BF44" fill-rule="nonzero">
            <g id="Group-17" transform="translate(689.000000, 563.000000)">
                <path d="M1.6757812,22.261719 L0.328125,23.224609 L0.0644531,24.339844 L0.0957031,24.882812 L0.0996094,24.9375 L0.1054688,24.990234 L0.2304688,26.109375 L0.2363281,26.162109 L0.2460938,26.214844 L0.4296875,27.320312 L0.4394531,27.373047 L0.4511719,27.425781 L0.4960938,27.626953 L1.4902344,28.949219 L3.1425781,29.068359 L4.3183594,27.902344 L4.4003906,26.757812 L4.3652344,26.597656 L4.1972656,25.585938 L4.0878906,24.605469 L4.0566406,24.107422 L3.2851562,22.642578 L1.6757812,22.261719 Z M5.734375,32.550781 L4.1523438,33.039062 L3.4785156,34.550781 L3.8164062,35.646484 L4.2304688,36.267578 L4.2617188,36.3125 L4.2929688,36.355469 L4.9667969,37.253906 L4.9980469,37.296875 L5.0332031,37.337891 L5.7558594,38.201172 L7.2480469,38.917969 L8.769531,38.265625 L9.277344,36.689453 L8.824219,35.636719 L8.134766,34.8125 L7.5273438,34.001953 L7.140625,33.423828 L5.734375,32.550781 Z M37.667969,35.988281 C37.1489518,35.9991319 36.6544846,36.2113465 36.289062,36.580078 C36.18504,36.682367 36.075762,36.787175 35.960938,36.894531 C35.4174733,37.3770477 35.1784919,38.1163786 35.3367047,38.8257057 C35.4949176,39.5350328 36.0254272,40.1027315 36.7224265,40.3085672 C37.4194257,40.5144029 38.1732298,40.3259839 38.691406,39.816406 C38.822581,39.693763 38.957773,39.567304 39.09375,39.433594 C39.6900322,38.8633649 39.8750075,37.9855225 39.5595213,37.2231694 C39.2440352,36.4608164 38.4928289,35.9703959 37.667969,35.988281 Z M13.525391,39.751953 C12.6012235,39.7705521 11.8101738,40.4199901 11.6119637,41.3228435 C11.4137535,42.2256969 11.8600169,43.1467715 12.691406,43.550781 C13.13413,43.773642 13.587916,43.977256 14.046875,44.171875 C14.0475256,44.1725264 14.0481766,44.1731774 14.048828,44.173828 C14.0904766,44.1941736 14.1328198,44.2130654 14.175781,44.230469 C14.179277,44.231926 14.18205,44.234872 14.185547,44.236328 C14.2023847,44.2430683 14.2193132,44.2495792 14.236328,44.255859 C14.391941,44.320667 14.546166,44.381719 14.695312,44.439453 C15.3616961,44.6976333 16.115198,44.58069 16.6719807,44.1326746 C17.2287635,43.6846592 17.5042386,42.9736359 17.3946372,42.2674401 C17.2850359,41.5612444 16.8070091,40.9671643 16.140625,40.708984 C15.999578,40.654384 15.863253,40.600143 15.732422,40.544922 C15.7220381,40.5409288 15.7116211,40.5370224 15.701172,40.533203 C15.284856,40.359314 14.881179,40.175311 14.490234,39.978516 C14.1927186,39.8232502 13.8609191,39.7453375 13.525391,39.751953 Z M31.662109,40.326172 L30.521484,40.443359 L30.066406,40.632812 L30.052734,40.638672 L29.769531,40.740234 L28.583984,41.894531 L28.675781,43.548828 L29.982422,44.566406 L31.126953,44.501953 L31.5,44.367188 L31.544922,44.351562 L31.587891,44.332031 L32.058594,44.138672 L33.185547,42.925781 L33.015625,41.279297 L31.662109,40.326172 Z M22.503906,41.982422 L20.986328,42.646484 L20.490234,44.226562 L21.353516,45.638672 L22.447266,45.982422 L23.351562,45.994141 L24.869141,45.330078 L25.365234,43.751953 L24.501953,42.337891 L23.408203,41.994141 L22.503906,41.982422 Z" id="Shape" fill-opacity="0.5">
                    <animateTransform attributeType="xml"
                                      attributeName="transform" type="rotate"
                                      from="0 23 23"
                                      to="360 23 23"
                                      dur="1.5s" repeatCount="indefinite" />
                </path>
                <path d="M23.007812,0.0019531 C13.528935,0.0019531 5.3752764,5.7656545 1.8671875,13.990234 C1.83479374,14.0499007 1.8054589,14.111178 1.7792969,14.173828 C1.7739805,14.186665 1.7709165,14.200049 1.765625,14.212891 C1.6544926,14.481393 1.5601203,14.757722 1.4589844,15.03125 C1.3754854,15.257414 1.2812793,15.481828 1.2050781,15.708984 C1.19366189,15.744493 1.18324115,15.7803143 1.1738281,15.816406 C1.1495735,15.890225 1.1192279,15.961009 1.0957031,16.035156 C0.8630539,16.7209042 1.01921236,17.4788448 1.50397783,18.0167841 C1.9887433,18.5547235 2.72640245,18.7886432 3.43258028,18.6283649 C4.13875811,18.4680865 4.7031599,17.9386434 4.9082031,17.244141 C4.9815326,17.013015 5.0724762,16.789711 5.1542969,16.5625 C5.2576577,16.276821 5.3588794,15.991248 5.4765625,15.707031 C5.4767979,15.706463 5.476327,15.705647 5.4765625,15.705078 C8.332,8.837992 15.088663,4.0019531 23.007812,4.0019531 C33.178925,4.0019531 41.443056,11.957111 41.964844,21.996094 C42.0220143,23.0995849 42.9629161,23.9477953 44.066407,23.890625 C45.1698979,23.8334547 46.0181083,22.8925529 45.960938,21.789062 C45.330725,9.664046 35.272701,0.0019531 23.007812,0.0019531 Z" id="Path"></path>
            </g>
        </g>
    </g>
</svg>
