<svg width="48" height="52" xmlns="http://www.w3.org/2000/svg"><g fill="none" fill-rule="evenodd"><path fill="#CDCDCD" d="M35.696 21.953l-14.92 9.975L6.3 21.108V9.8h29.396v12.153"/><path d="M47.286 42.193a7.893 7.893 0 1 1-15.786 0 7.893 7.893 0 0 1 15.786 0" fill="#DEB93D"/><path d="M39.31 49.463c-3.967 0-7.193-3.226-7.193-7.193 0-3.966 3.226-7.193 7.192-7.193 3.967 0 7.193 3.227 7.193 7.193 0 3.967-3.226 7.193-7.193 7.193zm-34.545-2.66A3.37 3.37 0 0 1 1.4 43.438v-24.53l17.408 13.091a3.11 3.11 0 0 0 3.685.049l18.533-13.186c0 .202-.024 14.808.044 14.998-7.426-1.554-13.016 6.602-9.053 12.948-.11-.007-27.142-.005-27.252-.005zm.885-26.45L1.9 17.53l3.75-2.576v5.397zm29.4-9.764v10.807l-13.368 9.511a1.715 1.715 0 0 1-2.032-.027l-12.6-9.475V10.589h28zM19.844 5.205a1.716 1.716 0 0 1 1.922-.018l6.072 4.002H14.044l5.8-3.984zm20.644 12.323L36.45 20.4v-5.534l4.038 2.662zm1.674 16.638c.381-.306.264.655.264-16.66v-.003c-.003-.454.094-.313-5.976-4.314v-3.3a.7.7 0 0 0-.7-.7h-5.368l-7.845-5.171a3.11 3.11 0 0 0-3.485.033c-7.47 5.13-7.16 4.834-7.292 5.138H6.35a.7.7 0 0 0-.7.7v3.367C-.117 17.217 0 17.056 0 17.513v25.925a4.77 4.77 0 0 0 4.765 4.765c29.089 0 27.675.234 27.88-.516 5.082 6.242 15.257 2.659 15.257-5.417 0-3.738-2.4-6.925-5.74-8.104z" fill="#4A4A4A"/><path d="M19.95 44.173c0 1.03 1.559 1.031 1.559 0 0-1.032-1.559-1.03-1.559 0M30.873 6.809a.78.78 0 0 0 0-1.559c-1.03 0-1.031 1.559 0 1.559M17.156 43.444H4.946c-.071 0-.046-15.03-.046-15.1 0-.925-1.4-.926-1.4 0v15.054c0 .797.648 1.446 1.445 1.446h12.21c.926 0 .927-1.4 0-1.4M30.82 50.05H8.044c-.925 0-.926 1.4 0 1.4H30.82c.925 0 .926-1.4 0-1.4M10.903 7.132l7.048-4.841a5.023 5.023 0 0 1 5.628-.054l4.165 2.745c.772.51 1.543-.66.77-1.169L24.35 1.07a6.416 6.416 0 0 0-7.192.068L10.11 5.978c-.762.524.028 1.678.793 1.154M37.45 39.612v1.208l1.775-.55v5.732h1.487V38.5h-.16l-3.102 1.112M11.194 16.1h20.103c.925 0 .926-1.4 0-1.4H11.194c-.925 0-.926 1.4 0 1.4M27.57 23.45H15.044c-.925 0-.926 1.4 0 1.4H27.57c.925 0 .926-1.4 0-1.4M31.312 19.25h-4.718c-.925 0-.926 1.4 0 1.4h4.718a.7.7 0 0 0 0-1.4M11.194 20.65h10.145c.925 0 .926-1.4 0-1.4H11.194c-.925 0-.926 1.4 0 1.4" fill="#4A4A4A"/></g></svg>