<svg width="13" height="13" xmlns="http://www.w3.org/2000/svg"><g fill="none" fill-rule="evenodd"><path fill="none" d="M-103-524h320v666h-320z"/><path d="M2.371.043L.797 1.617A2.697 2.697 0 0 0 .363 4.88c.688 1.18 1.25 2.05 3.606 4.402 2.351 2.356 2.992 2.676 4.152 3.356a2.69 2.69 0 0 0 3.258-.434l1.578-1.574L9.91 7.586 8.672 8.824a5.177 5.177 0 0 1-.629-.347c-.531-.34-1.211-.86-1.809-1.461A13.74 13.74 0 0 1 4.641 5.07c-.2-.297-.36-.566-.446-.742l-.008-.016 1.227-1.226L2.371.043zm0 1.414L4 3.086l-.715.719a.53.53 0 0 0-.16.406c0 .09.016.152.031.21.035.122.082.227.14.352.122.243.298.532.517.86a15.051 15.051 0 0 0 1.71 2.094c.66.656 1.387 1.21 1.985 1.59.297.19.558.335.781.433.113.05.215.09.336.113.059.012.125.02.215.012a.534.534 0 0 0 .355-.16L9.91 9l1.633 1.629-.871.871a1.692 1.692 0 0 1-2.047.273c-1.18-.691-1.629-.875-3.953-3.195-2.32-2.324-2.766-3.039-3.445-4.203A1.692 1.692 0 0 1 1.5 2.328l.871-.871z" opacity=".5" fill="#000" fill-opacity=".5" fill-rule="nonzero"/></g></svg>
