<?xml version="1.0" encoding="UTF-8"?>
<svg width="14px" height="13px" viewBox="0 0 14 13" version="1.1" xmlns="http://www.w3.org/2000/svg" xmlns:xlink="http://www.w3.org/1999/xlink">
    <!-- Generator: sketchtool 51 (57462) - http://www.bohemiancoding.com/sketch -->
    <title>E86911C5-0B5B-4B1F-9FEC-F0BD140AE213</title>
    <desc>Created with sketchtool.</desc>
    <defs></defs>
    <g id="Meet-us" stroke="none" stroke-width="1" fill="none" fill-rule="evenodd">
        <g id="Meet-us-Validation+drop" transform="translate(-354.000000, -233.000000)" fill="#4A90E2" fill-rule="nonzero">
            <g id="icons8-google-2" transform="translate(354.000000, 233.000000)">
                <path d="M6.5,0 C2.921875,0 0,2.921875 0,6.5 C0,10.078125 2.921875,13 6.5,13 C9.878906,13 12.671875,10.398438 12.96875,7.089844 L13.066406,6 L7,6 L7,8 L10.671875,8 C10.046875,9.734375 8.457031,11 6.5,11 C4.003906,11 2,8.996094 2,6.5 C2,4.003906 4.003906,2 6.5,2 C7.691406,2 8.765625,2.460938 9.570313,3.210938 L10.9375,1.75 C9.773438,0.664063 8.210938,0 6.5,0 Z" id="Shape"></path>
            </g>
        </g>
    </g>
</svg>