<?xml version="1.0" encoding="UTF-8"?>
<svg width="13px" height="15px" viewBox="0 0 13 15" version="1.1" xmlns="http://www.w3.org/2000/svg" xmlns:xlink="http://www.w3.org/1999/xlink">
    <!-- Generator: sketchtool 51 (57462) - http://www.bohemiancoding.com/sketch -->
    <title>9A60593E-74EA-4B04-9ECA-CFEAA39E8ACA</title>
    <desc>Created with sketchtool.</desc>
    <defs></defs>
    <g id="Meet-us" stroke="none" stroke-width="1" fill="none" fill-rule="evenodd">
        <g id="Meet-us-Validation+drop" transform="translate(-354.000000, -211.000000)" fill="#4A90E2" fill-rule="nonzero">
            <g id="icons8-apple" transform="translate(354.000000, 211.000000)">
                <path d="M13,11.0046866 C12.6446803,11.7853074 12.4751482,12.1353204 12.017645,12.823833 C11.3813209,13.7886718 10.4802484,14.99069 9.36551944,14.9975983 C8.37619724,15.0068091 8.12073883,14.3574431 6.77609694,14.3689566 C5.43145505,14.3735617 5.15045062,15.0091117 4.15880622,14.9999008 C3.04639951,14.99069 2.19409682,13.9061105 1.5554499,12.9458769 C-0.230438555,10.2493953 -0.418549503,7.08776386 0.684567792,5.40678045 C1.46487803,4.21397255 2.70036923,3.51394646 3.86154517,3.51394646 C5.04129993,3.51394646 5.78445254,4.15640476 6.76216253,4.15640476 C7.7096821,4.15640476 8.28562537,3.51164389 9.65349108,3.51164389 C10.6846153,3.51164389 11.7784426,4.06890179 12.5587528,5.03373994 C10.0041658,6.41997611 10.4198669,10.0375453 13,11.0046866 Z M8.61539964,2.43397214 C9.11238264,1.80302787 9.48860395,0.90957352 9.35390724,0 C8.54108438,0.0552652176 7.59356481,0.568771345 7.03852256,1.23195396 C6.53689455,1.83756819 6.12119341,2.73793084 6.28375834,3.60835831 C7.16857426,3.63599092 8.0835812,3.11327392 8.61539964,2.43397214 Z" id="Shape"></path>
            </g>
        </g>
    </g>
</svg>