<svg width="331" height="60" xmlns="http://www.w3.org/2000/svg"><g fill="none" fill-rule="evenodd"><path d="M177.447 38h-1.154l-4.107-6.516-.036.012V38h-1.154v-8.531h1.154l4.108 6.51.035-.012v-6.498h1.154V38zm4.465.123c-.91 0-1.62-.291-2.13-.873-.51-.582-.764-1.348-.764-2.297v-.258c0-.91.262-1.663.788-2.258.525-.596 1.167-.894 1.924-.894.848 0 1.484.264 1.908.791.424.527.635 1.228.635 2.103v.61h-4.054l-.018.03c0 .636.14 1.152.422 1.549.281.396.711.595 1.29.595.39 0 .733-.056 1.027-.167.295-.112.548-.265.76-.46l.45.75a2.774 2.774 0 0 1-.896.553c-.371.15-.818.226-1.342.226zm-.182-5.672c-.402 0-.735.155-.999.466-.263.31-.424.708-.483 1.192l.012.03h2.86v-.094c0-.461-.114-.842-.34-1.143-.227-.3-.577-.45-1.05-.45zm5.461 3.24l.147.815h.035l.152-.815 1.266-4.03h.926l1.271 4.03.164.909h.036l.187-.909.938-4.03h1.207L191.68 38h-.932l-1.254-3.861-.24-1.008h-.035l-.223 1.008-1.23 3.861h-.932l-1.84-6.34h1.201l.996 4.031zm10.6 2.309v-8.531h2.783c.89 0 1.588.192 2.092.577.504.385.756.962.756 1.731 0 .368-.113.697-.34.988a2.134 2.134 0 0 1-.902.665c.558.078 1 .32 1.327.726.326.407.49.885.49 1.436 0 .781-.255 1.378-.763 1.79-.507.412-1.195.618-2.062.618h-3.381zm1.154-4.002v3.1h2.227c.527 0 .936-.13 1.227-.39.291-.26.437-.628.437-1.104 0-.473-.148-.854-.445-1.143-.297-.29-.698-.443-1.202-.463h-2.244zm0-.902h1.87c.43 0 .779-.118 1.048-.355.27-.236.405-.565.405-.987 0-.461-.146-.806-.437-1.034-.291-.229-.71-.343-1.257-.343h-1.629v2.719zm10.342 3.967c-.2.34-.455.601-.767.785a2.1 2.1 0 0 1-1.084.275c-.692 0-1.23-.22-1.618-.662-.386-.441-.58-1.129-.58-2.063V31.66h1.155v3.75c0 .676.1 1.14.298 1.395.2.254.51.38.932.38.41 0 .75-.082 1.017-.248.267-.166.47-.402.606-.707v-4.57h1.154V38h-1.037l-.076-.938zm6.48-.768a.77.77 0 0 0-.29-.621c-.193-.16-.559-.301-1.098-.422-.746-.16-1.32-.385-1.72-.674-.4-.289-.6-.676-.6-1.16 0-.516.22-.957.659-1.324.44-.367 1.009-.551 1.708-.551.719 0 1.3.195 1.746.586.445.39.658.846.639 1.365l-.012.035h-1.102c0-.273-.12-.521-.36-.744-.24-.223-.544-.334-.911-.334-.406 0-.71.092-.911.276a.86.86 0 0 0-.302.656c0 .25.087.443.26.58.174.137.533.262 1.076.375.777.164 1.367.396 1.77.697.402.3.603.694.603 1.178 0 .562-.228 1.021-.683 1.377-.455.355-1.05.533-1.784.533-.809 0-1.445-.205-1.91-.615-.465-.41-.686-.889-.662-1.436l.012-.035h1.101c.02.41.172.71.457.9.285.189.62.284 1.002.284.41 0 .732-.087.964-.261.232-.174.349-.396.349-.665zM219.606 38h-1.154v-6.34h1.154V38zm0-7.963h-1.154V28.86h1.154v1.178zm2.807 1.623l.082.944c.211-.336.476-.597.794-.783.318-.185.68-.278 1.087-.278.684 0 1.213.2 1.588.6.375.4.562 1.02.562 1.855V38h-1.154v-3.979c0-.558-.11-.955-.331-1.189-.22-.234-.558-.352-1.01-.352-.356 0-.658.072-.906.214a1.554 1.554 0 0 0-.589.6V38h-1.154v-6.34h1.031zm8.414 6.463c-.91 0-1.62-.291-2.13-.873-.51-.582-.764-1.348-.764-2.297v-.258c0-.91.262-1.663.788-2.258.525-.596 1.167-.894 1.925-.894.847 0 1.483.264 1.907.791.424.527.636 1.228.636 2.103v.61h-4.055l-.018.03c0 .636.14 1.152.422 1.549.281.396.711.595 1.29.595.39 0 .733-.056 1.027-.167.295-.112.548-.265.76-.46l.45.75a2.774 2.774 0 0 1-.896.553c-.371.15-.818.226-1.342.226zm-.181-5.672c-.403 0-.736.155-1 .466-.263.31-.424.708-.483 1.192l.012.03h2.86v-.094c0-.461-.114-.842-.34-1.143-.227-.3-.577-.45-1.05-.45zm7.523 3.844a.77.77 0 0 0-.29-.621c-.193-.16-.56-.301-1.099-.422-.746-.16-1.319-.385-1.72-.674-.4-.289-.6-.676-.6-1.16 0-.516.22-.957.66-1.324.439-.367 1.008-.551 1.707-.551.719 0 1.301.195 1.746.586.446.39.658.846.639 1.365l-.012.035h-1.101c0-.273-.12-.521-.36-.744-.24-.223-.545-.334-.912-.334-.406 0-.71.092-.911.276a.86.86 0 0 0-.302.656c0 .25.087.443.261.58.174.137.532.262 1.075.375.778.164 1.367.396 1.77.697.402.3.603.694.603 1.178 0 .562-.227 1.021-.682 1.377-.455.355-1.05.533-1.785.533-.808 0-1.445-.205-1.91-.615-.465-.41-.685-.889-.662-1.436l.012-.035h1.101c.02.41.172.71.458.9.285.189.619.284 1.001.284.41 0 .732-.087.964-.261.233-.174.349-.396.349-.665zm6.275 0a.77.77 0 0 0-.29-.621c-.193-.16-.56-.301-1.098-.422-.746-.16-1.32-.385-1.72-.674-.4-.289-.6-.676-.6-1.16 0-.516.22-.957.659-1.324.439-.367 1.008-.551 1.708-.551.718 0 1.3.195 1.746.586.445.39.658.846.638 1.365l-.011.035h-1.102c0-.273-.12-.521-.36-.744-.24-.223-.544-.334-.911-.334-.407 0-.71.092-.912.276a.86.86 0 0 0-.301.656c0 .25.087.443.26.58.174.137.533.262 1.076.375.777.164 1.367.396 1.77.697.401.3.603.694.603 1.178 0 .562-.228 1.021-.683 1.377-.455.355-1.05.533-1.784.533-.809 0-1.445-.205-1.91-.615-.465-.41-.686-.889-.662-1.436l.011-.035h1.102c.02.41.172.71.457.9.285.189.619.284 1.002.284.41 0 .731-.087.964-.261.232-.174.348-.396.348-.665zm5.11-.592c0-.476.137-.893.413-1.25.275-.358.686-.717 1.233-1.076a6.007 6.007 0 0 1-.68-1.034 2.1 2.1 0 0 1-.222-.935c0-.66.19-1.169.571-1.526.381-.358.905-.536 1.573-.536.618 0 1.12.177 1.506.533.387.355.58.783.58 1.283 0 .383-.102.714-.307.993-.205.28-.51.566-.911.859l-.64.468 1.993 2.397c.16-.254.285-.535.375-.844.09-.308.135-.635.135-.978h1.031c0 .515-.076.992-.228 1.43-.153.437-.373.83-.662 1.177l1.083 1.307-.011.029h-1.342l-.498-.598a3.536 3.536 0 0 1-1.037.536 3.79 3.79 0 0 1-1.178.185c-.848 0-1.522-.225-2.024-.674-.502-.449-.753-1.031-.753-1.746zm2.777 1.518c.281 0 .559-.048.832-.144.274-.096.531-.233.774-.413l-2.116-2.549-.234.17c-.356.266-.59.52-.706.762-.115.242-.173.46-.173.656 0 .442.139.805.416 1.09.277.285.68.428 1.207.428zm-.879-5.825c0 .208.053.423.158.648.106.225.264.47.475.735l.809-.556c.222-.149.374-.31.454-.484.08-.174.12-.366.12-.577a.858.858 0 0 0-.284-.633c-.19-.183-.437-.275-.742-.275-.316 0-.56.11-.732.331a1.28 1.28 0 0 0-.258.811zm-74.32 19.456c-.203.316-.556.607-1.058.873-.502.265-1.153.398-1.954.398-.984 0-1.799-.326-2.443-.978-.645-.653-.967-1.497-.967-2.532v-1.758c0-1.035.31-1.878.932-2.53.62-.653 1.421-.98 2.402-.98.95 0 1.7.254 2.25.76.55.505.818 1.149.803 1.93l-.012.035h-1.107c0-.52-.168-.952-.504-1.298-.336-.345-.813-.518-1.43-.518-.652 0-1.178.244-1.576.732-.399.489-.598 1.108-.598 1.858v1.77c0 .757.211 1.381.633 1.871.422.49.96.736 1.617.736.504 0 .903-.066 1.198-.197.295-.13.515-.286.66-.465v-1.922h-1.934v-.903h3.088v3.118zm4.834-4.172l-.592-.035c-.305 0-.561.072-.77.216a1.39 1.39 0 0 0-.484.61V52h-1.154v-6.34h1.031l.111.926a2.2 2.2 0 0 1 .665-.768c.264-.183.568-.275.912-.275a1.63 1.63 0 0 1 .44.064l-.16 1.073zm.931 2.091c0-.937.254-1.71.762-2.317.508-.607 1.197-.911 2.069-.911.878 0 1.573.303 2.083.908.51.606.764 1.38.764 2.32v.13c0 .945-.254 1.718-.762 2.32-.507.601-1.199.902-2.074.902-.875 0-1.567-.302-2.077-.905-.51-.604-.765-1.376-.765-2.318v-.129zm1.155.13c0 .671.141 1.226.425 1.663.283.438.704.657 1.262.657.551 0 .969-.219 1.254-.657.285-.437.428-.992.428-1.664v-.129c0-.664-.144-1.216-.43-1.658-.288-.441-.709-.662-1.263-.662-.551 0-.968.22-1.251.662-.284.442-.425.994-.425 1.658v.13zm7.558.79l.147.815h.035l.152-.815 1.266-4.03h.926l1.271 4.03.164.909h.035l.188-.909.937-4.03h1.208L196.097 52h-.932l-1.254-3.861-.24-1.008h-.035l-.223 1.008-1.23 3.861h-.932l-1.84-6.34h1.201l.996 4.031zm9.065-5.56v1.53h1.201v.855h-1.201v3.85c0 .296.061.505.184.626a.667.667 0 0 0 .49.182c.066 0 .14-.009.222-.027.082-.017.15-.036.205-.055l.159.79a1.02 1.02 0 0 1-.381.174 1.922 1.922 0 0 1-.498.067c-.47 0-.842-.142-1.12-.425-.277-.283-.415-.727-.415-1.333v-3.85h-1.008v-.855h1.008v-1.53h1.154zm3.592 2.379c.218-.305.487-.542.805-.712a2.21 2.21 0 0 1 1.058-.255c.676 0 1.202.203 1.579.61.377.406.565 1.03.565 1.874V52h-1.154v-3.984c0-.524-.112-.91-.337-1.16-.224-.25-.56-.376-1.005-.376-.343 0-.642.068-.896.203a1.63 1.63 0 0 0-.615.565V52h-1.155v-9.14h1.155v3.65zm13.213 3.293h-3.211L213.506 52h-1.178l3.076-8.531h.99L219.407 52h-1.177l-.75-2.197zm-2.877-.967h2.548l-1.242-3.662h-.035l-1.271 3.662zm5.636.111c0-1.02.218-1.842.654-2.467.435-.625 1.045-.937 1.83-.937.372 0 .7.068.988.205.287.137.532.336.735.598v-3.487h1.155V52h-.885l-.176-.803a2.057 2.057 0 0 1-.768.692 2.293 2.293 0 0 1-1.06.234c-.774 0-1.379-.28-1.816-.84-.438-.561-.657-1.299-.657-2.213v-.123zm1.155.123c0 .64.13 1.154.392 1.538.262.385.668.578 1.219.578.344 0 .633-.079.867-.235a1.75 1.75 0 0 0 .574-.656v-2.96a1.777 1.777 0 0 0-.577-.623 1.525 1.525 0 0 0-.852-.232c-.555 0-.964.229-1.228.686-.264.457-.395 1.05-.395 1.781v.123zm8.044 1.06l.1.446h.035l.112-.445 1.459-4.47h1.177L229.988 52h-.873l-2.361-6.34h1.184l1.5 4.47zm5.168 1.87h-1.154v-6.34h1.154V52zm0-7.963h-1.154V42.86h1.154v1.178zm5.461 6.258a.77.77 0 0 0-.29-.621c-.193-.16-.56-.301-1.098-.422-.746-.16-1.32-.385-1.72-.674-.4-.289-.6-.676-.6-1.16 0-.516.22-.957.659-1.324.44-.367 1.008-.551 1.708-.551.718 0 1.3.195 1.746.586.445.39.658.846.638 1.365l-.011.035h-1.102c0-.273-.12-.521-.36-.744-.24-.223-.544-.334-.911-.334-.407 0-.71.092-.912.276a.86.86 0 0 0-.301.656c0 .25.087.443.26.58.174.137.533.262 1.076.375.777.164 1.367.396 1.77.697.402.3.603.694.603 1.178 0 .562-.228 1.021-.683 1.377-.455.355-1.05.533-1.784.533-.809 0-1.445-.205-1.91-.615-.465-.41-.686-.889-.662-1.436l.011-.035h1.102c.02.41.172.71.457.9.285.189.62.284 1.002.284.41 0 .731-.087.964-.261.232-.174.348-.396.348-.665zm2.32-1.524c0-.937.255-1.71.762-2.317.508-.607 1.198-.911 2.069-.911.879 0 1.573.303 2.083.908.51.606.764 1.38.764 2.32v.13c0 .945-.253 1.718-.761 2.32-.508.601-1.2.902-2.074.902-.875 0-1.568-.302-2.078-.905-.51-.604-.764-1.376-.764-2.318v-.129zm1.155.13c0 .671.142 1.226.425 1.663.283.438.704.657 1.263.657.55 0 .968-.219 1.253-.657.286-.437.428-.992.428-1.664v-.129c0-.664-.143-1.216-.43-1.658-.288-.441-.709-.662-1.263-.662-.551 0-.968.22-1.251.662-.283.442-.425.994-.425 1.658v.13zm8.936-2.221l-.592-.035c-.305 0-.562.072-.77.216a1.39 1.39 0 0 0-.484.61V52h-1.154v-6.34h1.03l.112.926a2.2 2.2 0 0 1 .665-.768c.264-.183.568-.275.911-.275a1.63 1.63 0 0 1 .44.064l-.158 1.073zm4.886 3.615a.77.77 0 0 0-.29-.621c-.193-.16-.56-.301-1.098-.422-.746-.16-1.32-.385-1.72-.674-.4-.289-.6-.676-.6-1.16 0-.516.219-.957.658-1.324.44-.367 1.01-.551 1.708-.551.72 0 1.301.195 1.747.586.445.39.658.846.638 1.365l-.011.035h-1.102c0-.273-.12-.521-.36-.744-.24-.223-.544-.334-.912-.334-.406 0-.71.092-.91.276a.86.86 0 0 0-.302.656c0 .25.087.443.26.58.174.137.533.262 1.076.375.777.164 1.367.396 1.77.697.401.3.603.694.603 1.178 0 .562-.228 1.021-.683 1.377-.455.355-1.05.533-1.784.533-.809 0-1.446-.205-1.91-.615-.465-.41-.686-.889-.662-1.436l.011-.035h1.102c.02.41.172.71.457.9.285.189.619.284 1.002.284.41 0 .731-.087.964-.261.232-.174.348-.396.348-.665z" fill="#9B9B9B"/><g fill="#4A4A4A"><path d="M119.198 38.81c-1.712-1.023-3.133-2.278-4.221-3.73-.16-.213-.299-.414-.425-.61a23.076 23.076 0 0 1-.7-1.146c-.275-.478-.56-.99-.856-1.524-1.367-2.46-3.067-5.52-5.34-7.54-.318-.282-.644-.539-.972-.77.355.007.707.008 1.065.006 3.833-.017 7.845.097 10.918 1.71.21.111.422.229.627.353.458.283.88.593 1.281.944.79.677 1.504 1.513 2.124 2.488.16.251.312.509.451.765l.571 1.034c2.964 5.397 4.318 7.865 9.972 9.81.054.052.233.266.409.885l.02.067c1.423 5.073 1.858 8.21 1.947 10.058h-4.154c.063-.646.338-1.609 1.384-1.705a.67.67 0 0 0 .457-.239.608.608 0 0 0 .137-.482c-.024-.163-.591-4.031-1.816-5.653-.81-1.07-2.864-1.504-5.24-2.006-1.048-.221-2.13-.45-3.09-.738-1.658-.498-3.185-1.16-4.529-1.966l-.02-.011M99.306 30.959c.627-2.194 1.41-4.924.226-7.594a6.733 6.733 0 0 0-.498-.922 34.58 34.58 0 0 0 3.882.644c.057.026.12.045.186.055 1.334.196 2.575.817 3.793 1.9 2.11 1.872 3.684 4.704 5.071 7.202.299.541.587 1.06.866 1.544.063.105.12.203.176.3-1.201.11-2.363.307-3.846.65-1.417.327-3.1.778-5.426 1.402l-.9.241a33.127 33.127 0 0 1-3.723.78 17.92 17.92 0 0 1-.325-2.125c-.08-.881-.056-1.66.063-2.315.096-.515.269-1.12.455-1.762M113.673 35.36c.08.117.166.238.262.364 1.128 1.505 2.578 2.808 4.307 3.886.053.702.26 2.33 1.056 3.462-.488.718-4.139 6.092-5.605 8.44h-3.707c.063-.361.209-.821.55-1.186.382-.41.96-.634 1.716-.667a.67.67 0 0 0 .564-.347l2.678-5.049c.293-.54.107-1.202-.434-1.533-.973-.59-5.618-3.59-5.267-6.796 1.47-.323 2.622-.493 3.88-.574M91.908 3.37a7.282 7.282 0 0 1-.116.433 18.92 18.92 0 0 0-1.039-.434c.06-.186.113-.386.166-.605.053-.216.1-.446.15-.682.46-.337.912-.655 1.324-.935-.117.447-.206.903-.296 1.337-.063.31-.123.61-.189.887M120.104 24.481c.508-.783 2.452-3.264 6.723-3.423 3.23-.123 6.236.775 9.146 1.643 1.855.554 3.607 1.077 5.28 1.282 1.108.136 2.27.117 3.458-.051.179.036.355.114.52.236 1.11.816 1.6 3.304-.361 5.853-2.077 2.699-5.787 3.016-6.776 3.052-2.888-.983-5.101-2.98-7.056-4.746-2.966-2.683-5.777-5.222-9.925-3.123-.322-.255-.657-.5-1.01-.723"/><path d="M145.952 30.582c2.12-2.756 1.928-5.712.55-7.207 2.937-.792 5.443-2.458 7.172-4.773.338 2.376.584 6.937-1.736 10.374-1.553 2.303-4.032 3.759-7.37 4.327-1.022.174-1.998.24-2.94.21 1.49-.497 3.126-1.376 4.324-2.93M90.469 7.895c.053.347.395.586.753.538.747-.104 1.062.075 1.065.077-.02-.012-.03-.02-.03-.02l.827-.998c-.113-.086-.74-.502-2.054-.318a.643.643 0 0 0-.561.72zm-6.425 24.957l-.003-.001a.09.09 0 0 0-.017-.02c0-.001 0-.002-.003-.003a21.193 21.193 0 0 1-1.39-1.642c-2.997-3.943-4.086-8.556-3.322-14.103 1.002-7.314 6.003-12.28 6.995-13.2.372-.342.61-.626.823-.877.226-.27.405-.484.714-.731A40.3 40.3 0 0 1 90.329.448c-.116.451-.209.91-.295 1.346-.063.308-.123.603-.19.876-.095.41-.205.753-.318 1.017-.249.574-.405.582-.6.592-.365.02-.647.32-.624.67.02.351.332.617.697.6.478-.024 1.005-.153 1.453-.818.412.157 1.039.414 1.613.712.325.17.6.335.81.489.245.18.51.419.796.671.876.78 1.968 1.75 3.471 1.978.565.086 1.298.17 2.177.25.677.06 1.331.108 1.809.14a6.797 6.797 0 0 1-.797 1.685c-.086.133-.152.26-.219.383-.235.453-.421.81-3.082.997-1.351.096-2.516.252-3.478.464-.02.002-.04.002-.06.007-1.517.315-2.768.787-3.823 1.443-3.425 2.118-4.434 5.983-3 11.485.843 3.24 2.306 5.83 3.723 8.335.69 1.222 1.348 2.39 1.899 3.571a15.2 15.2 0 0 1-3.073-.863 13.703 13.703 0 0 1-4.407-2.857c-.25-.238-.501-.49-.767-.77z"/><path d="M87.823 25.012c-1.158-4.45-.594-7.655 1.67-9.552-.034.74.265 1.56.899 2.451 1.198 1.687 3.331 3.03 6.341 3.993.63.607 1.125 1.285 1.447 2.01 1.002 2.261.289 4.754-.285 6.758-.193.67-.375 1.305-.481 1.879-.14.763-.166 1.652-.08 2.641.096 1.127.322 2.19.491 2.882.166.683.315 1.167.358 1.299l-1.347 12.134h-4.062c.05-.53.22-.948.501-1.244.472-.49 1.149-.513 1.155-.513a.664.664 0 0 0 .64-.523c.027-.131.595-3.28-.378-8.558a14.76 14.76 0 0 0-.882-2.956c-.644-1.584-1.49-3.08-2.386-4.665-1.374-2.434-2.798-4.952-3.601-8.036M78.616 37.492l4.742-3.528c.13.131.26.258.388.38a15.128 15.128 0 0 0 3.405 2.467l-6.076 2.166a.646.646 0 0 0-.408.425c-.222.761.355 3.577.614 4.753a.642.642 0 0 0 .438.473c.677.214 2.197 2.038 2.233 2.64-.438.112-2.884.623-3.906-1.345-1.005-1.94-1.689-5.685-1.938-7.206-.08-.465.116-.934.508-1.225"/><g><path d="M50.322 33.413l-.01-.264c-.062-1.21-.31-2.324-.569-3.503-.359-1.616-.724-3.288-.676-5.402.07-2.694.538-4.624 1.631-6.313a26.745 26.745 0 0 1-5.266 1.663.61.61 0 0 1-.065.028c-3.094 1.107-5.356 5.332-7.353 9.06-.269.502-.538 1-.803 1.486-.152.276-.287.524-.421.759 2.39-.166 4.321-.013 6.014.472 1.576.449 2.835 1.148 4.166 1.888.994.551 2.018 1.12 3.311 1.679.041-.526.059-1.046.041-1.553M60.01 23.43l-.455-.473c-2.545-2.694-3.34-5.492-2.416-8.612-.21.17-.427.34-.65.507-1.024.753-1.749 1.324-2.352 1.853-2.21 1.935-3.43 3.808-3.535 8.159-.047 1.997.302 3.616.638 5.182.267 1.236.518 2.403.586 3.723l.01.279c.027.848-.02 1.723-.139 2.603-.319 2.341-1.067 4.125-1.376 4.784a.739.739 0 0 0-.064.415L51.3 49.72c.01.065.033.13.074.186l1.02 1.428a.544.544 0 0 0 .44.219h3.132c-.01-.293-.078-.669-.319-.984-.284-.37-.776-.602-1.464-.69-.305-.039-.539-.258-.58-.536-.023-.166-.572-4.09-.4-5.573.13-1.047.533-3.253 1.841-6.277.43-.996.925-2 1.474-2.985a36.293 36.293 0 0 1 2.016-3.216c2.047-2.921 2.569-5.71 1.474-7.86M35.688 32.41c-.66 1.088-1.245 1.904-1.818 2.541a13.6 13.6 0 0 1-1.635 1.539c.321 1.2.878 4.658-2.624 6.666l4.2 7.67c.093.17.283.277.494.277h3.72c-.035-.354-.153-.814-.488-1.156-.342-.352-.892-.53-1.628-.53a.694.694 0 0 1-.643-.396l-2.167-4.994a.586.586 0 0 1 .238-.73c.056-.037 5.638-3.694 7.231-5.749 1.372-1.77 1.2-4.05 1.075-4.896-1.628-.402-3.536-.48-5.955-.241M25.146 26.81a44.68 44.68 0 0 1 1.383-2.356 9.278 9.278 0 0 1 1.288-1.59c-.801-.03-2.308.255-4.866 1.856-1.383.902-3.793 2.97-5.389 4.338l-.691.594c-2.051 1.753-4.965 3.818-9.334 4.217-.373.033-.736.05-1.092.05-.681 0-1.335-.064-1.958-.186.955 1.003 2.478 1.942 4.998 1.614 1.706-.218 3.548-.92 5.331-2.03a21.15 21.15 0 0 0 3.308-2.573.747.747 0 0 1 .969-.025.564.564 0 0 1 .027.862 23.494 23.494 0 0 1-1.897 1.608c1.938-.377 5.088-1.741 7.923-6.38"/><path d="M61.302 34.943c.302-.297.57-.623.801-.973.724-1.082.989-2.224 1.086-2.992.19-1.518.003-2.785-.586-3.99a8.744 8.744 0 0 0-.895-1.436c.07 1.992-.677 4.2-2.215 6.447a34.162 34.162 0 0 0-2.962 5.208 6.68 6.68 0 0 0 2.024-.53c.442-.191.921-.441 1.508-.786a6.301 6.301 0 0 0 1.24-.948M7.162 32.68c4.035-.36 6.767-2.267 8.7-3.887l.701-.592c.158-.13.318-.267.486-.408C11.634 29.807 4.336 31.125 0 29.711a7.17 7.17 0 0 0 2.676 2.263c.049.017.098.04.143.067 1.248.568 2.704.784 4.343.64M33.418 34.212c.587-.649 1.198-1.516 1.92-2.732.274-.465.573-.987.927-1.644.267-.488.535-.987.806-1.49 1.642-3.07 3.326-6.216 5.552-8.174-.834.076-1.667.137-2.473.196-3.979.289-7.736.563-10.315 2.59a7.923 7.923 0 0 0-1.813 2.018c-.49.77-.948 1.583-1.371 2.348-.167.295-.33.593-.493.891-2.497 4.56-5.077 9.272-11.559 9.772l-4.236 10.006a.597.597 0 0 0 .056.554l1.461 2.254a.702.702 0 0 0 .587.302h3.365c-.042-.37-.16-.849-.5-1.19-.299-.298-.73-.445-1.32-.451a.71.71 0 0 1-.61-.34l-.22-.385a1.778 1.778 0 0 1-.062-1.664c.951-1.982 2.611-5.396 3.042-5.999.694-.965 2-1.418 5.59-1.942l.243-.036c2.899-.423 6.5-.95 9.555-3.204a.696.696 0 0 1 .163-.12c.608-.46 1.184-.982 1.705-1.56M60.822 36.716c-.48.266-.898.48-1.292.66-.11 2.054-.546 3.576-.734 4.149a.518.518 0 0 0-.014.234l1.376 7.966a.293.293 0 0 0 .05.113l1.143 1.54a.446.446 0 0 0 .358.174h3.346c-.01-.296-.081-.676-.333-.994-.295-.374-.813-.608-1.533-.697-.298-.037-.54-.237-.6-.498-.039-.171-.94-4.212-.6-6.763.26-1.976 1.3-5.223 2.183-7.634-.625.291-1.27.545-1.938.758-.418.367-.89.702-1.412.992M68.627 6.266a.717.717 0 0 1-.511.204.727.727 0 0 1-.463-.161.58.58 0 0 1-.048-.879c.272-.27.428-.451.514-.566a.507.507 0 0 1-.024-.125c-.031-.341.252-.64.632-.668.324-.024.638.135.783.396.273.5-.117 1.038-.883 1.799zm5.965-.865a.746.746 0 0 1-.977-.018.58.58 0 0 1 .02-.88c.01-.007 1.012-.886 1.492-1.952.09-.202.155-.398.197-.58.058-.277-.246-1.138-.636-1.971-1.401 1.06-4.194 3.084-5.292 3.291-.169.033-.38.055-.621.082-.694.076-1.74.191-2.372.616-.555.374-1.087.835-1.632 1.314l-.094.081c-.804.704-1.501 1.311-2.226 1.566-2.317.816-3.546 1.7-4.125 2.22.472.246.932.415 1.37.506 1.885.391 2.845-.84 2.882-.894l.004-.001a.621.621 0 0 1 .083-.092l.003-.003a.747.747 0 0 1 .973.001c.018.014.025.03.039.045a.829.829 0 0 1 .065.082c.014.023.028.045.038.07.021.04.038.084.045.128.007.023.007.045.01.068a.497.497 0 0 1 0 .102l-.006.06a.558.558 0 0 1-.052.142c-.004.008-.004.017-.01.025-.211.46-.35.98-.411 1.545-.207 1.883.504 4.115 1.77 5.556a31.02 31.02 0 0 1 1.91 2.404c.006-1.361-.246-2.594-.249-2.611-.059-.28.1-.559.387-.679a.742.742 0 0 1 .825.169c.127.14 2.844 3.167 3.217 7.517.632-1.658.684-3.442.735-5.297.014-.492.028-.99.052-1.49l.024-.437c.152-3.193.263-5.5 1.126-6.977.5-.86 1.032-1.582 1.501-2.219.553-.755 1.032-1.408 1.136-1.881.062-.27.02-.578-.055-.87A8.524 8.524 0 0 1 74.592 5.4z"/><path d="M68.318 20.943c-.066.251-.297.44-.583.472-.283.032-.565-.096-.7-.324-.01-.018-1.07-1.806-2.849-3.82-1.5-1.694-2.307-4.21-2.062-6.41l.02-.124c-.44.17-.965.289-1.572.289-.176 0-.355-.012-.541-.033-.059.076-.128.164-.207.262-2.739 4.144-2.563 7.442.576 10.69l.541.555c1.121 1.156 2.28 2.352 2.997 3.773.717 1.398.945 2.855.717 4.583a7.975 7.975 0 0 1-.882 2.743c.365-.186.727-.381 1.072-.597 2.118-1.313 3.473-2.978 4.039-4.098.51-1.022.851-2.077 1.013-3.133.06-.363.094-.711.104-1.038.117-2.41-.662-4.5-1.449-5.962.004.714-.051 1.479-.234 2.172"/></g></g><path d="M183.6 19.592a1.02 1.02 0 0 1-.228.408.467.467 0 0 1-.348.168c-.16 0-.276-.048-.348-.144a1.604 1.604 0 0 1-.204-.408l-3.864-14.328-3.504 14.28a1.09 1.09 0 0 1-.204.396c-.088.104-.22.164-.396.18a.404.404 0 0 1-.36-.132.993.993 0 0 1-.216-.42l-3.912-13.056a91.612 91.612 0 0 0-.384-1.308c-.128-.424-.288-.748-.48-.972a.785.785 0 0 0-.396-.252 8.339 8.339 0 0 0-.636-.132.254.254 0 0 1-.18-.132.357.357 0 0 1-.048-.216.481.481 0 0 1 .072-.204c.04-.064.1-.096.18-.096.32.016.672.024 1.056.024h1.44c.288 0 .596-.004.924-.012l.984-.024.9-.024c.272-.008.496-.012.672-.012.08 0 .14.032.18.096.04.064.06.132.06.204 0 .072-.02.144-.06.216a.194.194 0 0 1-.18.108c-.32.032-.6.072-.84.12s-.448.136-.624.264a.665.665 0 0 0-.252.372c-.04.152-.06.312-.06.48 0 .168.016.332.048.492.032.16.064.296.096.408l2.808 9.48 2.928-11.904c.048-.064.188-.124.42-.18a8.272 8.272 0 0 1 1.56-.216c.248-.008.412-.004.492.012l3.312 12.528 2.664-9.624c.256-.88.2-1.504-.168-1.872-.24-.24-.664-.36-1.272-.36-.08 0-.136-.032-.168-.096a.387.387 0 0 1-.036-.216.415.415 0 0 1 .072-.204c.04-.056.1-.084.18-.084a37.499 37.499 0 0 0 3.768 0c.064 0 .12.028.168.084.048.056.072.12.072.192 0 .072-.02.14-.06.204a.198.198 0 0 1-.18.096c-.176 0-.34.04-.492.12a.884.884 0 0 0-.348.312c-.128.176-.268.468-.42.876-.152.408-.292.836-.42 1.284L183.6 19.592zM201.288 14c0 .864-.136 1.68-.408 2.448a6.113 6.113 0 0 1-1.152 2.004 5.548 5.548 0 0 1-1.788 1.356 5.202 5.202 0 0 1-2.292.504c-.848 0-1.62-.168-2.316-.504a5.416 5.416 0 0 1-1.776-1.356 6.232 6.232 0 0 1-1.14-2.004 7.279 7.279 0 0 1-.408-2.448c0-.864.136-1.68.408-2.448a6.232 6.232 0 0 1 1.14-2.004 5.416 5.416 0 0 1 1.776-1.356c.696-.336 1.468-.504 2.316-.504.832 0 1.596.168 2.292.504a5.548 5.548 0 0 1 1.788 1.356c.496.568.88 1.236 1.152 2.004.272.768.408 1.584.408 2.448zm-2.928.024c0-.72-.052-1.424-.156-2.112a8.415 8.415 0 0 0-.48-1.848c-.216-.544-.496-.984-.84-1.32a1.706 1.706 0 0 0-1.236-.504c-.496 0-.916.168-1.26.504-.344.336-.624.776-.84 1.32a8 8 0 0 0-.468 1.848 15.267 15.267 0 0 0-.144 2.112c0 .72.048 1.424.144 2.112.096.688.252 1.3.468 1.836.216.536.496.972.84 1.308.344.336.764.504 1.26.504.48 0 .892-.168 1.236-.504.344-.336.624-.772.84-1.308a8.187 8.187 0 0 0 .48-1.836c.104-.688.156-1.392.156-2.112zm8.592-11.496v15.048c0 .368.032.664.096.888.064.224.16.4.288.528a.968.968 0 0 0 .576.264c.24.032.544.08.912.144.08.016.14.056.18.12a.31.31 0 0 1 .048.204.412.412 0 0 1-.084.204.228.228 0 0 1-.192.096c-.176 0-.396-.004-.66-.012a257.355 257.355 0 0 0-1.752-.048 33.484 33.484 0 0 0-.852-.012c-.512 0-1.04.008-1.584.024a75.87 75.87 0 0 0-1.32.048.228.228 0 0 1-.192-.096.412.412 0 0 1-.084-.204.31.31 0 0 1 .048-.204c.04-.064.1-.104.18-.12.368-.064.672-.112.912-.144a.968.968 0 0 0 .576-.264c.128-.128.224-.304.288-.528.064-.224.096-.52.096-.888V4.424c0-.448-.136-.796-.408-1.044-.272-.248-.776-.388-1.512-.42-.096 0-.164-.036-.204-.108a.381.381 0 0 1-.048-.228.308.308 0 0 1 .324-.288c.16.016.388.024.684.024.296 0 .608-.008.936-.024.328-.016.64-.036.936-.06a5.29 5.29 0 0 0 .66-.084c.256-.064.512-.088.768-.072s.384.152.384.408zm6.984 15.072c0 .368.032.664.096.888.064.224.16.4.288.528.128.144.316.232.564.264.248.032.556.08.924.144.08.016.14.056.18.12a.31.31 0 0 1 .048.204.412.412 0 0 1-.084.204.228.228 0 0 1-.192.096A82.042 82.042 0 0 0 214.5 20a48.029 48.029 0 0 0-1.524-.024c-.256 0-.532.004-.828.012a1168.31 1168.31 0 0 0-1.692.048c-.256.008-.464.012-.624.012a.228.228 0 0 1-.192-.096.412.412 0 0 1-.084-.204.31.31 0 0 1 .048-.204c.04-.064.1-.104.18-.12.368-.064.636-.112.804-.144a.783.783 0 0 0 .444-.264c.128-.144.224-.324.288-.54.064-.216.096-.508.096-.876V9.152c0-.176-.044-.292-.132-.348-.088-.056-.228-.084-.42-.084h-.672c-.096 0-.16-.032-.192-.096a.257.257 0 0 1-.012-.204.525.525 0 0 1 .132-.204.298.298 0 0 1 .216-.096h.12c.336 0 .568-.124.696-.372s.216-.58.264-.996c.064-.496.132-1.012.204-1.548.072-.536.292-1.084.66-1.644.4-.608.948-1.052 1.644-1.332s1.5-.372 2.412-.276c.56.064 1.056.204 1.488.42.432.216.736.516.912.9.128.272.136.504.024.696a.924.924 0 0 1-.48.408c-.208.08-.428.092-.66.036-.232-.056-.404-.204-.516-.444-.272-.608-.64-1.012-1.104-1.212-.464-.2-.888-.164-1.272.108-.272.192-.468.484-.588.876-.12.392-.196.808-.228 1.248-.032.44-.04.88-.024 1.32.016.44.024.804.024 1.092.016.192.04.356.072.492.032.136.184.204.456.204h1.272c.096 0 .16.032.192.096s.04.132.024.204a.39.39 0 0 1-.132.204.367.367 0 0 1-.252.096l-1.08.024c-.352 0-.528.176-.528.528V17.6zm20.568-3.84c-.048.512-.108.972-.18 1.38a6.78 6.78 0 0 1-.3 1.14c.48.4.956.752 1.428 1.056.472.304.924.556 1.356.756.432.2.824.34 1.176.42.352.08.648.08.888 0 .272-.08.48-.196.624-.348.144-.152.256-.3.336-.444.08-.144.176-.184.288-.12.112.064.144.16.096.288a3.772 3.772 0 0 1-.24.552 3.947 3.947 0 0 1-.528.78c-.224.264-.508.5-.852.708-.344.208-.756.312-1.236.312-.72 0-1.444-.184-2.172-.552a13.387 13.387 0 0 1-2.172-1.392c-.4.512-.876.936-1.428 1.272a6.149 6.149 0 0 1-1.788.732 7.344 7.344 0 0 1-1.968.192 6.642 6.642 0 0 1-1.968-.372 5.28 5.28 0 0 1-1.716-.96 5.295 5.295 0 0 1-1.272-1.548 5.665 5.665 0 0 1-.636-2.004c-.096-.736-.032-1.52.192-2.352.144-.544.36-1.02.648-1.428a5.572 5.572 0 0 1 1.98-1.74c.344-.176.652-.312.924-.408-.384-.88-.608-1.74-.672-2.58-.064-.84.12-1.62.552-2.34.32-.528.752-.924 1.296-1.188a4.558 4.558 0 0 1 1.692-.456 4.098 4.098 0 0 1 1.68.228c.536.192.956.488 1.26.888.16.224.296.476.408.756.112.28.184.568.216.864.032.296.024.58-.024.852a1.606 1.606 0 0 1-.288.696c-.224.304-.488.484-.792.54-.304.056-.576.02-.816-.108s-.404-.34-.492-.636c-.088-.296-.028-.636.18-1.02.112-.208.2-.452.264-.732.064-.28.076-.552.036-.816a1.315 1.315 0 0 0-.312-.684c-.168-.192-.42-.312-.756-.36a2.129 2.129 0 0 0-.672.06 1.405 1.405 0 0 0-.612.336c-.184.168-.34.396-.468.684-.128.288-.192.648-.192 1.08-.032 1.152.308 2.404 1.02 3.756.712 1.352 1.724 2.78 3.036 4.284a22.041 22.041 0 0 0 1.968 2.04c.08-.352.144-.708.192-1.068.048-.36.088-.7.12-1.02.048-.8.04-1.436-.024-1.908s-.264-.828-.6-1.068c-.272-.192-.532-.304-.78-.336a42.36 42.36 0 0 1-.852-.12.307.307 0 0 1-.192-.12.351.351 0 0 1-.072-.216c0-.08.024-.152.072-.216a.228.228 0 0 1 .192-.096c.368.016.768.032 1.2.048.432.016.904.024 1.416.024.576 0 1.08-.016 1.512-.048.432-.032.816-.056 1.152-.072.08 0 .14.032.18.096.04.064.06.14.06.228a.37.37 0 0 1-.072.228c-.048.064-.12.096-.216.096-.32 0-.636.04-.948.12-.312.08-.564.24-.756.48a1.756 1.756 0 0 0-.276.576c-.072.24-.124.5-.156.78s-.06.556-.084.828c-.024.272-.044.512-.06.72zm-6.024-.144a24.697 24.697 0 0 1-1.2-1.608c-.384-.56-.72-1.128-1.008-1.704-.176.176-.376.444-.6.804-.224.36-.416.82-.576 1.38a7.122 7.122 0 0 0-.228 2.388c.056.84.252 1.612.588 2.316.336.704.82 1.284 1.452 1.74.632.456 1.42.684 2.364.684.72 0 1.348-.172 1.884-.516a5.29 5.29 0 0 0 1.356-1.236 21.922 21.922 0 0 1-2.232-2.16 64.26 64.26 0 0 1-1.8-2.088zm19.824 3.96c0 .368.032.664.096.888.064.224.16.4.288.528.144.144.368.232.672.264.304.032.64.08 1.008.144.08.016.14.056.18.12a.31.31 0 0 1 .048.204.412.412 0 0 1-.084.204.228.228 0 0 1-.192.096c-.176 0-.408-.004-.696-.012a273.902 273.902 0 0 0-1.92-.048 37.828 37.828 0 0 0-.888-.012c-.512 0-1.036.008-1.572.024s-.972.032-1.308.048a.228.228 0 0 1-.192-.096.412.412 0 0 1-.084-.204.31.31 0 0 1 .048-.204c.04-.064.1-.104.18-.12.192-.032.352-.056.48-.072.128-.016.248-.036.36-.06.112-.024.212-.056.3-.096s.188-.1.3-.18c.144-.128.244-.304.3-.528.056-.224.084-.52.084-.888V5.624c0-.736-.128-1.208-.384-1.416a1.132 1.132 0 0 0-.588-.276c-.2-.024-.484-.068-.852-.132a.263.263 0 0 1-.18-.12.31.31 0 0 1-.048-.204.412.412 0 0 1 .084-.204.228.228 0 0 1 .192-.096c.16 0 .368.004.624.012a301.015 301.015 0 0 0 1.668.048c.296.008.572.012.828.012h7.872c.096 0 .196-.008.3-.024a.555.555 0 0 0 .252-.096c.144-.096.3-.092.468.012.168.104.236.268.204.492l-.288 3.312c0 .08-.032.136-.096.168a.441.441 0 0 1-.42-.012c-.072-.04-.116-.108-.132-.204-.032-.144-.08-.336-.144-.576a34.625 34.625 0 0 0-.408-1.416 2.188 2.188 0 0 0-.168-.432c-.16-.272-.324-.436-.492-.492a1.382 1.382 0 0 0-.42-.084h-4.512c-.336 0-.548.108-.636.324a1.859 1.859 0 0 0-.132.708v6.432h2.976c.56 0 .972-.028 1.236-.084.264-.056.452-.16.564-.312.112-.152.18-.36.204-.624.024-.264.068-.612.132-1.044a.263.263 0 0 1 .12-.18.31.31 0 0 1 .204-.048c.072.008.14.036.204.084a.228.228 0 0 1 .096.192c-.016.336-.04.668-.072.996-.032.328-.056.748-.072 1.26-.016.576-.012 1.06.012 1.452.024.392.044.756.06 1.092 0 .08-.032.144-.096.192a.53.53 0 0 1-.204.096.3.3 0 0 1-.216-.036c-.072-.04-.108-.108-.108-.204a7.737 7.737 0 0 0-.144-1.164c-.064-.28-.168-.488-.312-.624s-.344-.216-.6-.24a11.266 11.266 0 0 0-1.008-.036h-2.976v5.448zM268.536 14c0 .864-.136 1.68-.408 2.448a6.113 6.113 0 0 1-1.152 2.004 5.548 5.548 0 0 1-1.788 1.356 5.202 5.202 0 0 1-2.292.504c-.848 0-1.62-.168-2.316-.504a5.416 5.416 0 0 1-1.776-1.356 6.232 6.232 0 0 1-1.14-2.004 7.279 7.279 0 0 1-.408-2.448c0-.864.136-1.68.408-2.448a6.232 6.232 0 0 1 1.14-2.004 5.416 5.416 0 0 1 1.776-1.356c.696-.336 1.468-.504 2.316-.504.832 0 1.596.168 2.292.504a5.548 5.548 0 0 1 1.788 1.356c.496.568.88 1.236 1.152 2.004.272.768.408 1.584.408 2.448zm-2.928.024c0-.72-.052-1.424-.156-2.112a8.415 8.415 0 0 0-.48-1.848c-.216-.544-.496-.984-.84-1.32a1.706 1.706 0 0 0-1.236-.504c-.496 0-.916.168-1.26.504-.344.336-.624.776-.84 1.32a8 8 0 0 0-.468 1.848 15.267 15.267 0 0 0-.144 2.112c0 .72.048 1.424.144 2.112.096.688.252 1.3.468 1.836.216.536.496.972.84 1.308.344.336.764.504 1.26.504.48 0 .892-.168 1.236-.504.344-.336.624-.772.84-1.308a8.187 8.187 0 0 0 .48-1.836c.104-.688.156-1.392.156-2.112zm12.24-3.888c.192-.256.332-.512.42-.768.088-.256.092-.448.012-.576-.064-.112-.132-.172-.204-.18-.072-.008-.22-.028-.444-.06a.183.183 0 0 1-.132-.108.483.483 0 0 1-.036-.192.38.38 0 0 1 .048-.192c.032-.056.072-.084.12-.084.24.016.5.028.78.036a34.51 34.51 0 0 0 1.848 0c.184-.008.396-.02.636-.036.048 0 .092.032.132.096.04.064.06.132.06.204 0 .072-.012.14-.036.204-.024.064-.068.096-.132.096-.176 0-.332.02-.468.06-.136.04-.308.124-.516.252-.272.176-.52.408-.744.696a200.1 200.1 0 0 1-.6.768l-2.16 2.856 3 4.8c.128.208.268.4.42.576.152.176.316.336.492.48.176.144.32.24.432.288.112.048.28.08.504.096.064 0 .112.032.144.096a.358.358 0 0 1 .036.204.492.492 0 0 1-.06.192c-.032.056-.072.084-.12.084a26.68 26.68 0 0 0-1.14-.036 87.553 87.553 0 0 0-1.38-.012h-.696c-.272 0-.544.004-.816.012l-.78.024c-.248.008-.428.012-.54.012-.048 0-.092-.028-.132-.084a.4.4 0 0 1-.072-.192.375.375 0 0 1 .024-.192.183.183 0 0 1 .132-.108l.6-.084a.535.535 0 0 0 .408-.3c.08-.128.092-.292.036-.492a2.062 2.062 0 0 0-.276-.588l-1.896-3.072-2.4 3.024c-.208.272-.344.52-.408.744-.064.224-.056.392.024.504a.46.46 0 0 0 .3.228c.12.024.276.036.468.036.064 0 .108.032.132.096a.576.576 0 0 1 .036.204.38.38 0 0 1-.048.192c-.032.056-.072.084-.12.084-.24-.016-.5-.028-.78-.036a34.51 34.51 0 0 0-.972-.012h-.516c-.136 0-.26.004-.372.012l-.312.024a3.77 3.77 0 0 1-.312.012c-.048 0-.092-.032-.132-.096a.379.379 0 0 1-.06-.204c0-.072.012-.14.036-.204.024-.064.068-.096.132-.096.224-.016.392-.048.504-.096.112-.048.248-.128.408-.24.176-.128.368-.312.576-.552.208-.24.408-.48.6-.72l2.784-3.576-2.544-4.128c-.304-.48-.592-.848-.864-1.104a2.247 2.247 0 0 0-.42-.276 1.482 1.482 0 0 0-.588-.156c-.064 0-.112-.032-.144-.096a.45.45 0 0 1 0-.408c.032-.064.072-.096.12-.096.112 0 .268.004.468.012l.636.024c.224.008.456.012.696.012h1.356c.264 0 .536-.004.816-.012l.768-.024c.232-.008.412-.012.54-.012.048 0 .092.032.132.096.04.064.064.132.072.204.008.072 0 .14-.024.204-.024.064-.068.096-.132.096l-.432.048a.825.825 0 0 0-.408.168c-.16.128-.224.312-.192.552.032.24.088.416.168.528l1.632 2.64 1.872-2.376z" fill="#4A4A4A"/></g></svg>