<svg xmlns="http://www.w3.org/2000/svg" width="369" height="60"><g fill="#4A4A4A" fill-rule="evenodd"><path d="M119.198 38.81c-1.712-1.023-3.133-2.278-4.221-3.73-.16-.213-.299-.414-.425-.61a23.076 23.076 0 0 1-.7-1.146c-.275-.478-.56-.99-.856-1.524-1.367-2.46-3.067-5.52-5.34-7.54a11.104 11.104 0 0 0-.972-.77c.355.007.707.008 1.065.006 3.833-.017 7.845.097 10.918 1.71a9.548 9.548 0 0 1 1.908 1.297c.79.677 1.504 1.513 2.124 2.488.16.251.312.509.451.765l.571 1.034c2.964 5.397 4.318 7.865 9.972 9.81.054.052.233.266.409.885l.02.067c1.423 5.073 1.858 8.21 1.947 10.058h-4.154c.063-.646.338-1.609 1.384-1.705a.67.67 0 0 0 .457-.239.608.608 0 0 0 .137-.482c-.024-.163-.591-4.031-1.816-5.653-.81-1.07-2.864-1.504-5.24-2.006-1.048-.221-2.13-.45-3.09-.738-1.658-.498-3.185-1.16-4.529-1.966l-.02-.011m-19.892-7.851c.627-2.194 1.41-4.924.226-7.594a6.733 6.733 0 0 0-.498-.922 34.58 34.58 0 0 0 3.882.644c.057.026.12.045.186.055 1.334.196 2.575.817 3.793 1.9 2.11 1.872 3.684 4.704 5.071 7.202.299.541.587 1.06.866 1.544.063.105.12.203.176.3-1.201.11-2.363.307-3.846.65-1.417.327-3.1.778-5.426 1.402l-.9.241a33.127 33.127 0 0 1-3.723.78 17.92 17.92 0 0 1-.325-2.125c-.08-.881-.056-1.66.063-2.315.096-.515.269-1.12.455-1.762m14.367 4.401c.08.117.166.238.262.364 1.128 1.505 2.578 2.808 4.307 3.886.053.702.26 2.33 1.056 3.462-.488.718-4.139 6.092-5.605 8.44h-3.707c.063-.361.209-.821.55-1.186.382-.41.96-.634 1.716-.667a.67.67 0 0 0 .564-.347l2.678-5.049c.293-.54.107-1.202-.434-1.533-.973-.59-5.618-3.59-5.267-6.796 1.47-.323 2.622-.493 3.88-.574M91.908 3.37a7.282 7.282 0 0 1-.116.433 18.92 18.92 0 0 0-1.039-.434c.06-.186.113-.386.166-.605.053-.216.1-.446.15-.682.46-.337.912-.655 1.324-.935-.117.447-.206.903-.296 1.337-.063.31-.123.61-.189.887m28.196 21.11c.508-.783 2.452-3.264 6.723-3.423 3.23-.123 6.236.775 9.146 1.643 1.855.554 3.607 1.077 5.28 1.282a13.22 13.22 0 0 0 3.458-.051c.179.036.355.114.52.236 1.11.816 1.6 3.304-.361 5.853-2.077 2.699-5.787 3.016-6.776 3.052-2.888-.983-5.101-2.98-7.056-4.746-2.966-2.683-5.777-5.222-9.925-3.123-.322-.255-.657-.5-1.01-.723"/><path d="M145.952 30.582c2.12-2.756 1.928-5.712.55-7.207 2.937-.792 5.443-2.458 7.172-4.773.338 2.376.584 6.937-1.736 10.374-1.553 2.303-4.032 3.759-7.37 4.327a14.67 14.67 0 0 1-2.94.21c1.49-.497 3.126-1.376 4.324-2.93M90.469 7.895c.053.347.395.586.753.538.747-.104 1.062.075 1.065.077-.02-.012-.03-.02-.03-.02l.827-.998c-.113-.086-.74-.502-2.054-.318a.643.643 0 0 0-.561.72zm-6.425 24.957l-.003-.001a.09.09 0 0 0-.017-.02c0-.001 0-.002-.003-.003a21.193 21.193 0 0 1-1.39-1.642c-2.997-3.943-4.086-8.556-3.322-14.103 1.002-7.314 6.003-12.28 6.995-13.2.372-.342.61-.626.823-.877.226-.27.405-.484.714-.731A40.3 40.3 0 0 1 90.329.448c-.116.451-.209.91-.295 1.346-.063.308-.123.603-.19.876-.095.41-.205.753-.318 1.017-.249.574-.405.582-.6.592-.365.02-.647.32-.624.67.02.351.332.617.697.6.478-.024 1.005-.153 1.453-.818.412.157 1.039.414 1.613.712.325.17.6.335.81.489.245.18.51.419.796.671.876.78 1.968 1.75 3.471 1.978.565.086 1.298.17 2.177.25.677.06 1.331.108 1.809.14a6.797 6.797 0 0 1-.797 1.685c-.086.133-.152.26-.219.383-.235.453-.421.81-3.082.997-1.351.096-2.516.252-3.478.464-.02.002-.04.002-.06.007-1.517.315-2.768.787-3.823 1.443-3.425 2.118-4.434 5.983-3 11.485.843 3.24 2.306 5.83 3.723 8.335.69 1.222 1.348 2.39 1.899 3.571a15.2 15.2 0 0 1-3.073-.863 13.703 13.703 0 0 1-4.407-2.857c-.25-.238-.501-.49-.767-.77z"/><path d="M87.823 25.012c-1.158-4.45-.594-7.655 1.67-9.552-.034.74.265 1.56.899 2.451 1.198 1.687 3.331 3.03 6.341 3.993.63.607 1.125 1.285 1.447 2.01 1.002 2.261.289 4.754-.285 6.758-.193.67-.375 1.305-.481 1.879-.14.763-.166 1.652-.08 2.641.096 1.127.322 2.19.491 2.882.166.683.315 1.167.358 1.299l-1.347 12.134h-4.062c.05-.53.22-.948.501-1.244.472-.49 1.149-.513 1.155-.513a.664.664 0 0 0 .64-.523c.027-.131.595-3.28-.378-8.558a14.76 14.76 0 0 0-.882-2.956c-.644-1.584-1.49-3.08-2.386-4.665-1.374-2.434-2.798-4.952-3.601-8.036m-9.207 12.48l4.742-3.528c.13.131.26.258.388.38a15.128 15.128 0 0 0 3.405 2.467l-6.076 2.166a.646.646 0 0 0-.408.425c-.222.761.355 3.577.614 4.753a.642.642 0 0 0 .438.473c.677.214 2.197 2.038 2.233 2.64-.438.112-2.884.623-3.906-1.345-1.005-1.94-1.689-5.685-1.938-7.206a1.26 1.26 0 0 1 .508-1.225M50.322 33.413l-.01-.264c-.062-1.21-.31-2.324-.569-3.503-.359-1.616-.724-3.288-.676-5.402.07-2.694.538-4.624 1.631-6.313a26.745 26.745 0 0 1-5.266 1.663.61.61 0 0 1-.065.028c-3.094 1.107-5.356 5.332-7.353 9.06-.269.502-.538 1-.803 1.486-.152.276-.287.524-.421.759 2.39-.166 4.321-.013 6.014.472 1.576.449 2.835 1.148 4.166 1.888.994.551 2.018 1.12 3.311 1.679.041-.526.059-1.046.041-1.553m9.688-9.983l-.455-.473c-2.545-2.694-3.34-5.492-2.416-8.612-.21.17-.427.34-.65.507-1.024.753-1.749 1.324-2.352 1.853-2.21 1.935-3.43 3.808-3.535 8.159-.047 1.997.302 3.616.638 5.182.267 1.236.518 2.403.586 3.723l.01.279c.027.848-.02 1.723-.139 2.603-.319 2.341-1.067 4.125-1.376 4.784a.739.739 0 0 0-.064.415l1.043 7.87c.01.065.033.13.074.186l1.02 1.428a.544.544 0 0 0 .44.219h3.132c-.01-.293-.078-.669-.319-.984-.284-.37-.776-.602-1.464-.69-.305-.039-.539-.258-.58-.536-.023-.166-.572-4.09-.4-5.573.13-1.047.533-3.253 1.841-6.277.43-.996.925-2 1.474-2.985a36.293 36.293 0 0 1 2.016-3.216c2.047-2.921 2.569-5.71 1.474-7.86m-24.32 8.978c-.66 1.088-1.245 1.904-1.818 2.541a13.6 13.6 0 0 1-1.635 1.539c.321 1.2.878 4.658-2.624 6.666l4.2 7.67c.093.17.283.277.494.277h3.72c-.035-.354-.153-.814-.488-1.156-.342-.352-.892-.53-1.628-.53a.694.694 0 0 1-.643-.396l-2.167-4.994a.586.586 0 0 1 .238-.73c.056-.037 5.638-3.694 7.231-5.749 1.372-1.77 1.2-4.05 1.075-4.896-1.628-.402-3.536-.48-5.955-.241M25.146 26.81a44.68 44.68 0 0 1 1.383-2.356 9.278 9.278 0 0 1 1.288-1.59c-.801-.03-2.308.255-4.866 1.856-1.383.902-3.793 2.97-5.389 4.338l-.691.594c-2.051 1.753-4.965 3.818-9.334 4.217-.373.033-.736.05-1.092.05-.681 0-1.335-.064-1.958-.186.955 1.003 2.478 1.942 4.998 1.614 1.706-.218 3.548-.92 5.331-2.03a21.15 21.15 0 0 0 3.308-2.573.747.747 0 0 1 .969-.025.564.564 0 0 1 .027.862 23.494 23.494 0 0 1-1.897 1.608c1.938-.377 5.088-1.741 7.923-6.38"/><path d="M61.302 34.943c.302-.297.57-.623.801-.973.724-1.082.989-2.224 1.086-2.992.19-1.518.003-2.785-.586-3.99a8.744 8.744 0 0 0-.895-1.436c.07 1.992-.677 4.2-2.215 6.447a34.162 34.162 0 0 0-2.962 5.208 6.68 6.68 0 0 0 2.024-.53c.442-.191.921-.441 1.508-.786a6.301 6.301 0 0 0 1.24-.948M7.162 32.68c4.035-.36 6.767-2.267 8.7-3.887l.701-.592c.158-.13.318-.267.486-.408C11.634 29.807 4.336 31.125 0 29.711a7.17 7.17 0 0 0 2.676 2.263c.049.017.098.04.143.067 1.248.568 2.704.784 4.343.64m26.256 1.531c.587-.649 1.198-1.516 1.92-2.732.274-.465.573-.987.927-1.644.267-.488.535-.987.806-1.49 1.642-3.07 3.326-6.216 5.552-8.174-.834.076-1.667.137-2.473.196-3.979.289-7.736.563-10.315 2.59a7.923 7.923 0 0 0-1.813 2.018c-.49.77-.948 1.583-1.371 2.348-.167.295-.33.593-.493.891-2.497 4.56-5.077 9.272-11.559 9.772l-4.236 10.006a.597.597 0 0 0 .056.554l1.461 2.254a.702.702 0 0 0 .587.302h3.365c-.042-.37-.16-.849-.5-1.19-.299-.298-.73-.445-1.32-.451a.71.71 0 0 1-.61-.34l-.22-.385a1.778 1.778 0 0 1-.062-1.664c.951-1.982 2.611-5.396 3.042-5.999.694-.965 2-1.418 5.59-1.942l.243-.036c2.899-.423 6.5-.95 9.555-3.204a.696.696 0 0 1 .163-.12c.608-.46 1.184-.982 1.705-1.56m27.404 2.504c-.48.266-.898.48-1.292.66-.11 2.054-.546 3.576-.734 4.149a.518.518 0 0 0-.014.234l1.376 7.966a.293.293 0 0 0 .05.113l1.143 1.54a.446.446 0 0 0 .358.174h3.346c-.01-.296-.081-.676-.333-.994-.295-.374-.813-.608-1.533-.697-.298-.037-.54-.237-.6-.498-.039-.171-.94-4.212-.6-6.763.26-1.976 1.3-5.223 2.183-7.634-.625.291-1.27.545-1.938.758-.418.367-.89.702-1.412.992m7.805-30.45a.717.717 0 0 1-.511.204.727.727 0 0 1-.463-.161.58.58 0 0 1-.048-.879c.272-.27.428-.451.514-.566a.507.507 0 0 1-.024-.125c-.031-.341.252-.64.632-.668.324-.024.638.135.783.396.273.5-.117 1.038-.883 1.799zm5.965-.865a.746.746 0 0 1-.977-.018.58.58 0 0 1 .02-.88c.01-.007 1.012-.886 1.492-1.952.09-.202.155-.398.197-.58.058-.277-.246-1.138-.636-1.971-1.401 1.06-4.194 3.084-5.292 3.291-.169.033-.38.055-.621.082-.694.076-1.74.191-2.372.616-.555.374-1.087.835-1.632 1.314l-.094.081c-.804.704-1.501 1.311-2.226 1.566-2.317.816-3.546 1.7-4.125 2.22.472.246.932.415 1.37.506 1.885.391 2.845-.84 2.882-.894l.004-.001a.621.621 0 0 1 .083-.092l.003-.003a.747.747 0 0 1 .973.001c.018.014.025.03.039.045a.829.829 0 0 1 .065.082c.014.023.028.045.038.07.021.04.038.084.045.128.007.023.007.045.01.068a.497.497 0 0 1 0 .102l-.006.06a.558.558 0 0 1-.052.142c-.004.008-.004.017-.01.025-.211.46-.35.98-.411 1.545-.207 1.883.504 4.115 1.77 5.556a31.02 31.02 0 0 1 1.91 2.404c.006-1.361-.246-2.594-.249-2.611-.059-.28.1-.559.387-.679a.742.742 0 0 1 .825.169c.127.14 2.844 3.167 3.217 7.517.632-1.658.684-3.442.735-5.297.014-.492.028-.99.052-1.49l.024-.437c.152-3.193.263-5.5 1.126-6.977.5-.86 1.032-1.582 1.501-2.219.553-.755 1.032-1.408 1.136-1.881.062-.27.02-.578-.055-.87A8.524 8.524 0 0 1 74.592 5.4z"/><path d="M68.318 20.943c-.066.251-.297.44-.583.472-.283.032-.565-.096-.7-.324-.01-.018-1.07-1.806-2.849-3.82-1.5-1.694-2.307-4.21-2.062-6.41l.02-.124c-.44.17-.965.289-1.572.289-.176 0-.355-.012-.541-.033a18.01 18.01 0 0 1-.207.262c-2.739 4.144-2.563 7.442.576 10.69l.541.555c1.121 1.156 2.28 2.352 2.997 3.773.717 1.398.945 2.855.717 4.583a7.975 7.975 0 0 1-.882 2.743 13.97 13.97 0 0 0 1.072-.597c2.118-1.313 3.473-2.978 4.039-4.098.51-1.022.851-2.077 1.013-3.133a7.86 7.86 0 0 0 .104-1.038c.117-2.41-.662-4.5-1.449-5.962.004.714-.051 1.479-.234 2.172M187.577 40.028c-.06.2-.154.369-.284.509a.582.582 0 0 1-.434.209c-.199 0-.343-.06-.433-.18a1.973 1.973 0 0 1-.254-.508l-4.816-17.855-4.366 17.795c-.06.2-.145.364-.254.494-.11.13-.275.204-.494.224a.503.503 0 0 1-.448-.164c-.12-.13-.21-.304-.27-.524l-4.875-16.27c-.16-.558-.319-1.101-.478-1.63-.16-.528-.36-.932-.598-1.211a.978.978 0 0 0-.494-.314c-.19-.05-.453-.105-.792-.165a.317.317 0 0 1-.225-.164.444.444 0 0 1-.06-.27.6.6 0 0 1 .09-.253c.05-.08.125-.12.225-.12.398.02.837.03 1.315.03h1.795c.359 0 .743-.005 1.151-.015l1.227-.03 1.121-.03c.34-.01.618-.015.838-.015.1 0 .174.04.224.12a.47.47 0 0 1 .075.254.55.55 0 0 1-.075.27.242.242 0 0 1-.224.134c-.4.04-.748.09-1.047.15-.3.06-.558.169-.778.328a.829.829 0 0 0-.314.464c-.05.19-.075.389-.075.598 0 .21.02.414.06.613.04.2.08.369.12.509l3.5 11.813 3.648-14.834c.06-.08.234-.155.523-.224a10.309 10.309 0 0 1 1.944-.27c.31-.01.514-.005.613.015l4.128 15.612 3.32-11.993c.318-1.096.249-1.874-.21-2.333-.299-.299-.827-.448-1.585-.448-.1 0-.17-.04-.21-.12a.483.483 0 0 1-.044-.27.512.512 0 0 1 .09-.253c.05-.07.124-.105.224-.105a46.73 46.73 0 0 0 4.695 0c.08 0 .15.035.21.105.06.07.09.15.09.239a.47.47 0 0 1-.075.254.247.247 0 0 1-.225.12c-.219 0-.423.05-.613.15-.19.1-.334.229-.433.388-.16.22-.334.583-.524 1.092a21.51 21.51 0 0 0-.523 1.6l-4.696 16.48zm22.042-6.968a9.07 9.07 0 0 1-.508 3.05 7.618 7.618 0 0 1-1.436 2.498 6.913 6.913 0 0 1-2.228 1.69c-.867.418-1.82.627-2.856.627-1.057 0-2.019-.209-2.886-.628a6.749 6.749 0 0 1-2.213-1.69 7.767 7.767 0 0 1-1.42-2.497 9.07 9.07 0 0 1-.51-3.05c0-1.077.17-2.094.51-3.051a7.767 7.767 0 0 1 1.42-2.497 6.749 6.749 0 0 1 2.213-1.69c.867-.419 1.83-.628 2.886-.628 1.037 0 1.989.21 2.856.628.868.419 1.61.982 2.228 1.69a7.618 7.618 0 0 1 1.436 2.497 9.07 9.07 0 0 1 .508 3.05zm-3.648.03c0-.898-.065-1.775-.195-2.632a10.486 10.486 0 0 0-.598-2.303c-.27-.678-.618-1.227-1.047-1.645a2.126 2.126 0 0 0-1.54-.628c-.618 0-1.141.21-1.57.628-.429.418-.778.967-1.047 1.645a9.97 9.97 0 0 0-.583 2.303c-.12.857-.18 1.734-.18 2.632 0 .897.06 1.774.18 2.631.12.858.314 1.62.583 2.288.27.668.618 1.212 1.047 1.63.429.42.952.628 1.57.628.598 0 1.112-.209 1.54-.628.429-.418.778-.962 1.047-1.63.27-.668.469-1.43.598-2.288.13-.857.195-1.734.195-2.631zm10.707-14.326v18.752c0 .458.04.827.12 1.107.08.279.199.498.358.657.18.18.419.29.718.33.3.04.678.1 1.137.179.1.02.174.07.224.15.05.08.07.164.06.254a.514.514 0 0 1-.105.254c-.06.08-.14.12-.24.12-.219 0-.493-.005-.822-.015a320.719 320.719 0 0 0-2.183-.06c-.389-.01-.743-.015-1.062-.015-.638 0-1.296.01-1.974.03-.678.02-1.226.04-1.645.06-.1 0-.18-.04-.239-.12a.514.514 0 0 1-.105-.254.387.387 0 0 1 .06-.255c.05-.08.125-.13.225-.15a31.64 31.64 0 0 1 1.136-.179c.3-.04.538-.15.718-.329.16-.159.279-.378.359-.657.08-.28.12-.649.12-1.107v-16.39c0-.558-.17-.992-.51-1.3-.338-.31-.966-.484-1.883-.524-.12 0-.205-.045-.254-.135a.475.475 0 0 1-.06-.284.384.384 0 0 1 .404-.359c.199.02.483.03.852.03s.758-.01 1.166-.03c.409-.02.798-.045 1.167-.074.369-.03.643-.065.822-.105.32-.08.638-.11.957-.09.32.02.479.19.479.509zm8.703 18.782c0 .458.04.827.12 1.106.08.28.199.499.358.658.16.18.394.29.703.33.31.04.693.1 1.152.179.1.02.174.07.224.15.05.08.07.164.06.254a.514.514 0 0 1-.105.254c-.06.08-.14.12-.24.12-.418-.02-.941-.04-1.57-.06-.627-.02-1.26-.03-1.898-.03-.32 0-.663.005-1.032.015a1455.813 1455.813 0 0 0-2.109.06c-.319.01-.578.014-.777.014-.1 0-.18-.04-.24-.12a.514.514 0 0 1-.104-.253.387.387 0 0 1 .06-.255c.05-.08.124-.13.224-.15.458-.079.792-.139 1.002-.179.21-.04.394-.15.553-.329.16-.18.28-.403.359-.673.08-.269.12-.633.12-1.091V27.018c0-.22-.055-.364-.165-.433-.11-.07-.284-.105-.523-.105h-.838c-.12 0-.2-.04-.239-.12a.32.32 0 0 1-.015-.254.654.654 0 0 1 .165-.254.37.37 0 0 1 .269-.12h.15c.418 0 .707-.154.867-.463.16-.31.269-.723.329-1.242.08-.618.164-1.26.254-1.929.09-.668.364-1.35.822-2.048a4.318 4.318 0 0 1 2.049-1.66c.867-.35 1.87-.464 3.006-.344.698.08 1.316.254 1.854.523.538.27.917.643 1.137 1.122.159.339.169.628.03.867-.14.24-.34.409-.599.509a1.35 1.35 0 0 1-.822.044c-.29-.07-.504-.254-.643-.553-.34-.758-.798-1.261-1.376-1.51-.578-.25-1.107-.205-1.585.134-.34.24-.583.603-.733 1.092a7.043 7.043 0 0 0-.284 1.555c-.04.548-.05 1.097-.03 1.645.02.548.03 1.002.03 1.36.02.24.05.445.09.614.04.17.229.254.568.254h1.585c.12 0 .2.04.24.12.04.08.05.164.03.254a.487.487 0 0 1-.165.254.458.458 0 0 1-.314.12l-1.346.03c-.439 0-.658.22-.658.658v10.408zm25.631-4.785a22.09 22.09 0 0 1-.224 1.72c-.09.508-.215.981-.374 1.42.598.498 1.191.937 1.78 1.316.588.379 1.15.693 1.69.942a7.39 7.39 0 0 0 1.465.523c.438.1.807.1 1.106 0 .34-.1.598-.244.778-.433.18-.19.319-.374.419-.554.1-.18.219-.229.359-.15.14.08.179.2.12.36-.04.14-.14.369-.3.688-.16.319-.379.643-.658.972a4.266 4.266 0 0 1-1.062.882c-.428.26-.942.389-1.54.389-.897 0-1.8-.23-2.707-.688a16.682 16.682 0 0 1-2.706-1.735 6.588 6.588 0 0 1-1.78 1.585 7.662 7.662 0 0 1-2.228.912 9.12 9.12 0 0 1-2.452.24 8.277 8.277 0 0 1-2.453-.464 6.579 6.579 0 0 1-2.138-1.196 6.599 6.599 0 0 1-1.585-1.93 7.06 7.06 0 0 1-.793-2.497c-.12-.917-.04-1.894.24-2.93a5.477 5.477 0 0 1 .807-1.78 6.943 6.943 0 0 1 2.467-2.168 9.57 9.57 0 0 1 1.152-.509c-.479-1.096-.758-2.168-.838-3.215a4.824 4.824 0 0 1 .688-2.916 3.792 3.792 0 0 1 1.615-1.48 5.68 5.68 0 0 1 2.109-.569 5.107 5.107 0 0 1 2.093.284c.668.24 1.192.609 1.57 1.107.2.28.37.593.509.942.14.35.23.708.27 1.077.039.369.029.723-.03 1.062a2 2 0 0 1-.36.867c-.279.379-.608.603-.987.673-.379.07-.717.025-1.017-.135-.299-.16-.503-.423-.613-.792-.11-.37-.035-.793.225-1.271.14-.26.249-.564.329-.913.08-.349.094-.687.044-1.016a1.638 1.638 0 0 0-.388-.853c-.21-.24-.524-.389-.942-.448-.28-.02-.559.005-.838.074-.279.07-.533.21-.763.419-.229.21-.423.494-.583.852-.16.36-.239.808-.239 1.346-.04 1.436.384 2.996 1.271 4.68.887 1.686 2.148 3.465 3.783 5.34a27.467 27.467 0 0 0 2.453 2.542c.1-.439.18-.883.24-1.331.059-.449.109-.873.149-1.271.06-.997.05-1.79-.03-2.378-.08-.588-.33-1.032-.748-1.331-.339-.24-.663-.379-.972-.419-.309-.04-.663-.09-1.062-.15a.383.383 0 0 1-.239-.149.437.437 0 0 1-.09-.269c0-.1.03-.19.09-.27a.287.287 0 0 1 .24-.119c.458.02.956.04 1.495.06.538.02 1.126.03 1.764.03.718 0 1.346-.02 1.885-.06.538-.04 1.016-.07 1.435-.09.1 0 .175.04.224.12.05.08.075.175.075.284a.46.46 0 0 1-.09.284c-.06.08-.149.12-.269.12-.398 0-.792.05-1.181.15-.389.1-.703.299-.942.598-.14.18-.254.418-.344.717-.09.3-.155.624-.194.972-.04.35-.075.693-.105 1.032-.03.34-.055.638-.075.898zm-7.507-.18a30.776 30.776 0 0 1-1.495-2.004 17.955 17.955 0 0 1-1.256-2.123c-.22.22-.469.553-.748 1.002-.28.448-.518 1.022-.718 1.72a8.875 8.875 0 0 0-.284 2.975 7.848 7.848 0 0 0 .733 2.886 5.615 5.615 0 0 0 1.81 2.169c.787.568 1.769.852 2.945.852.897 0 1.68-.214 2.348-.643a6.593 6.593 0 0 0 1.69-1.54 27.319 27.319 0 0 1-2.782-2.692 80.077 80.077 0 0 1-2.243-2.602zm24.704 4.935c0 .458.04.827.12 1.107.08.279.2.498.359.657.18.18.458.29.837.33.379.04.798.1 1.256.179.1.02.175.07.225.15.05.08.07.164.06.254a.514.514 0 0 1-.105.254c-.06.08-.14.12-.24.12-.219 0-.508-.005-.867-.015a341.327 341.327 0 0 0-2.393-.06 47.14 47.14 0 0 0-1.106-.015 65.6 65.6 0 0 0-1.96.03c-.667.02-1.21.04-1.63.06a.282.282 0 0 1-.238-.12.514.514 0 0 1-.105-.254.387.387 0 0 1 .06-.255c.05-.08.124-.13.224-.15.24-.039.439-.069.598-.089.16-.02.31-.045.449-.075.14-.03.264-.07.374-.12.11-.05.234-.124.374-.224.179-.159.304-.378.373-.657.07-.28.105-.649.105-1.107V22.622c0-.917-.16-1.506-.478-1.765-.24-.2-.484-.314-.733-.344a22.77 22.77 0 0 1-1.062-.164.327.327 0 0 1-.224-.15.387.387 0 0 1-.06-.254.514.514 0 0 1 .105-.254c.06-.08.14-.12.239-.12.2 0 .458.005.778.015a375.113 375.113 0 0 0 2.078.06c.369.01.713.015 1.032.015h9.81c.12 0 .244-.01.374-.03a.69.69 0 0 0 .314-.12c.18-.12.373-.114.583.015.21.13.294.334.254.613l-.359 4.128c0 .1-.04.17-.12.209a.55.55 0 0 1-.523-.015c-.09-.05-.144-.135-.164-.254-.04-.18-.1-.419-.18-.718a56.101 56.101 0 0 0-.508-1.765 2.73 2.73 0 0 0-.21-.538c-.199-.339-.403-.543-.613-.613a1.722 1.722 0 0 0-.523-.105h-5.623c-.419 0-.683.135-.792.404-.11.27-.165.563-.165.882v8.016h3.709c.698 0 1.211-.035 1.54-.105.329-.07.563-.2.703-.389.14-.19.224-.448.254-.777.03-.33.085-.763.165-1.301.02-.1.07-.175.15-.225a.383.383 0 0 1 .253-.06c.09.01.175.045.255.105.08.06.12.14.12.24-.02.418-.05.832-.09 1.24-.04.41-.07.933-.09 1.57-.02.719-.015 1.322.015 1.81.03.489.054.942.074 1.361 0 .1-.04.18-.12.24a.66.66 0 0 1-.253.119.373.373 0 0 1-.27-.045c-.09-.05-.134-.134-.134-.254-.04-.618-.1-1.102-.18-1.45-.08-.35-.209-.609-.388-.778-.18-.17-.43-.27-.748-.3a14.04 14.04 0 0 0-1.256-.044h-3.709v6.789zm25.213-4.456a9.07 9.07 0 0 1-.509 3.05 7.618 7.618 0 0 1-1.435 2.498 6.913 6.913 0 0 1-2.229 1.69c-.867.418-1.819.627-2.856.627-1.057 0-2.019-.209-2.886-.628a6.749 6.749 0 0 1-2.213-1.69 7.767 7.767 0 0 1-1.42-2.497 9.07 9.07 0 0 1-.51-3.05c0-1.077.17-2.094.51-3.051a7.767 7.767 0 0 1 1.42-2.497 6.749 6.749 0 0 1 2.213-1.69c.867-.419 1.83-.628 2.886-.628 1.037 0 1.99.21 2.856.628.868.419 1.61.982 2.229 1.69a7.618 7.618 0 0 1 1.435 2.497 9.07 9.07 0 0 1 .509 3.05zm-3.65.03c0-.898-.064-1.775-.194-2.632a10.486 10.486 0 0 0-.598-2.303c-.269-.678-.618-1.227-1.047-1.645a2.126 2.126 0 0 0-1.54-.628c-.618 0-1.141.21-1.57.628-.429.418-.778.967-1.047 1.645a9.97 9.97 0 0 0-.583 2.303c-.12.857-.18 1.734-.18 2.632 0 .897.06 1.774.18 2.631.12.858.314 1.62.583 2.288.27.668.618 1.212 1.047 1.63.429.42.952.628 1.57.628.598 0 1.112-.209 1.54-.628.43-.418.778-.962 1.047-1.63.27-.668.469-1.43.598-2.288.13-.857.195-1.734.195-2.631zm15.254-4.846c.24-.319.414-.638.523-.957.11-.319.115-.558.015-.717-.08-.14-.164-.215-.254-.225a22.71 22.71 0 0 1-.553-.074.228.228 0 0 1-.165-.135.602.602 0 0 1-.045-.24c0-.09.02-.169.06-.239.04-.07.09-.104.15-.104.299.02.623.035.972.045a43.004 43.004 0 0 0 2.303 0c.229-.01.493-.025.792-.045.06 0 .115.04.165.12.05.08.074.164.074.254s-.015.174-.044.254c-.03.08-.085.12-.165.12-.22 0-.414.024-.583.074-.17.05-.384.155-.643.314-.34.22-.648.509-.927.868l-.748.957-2.692 3.559L307 38.054c.16.26.334.499.523.718.19.22.394.419.613.598.22.18.4.3.539.36.14.059.349.099.628.119.08 0 .14.04.18.12.039.08.054.164.044.254a.613.613 0 0 1-.075.239c-.04.07-.09.105-.15.105-.318-.02-.792-.035-1.42-.045a108.74 108.74 0 0 0-1.72-.015h-.867c-.339 0-.678.005-1.017.015l-.972.03c-.309.01-.533.015-.673.015-.06 0-.114-.035-.164-.105a.5.5 0 0 1-.09-.24c-.01-.09 0-.169.03-.239a.228.228 0 0 1 .164-.134l.748-.105c.22-.03.389-.154.509-.374.1-.16.114-.364.044-.613a2.57 2.57 0 0 0-.344-.733l-2.362-3.828-2.991 3.769c-.26.338-.429.648-.509.927-.08.279-.07.488.03.628.1.16.225.254.374.284.15.03.344.045.583.045.08 0 .135.04.165.12.03.08.045.164.045.254s-.02.17-.06.239c-.04.07-.09.105-.15.105a25.62 25.62 0 0 0-.972-.045 42.76 42.76 0 0 0-1.21-.015h-.644c-.17 0-.324.005-.463.015l-.39.03a4.7 4.7 0 0 1-.388.015c-.06 0-.115-.04-.165-.12a.472.472 0 0 1-.074-.254.72.72 0 0 1 .045-.255c.03-.08.084-.12.164-.12.28-.02.489-.059.628-.119.14-.06.31-.16.509-.299.219-.16.458-.389.717-.688.26-.299.509-.598.748-.897l3.47-4.456-3.17-5.144c-.38-.599-.739-1.057-1.078-1.376a2.8 2.8 0 0 0-.523-.344 1.847 1.847 0 0 0-.733-.195c-.08 0-.14-.04-.18-.12a.56.56 0 0 1 0-.508c.04-.08.09-.12.15-.12.14 0 .334.006.584.016l.792.03c.28.01.568.015.868.015h1.69c.328 0 .667-.005 1.016-.015l.957-.03c.29-.01.514-.015.673-.015.06 0 .115.04.165.12a.6.6 0 0 1 .09.254.54.54 0 0 1-.03.254c-.03.08-.085.12-.165.12l-.538.06c-.18.02-.35.089-.509.209-.2.16-.279.388-.24.687.04.3.11.519.21.658l2.034 3.29 2.333-2.96z"/></g></svg>