<svg width="57" height="59" xmlns="http://www.w3.org/2000/svg"><g fill="none" fill-rule="evenodd"><path d="M18.513 14.827c-2.088-1.49-3.394-3.588-3.394-5.917 0-4.523 4.905-8.19 10.955-8.19S37.03 4.387 37.03 8.91s-4.905 8.19-10.956 8.19c-1.182 0-2.317-.144-3.384-.403a8.327 8.327 0 0 1-2.398 1.866 8.63 8.63 0 0 1-2.739.877c.334-.542.79-1.442.964-2.632a6.776 6.776 0 0 0-.004-1.98" fill="#DEB93D"/><path d="M46.08 56.79a.811.811 0 0 0 0 1.62.811.811 0 0 0 0-1.62M43.92 56.88H7.2a.72.72 0 0 0 0 1.44h36.72a.72.72 0 0 0 0-1.44M3.507 23.324c.11-.283.403-1.034 1.148-1.63 1.09-.875 2.391-.824 2.819-.808.732.029 1.155.231 1.691.488.56.267 1.193.57 2.204.675a7.026 7.026 0 0 0 2.18-.12c.05.357.045.82-.155 1.297-.16.38-.4.666-.658.882-.017.008-.034.014-.05.024a6.157 6.157 0 0 1-3.125.865h-.043a5.973 5.973 0 0 1-1.22-.134 2.093 2.093 0 0 0-2.28 1.066c-.55-.49-1.226-.728-1.876-.596-.342.069-.615.23-.827.41-.126-.65-.16-1.516.192-2.419zm-.974 4.206c.034.681.351 1.355.79 1.86v4.007a.72.72 0 0 0 1.44 0v-3.082c.306.091.631.142.966.144h.003a.72.72 0 0 0 .003-1.44c-.257-.001-.748-.053-1.145-.391-.448-.383-.776-1.092-.549-1.54.04-.076.195-.305.386-.344.303-.06.906.306 1.186 1.134a.72.72 0 1 0 1.385-.072l.237-1.051a.632.632 0 0 1 .76-.484 7.477 7.477 0 0 0 1.512.166 7.477 7.477 0 0 0 2.062-.284.72.72 0 0 0 .117-.008c.07-.012.316-.06.643-.178.246 1.419.33 2.86.246 4.292-.057.96-.179 1.463-.348 2.16l-.107.448a.623.623 0 0 1-.406.461c-.416.131-.84.182-1.262.15-1.373-.104-2.238-1.054-2.47-1.342a.721.721 0 0 0-1.122.902c.33.41 1.135 1.257 2.4 1.662v.804a.72.72 0 0 0 1.44 0v-.577a4.81 4.81 0 0 0 1.448-.226 2.069 2.069 0 0 0 1.375-1.508c.035-.153.07-.297.104-.435.172-.711.32-1.326.385-2.414.1-1.714-.022-3.436-.359-5.127a3.712 3.712 0 0 0 1.068-1.433c.558-1.328.19-2.54.005-3a.72.72 0 0 0-.884-.42 5.753 5.753 0 0 1-2.324.253c-.763-.08-1.234-.304-1.732-.543-.575-.275-1.228-.587-2.256-.627-1.505-.057-2.775.32-3.777 1.123-1.045.838-1.453 1.886-1.587 2.231-.755 1.937-.193 3.719.084 4.395.06.144.16.257.283.334zM44.365 21.342c2.114-1.073 5.238-1.303 7.116.333a4.364 4.364 0 0 1 1.17 1.649c.352.904.318 1.77.192 2.419a1.865 1.865 0 0 0-.827-.41c-.65-.132-1.326.105-1.876.596a2.093 2.093 0 0 0-2.28-1.066 6.012 6.012 0 0 1-4.18-.615l-.012-.016a3.66 3.66 0 0 1-.903-1.773 7.091 7.091 0 0 1 1.6-1.117zm-3.082.933c.05.481.168.951.349 1.396.197.483.468.927.8 1.328.022.057.049.112.084.162a20.2 20.2 0 0 0-.37 5.183c.064 1.088.213 1.703.385 2.415l.104.434a2.07 2.07 0 0 0 1.375 1.508c.476.15.961.226 1.448.226v.577a.72.72 0 0 0 1.44 0v-.806c1.317-.429 2.141-1.339 2.4-1.66a.72.72 0 1 0-1.123-.902c-.232.288-1.094 1.238-2.469 1.342a3.343 3.343 0 0 1-1.262-.15.623.623 0 0 1-.407-.461 44.469 44.469 0 0 0-.106-.447c-.169-.697-.291-1.201-.348-2.16a18.765 18.765 0 0 1 .255-4.352 7.484 7.484 0 0 0 4.324.363.634.634 0 0 1 .76.483l.238 1.052a.72.72 0 0 0 1.384.072c.28-.827.88-1.196 1.187-1.134.192.039.346.268.386.345.227.447-.1 1.156-.55 1.539-.396.338-.887.39-1.144.39a.72.72 0 0 0 .003 1.44h.003c.334 0 .66-.052.966-.143v3.082a.72.72 0 0 0 1.44 0v-4.006c.439-.506.756-1.18.79-1.86a.714.714 0 0 0 .282-.334c.277-.676.84-2.457.086-4.396a5.773 5.773 0 0 0-1.566-2.212c-2.36-2.054-6.17-1.822-8.714-.53a8.56 8.56 0 0 0-2.228 1.636.72.72 0 0 0-.202.58z" fill="#4A4A4A"/><path d="M54.532 54h-4.56a6.722 6.722 0 0 0 2.587-5.296v-5.558a.72.72 0 1 0-1.44 0v5.558A5.302 5.302 0 0 1 45.824 54h-5.505v-3.6h3.654c2.03 0 3.546-2.106 3.546-3.989v-4.485a.72.72 0 1 0-1.44 0v4.485c0 1.156-.94 2.549-2.106 2.549h-.8c.268-1.57.626-3.124 1.085-4.648a39.134 39.134 0 0 1 2.487-6.27 13.31 13.31 0 0 0 3.032-.555 13.287 13.287 0 0 0 2.271-.936 36.667 36.667 0 0 1 2.34 8.834c.385 2.851.436 5.746.144 8.615zM38.16 54h.72v-3.6h-.72V54zm-1.44 0h-2.422a.768.768 0 0 1-.44-.14c-.417-.303-1.09-.789-1.67-1.214a.634.634 0 0 1-.13-.9l.972-1.278a.653.653 0 0 1 .145-.13.714.714 0 0 0 .692.534.72.72 0 0 0 .565-.273l.169-.213 2.12.352V54zm-10.303-.27l-4.939.27-2.038-.119v-3.06l1.257-.342c.108-.029.212-.05.32-.072l1.516-.263a.38.38 0 0 0 .086-.021.492.492 0 0 1 .205-.015l-.367.656a1.205 1.205 0 0 0 .807 1.767l3.16.663a.29.29 0 0 1 .23.284.252.252 0 0 1-.237.252zM17.28 54h.663v-3.6h-.663V54zm-1.44 0h-5.504a5.302 5.302 0 0 1-5.296-5.296v-5.558a.72.72 0 1 0-1.44 0v5.558A6.722 6.722 0 0 0 6.186 54h-4.56a36.684 36.684 0 0 1 .145-8.615 36.667 36.667 0 0 1 2.34-8.834 13.169 13.169 0 0 0 5.299 1.49 39.15 39.15 0 0 1 2.491 6.271 39.592 39.592 0 0 1 1.083 4.648h-.802c-1.163 0-2.103-1.393-2.103-2.549v-4.485a.72.72 0 1 0-1.44 0v4.485c0 1.883 1.516 3.989 3.543 3.989h3.657V54zm39.978-8.806a38.335 38.335 0 0 0-2.754-9.954.716.716 0 0 0-.442-.4.719.719 0 0 0-.594.07c-.836.507-1.736.914-2.672 1.198-1 .31-2.037.482-3.085.515a.723.723 0 0 0-.615.392 40.478 40.478 0 0 0-2.776 6.883 39.977 39.977 0 0 0-1.164 5.062H37.44a.715.715 0 0 0-.608.338l-1.208-.2 1.255-1.58a.72.72 0 0 0-1.128-.896l-1.752 2.207-.119-.02a2.099 2.099 0 0 0-1.994.788l-.972 1.278a2.05 2.05 0 0 0-.404 1.559c.029.2.094.388.177.567l-.794.999h-1.888c.054-.166.09-.34.09-.522 0-.817-.58-1.53-1.375-1.696l-2.848-.597.37-.666a1.126 1.126 0 0 0-.276-1.43 1.94 1.94 0 0 0-1.718-.356l-1.48.256a6.165 6.165 0 0 0-.446.1l-.96.263a.72.72 0 0 0-.642-.392h-4.28a40.533 40.533 0 0 0-1.16-5.062 40.655 40.655 0 0 0-2.775-6.883.723.723 0 0 0-.615-.392 11.653 11.653 0 0 1-3.086-.515 11.81 11.81 0 0 1-2.674-1.199.709.709 0 0 0-.59-.068.707.707 0 0 0-.444.4 38.335 38.335 0 0 0-2.754 9.953 38.34 38.34 0 0 0-.075 9.612.72.72 0 0 0 .713.634h54.198a.72.72 0 0 0 .716-.634 38.34 38.34 0 0 0-.076-9.612zM26.075 1.44c5.643 0 10.235 3.351 10.235 7.47s-4.592 7.47-10.235 7.47c-1.089 0-2.17-.129-3.215-.382a.719.719 0 0 0-.71.222 7.57 7.57 0 0 1-2.19 1.704 7.859 7.859 0 0 1-1.103.469 7.513 7.513 0 0 0 .368-3.67.719.719 0 0 0-.293-.481c-1.995-1.425-3.093-3.319-3.093-5.332 0-4.119 4.591-7.47 10.236-7.47zM41.55 9.425c0 1.742-.954 3.384-2.686 4.622a.71.71 0 0 0-.292.479 6.687 6.687 0 0 0-.003 1.951c.054.393.147.778.27 1.152-.27-.1-.533-.216-.789-.349a6.601 6.601 0 0 1-1.904-1.48.719.719 0 0 0-.536-.24.705.705 0 0 0-.173.017 11.7 11.7 0 0 1-2.123.315c2.699-1.633 4.435-4.155 4.435-6.982 0-2.183-1.036-4.184-2.75-5.734 3.774.757 6.55 3.268 6.55 6.249zm-23.714 5.799c.05.494.039.99-.032 1.48a6.18 6.18 0 0 1-.864 2.358.72.72 0 0 0 .715 1.09 9.288 9.288 0 0 0 2.968-.95 9.005 9.005 0 0 0 2.31-1.711 15.09 15.09 0 0 0 7.515-.322c.704.116 1.43.183 2.18.183.922 0 1.84-.094 2.737-.28a8.05 8.05 0 0 0 2.023 1.486c.824.428 1.71.713 2.639.846a.714.714 0 0 0 .702-.317.717.717 0 0 0 .01-.774 5.426 5.426 0 0 1-.748-2.041 5.343 5.343 0 0 1-.029-1.246c1.955-1.494 3.028-3.474 3.028-5.601 0-4.37-4.648-7.927-10.361-7.927l-.08.002C30.694.553 28.467 0 26.074 0c-6.438 0-11.676 3.997-11.676 8.91 0 2.4 1.218 4.631 3.438 6.314z" fill="#4A4A4A"/><path d="M21.976 10.315a1.087 1.087 0 0 0 0-2.172c-.6 0-1.087.487-1.087 1.086 0 .599.488 1.086 1.087 1.086M26.18 10.315a1.087 1.087 0 0 0 0-2.172 1.087 1.087 0 0 0 0 2.172M30.275 10.315a1.087 1.087 0 0 0 0-2.172 1.087 1.087 0 0 0 0 2.172" fill="#4A4A4A"/></g></svg>