<svg xmlns="http://www.w3.org/2000/svg" width="63" height="67" viewBox="0 0 63 67">
    <g fill="none" fill-rule="evenodd">
        <path fill="#CDCDCD" d="M52.343 37.617c-.358.184-.952.498-1.423 1.172-.745 1.067-.636 2.255-.585 2.636.381.2 1.215.568 2.3.502 1.536-.093 2.52-.99 2.846-1.297 1.308-1.228 1.508-2.787 1.549-3.222-.688-.216-2.77-.775-4.687.21M40.095 48.336h13.568v-1.62H40.338l-.243 1.62M8.95 41.425c.052-.381.16-1.57-.585-2.636-.47-.674-1.064-.988-1.422-1.172-1.917-.984-4-.425-4.687-.209.04.435.24 1.994 1.548 3.222.327.308 1.31 1.204 2.845 1.297a4.415 4.415 0 0 0 2.302-.502M18.63 48.352l-.226-1.555H4.455v1.62H18.64l-.009-.065M39.642 51.454c-.826-.567-1.896-1.012-3.394-1.012-2.511 0-3.831 1.255-4.795 2.179-.826.786-1.15 1.06-1.993 1.06-.842 0-1.166-.274-1.992-1.06-.964-.924-2.285-2.18-4.788-2.18-1.611 0-2.73.52-3.58 1.135l-.34-2.35h-4.787l2.43 14.58h4.48l-1.086-7.451c.332-.275.624-.55.89-.802.819-.794 1.151-1.061 1.993-1.061.843 0 1.167.267 1.993 1.061.964.915 2.276 2.179 4.787 2.179s3.831-1.264 4.795-2.179c.818-.794 1.15-1.061 1.993-1.061.842 0 1.166.267 1.993 1.061.21.21.445.43.712.648.413.356.9.705 1.49.98l.665-4.495c-.024-.017-.049-.04-.073-.065-.389-.373-.834-.794-1.393-1.167M43.943 41.856v2.479c0 .899-.73 1.62-1.62 1.62h-25.92a1.62 1.62 0 0 1-1.62-1.62v-2.48h29.16M25.519 31.588c-2.587-2.26-6.01-2.223-7.21-2.153a7.928 7.928 0 0 0 1.22 3.59c.393.61 1.583 2.395 3.95 3.138a7.13 7.13 0 0 0 3.799.11 6.89 6.89 0 0 0 .316-1.05c-.05-.403-.14-.82-.303-1.247-.475-1.238-1.282-1.96-1.772-2.388M31.092 37.295a4.706 4.706 0 0 0-1.231 2.133c.007.025.01.052.019.077h6.734a7.708 7.708 0 0 0 1.597-3.901 5.16 5.16 0 0 0-.07-.44s-4.044-.874-7.05 2.13M52.788 49.203l-2.025 13.6a2.022 2.022 0 0 1-.397.923h-3.79l2.073-13.835.154-1.053h3.953c.04.114.048.243.032.365"/>
        <path fill="#4A4A4A" d="M52.918 46.198v1.846c0 .17-.146.308-.316.308h-.274a.786.786 0 0 0-.342-.08H41.748l.227-1.556.113-.761h.235c.15 0 .292-.027.429-.065h9.85c.17 0 .316.137.316.308zm-3.75 16.353a.435.435 0 0 1-.43.365H39.61l.122-.859h2.989c.445 0 .81-.364.81-.81a.812.812 0 0 0-.81-.81h-2.746l.47-3.256.664-4.495.397-2.746h9.534L49.167 62.55zm-12.232 2.795H21.79c-.356 0-.672-.3-.777-.73a2.131 2.131 0 0 1-.024-.104l-.227-1.515-.964-6.642-.697-4.78-.227-1.562-.008-.04-.105-.746-.13-.875-.348-2.39v-.007h22.17l-.114.76-.234 1.556-.009.065v.016l-.234 1.588-.22 1.514-1.303 8.983-.243 1.62-.122.859-.235 1.596c0 .008 0 .016-.008.024-.08.47-.413.81-.794.81zM9.38 62.996a.436.436 0 0 1-.43-.347L7.079 50.013h10.151l.413 2.835.648 4.422.835 5.727H9.38zM5.2 48.118V46.28c0-.17.146-.316.317-.316h11.12l.35 2.39H6.131a.78.78 0 0 0-.342.08h-.273a.316.316 0 0 1-.316-.316zm11.203-7.022h25.92v3.207h-9.955c-.09 0-.175.02-.262.033H16.403v-3.24zm7.222-5.312c-1.418-.445-2.6-1.389-3.512-2.804-1.061-1.645-1.18-3.365-1.119-4.422h.054c1.677 0 4.067.343 5.936 1.975.412.36 1.089.964 1.505 1.981a8.407 8.407 0 0 0-.81-.72 8.61 8.61 0 0 0-2.682-1.396.81.81 0 1 0-.488 1.545 7 7 0 0 1 2.179 1.134 7.094 7.094 0 0 1 2 2.442c-.037.159-.077.311-.12.447a6.268 6.268 0 0 1-2.943-.182zm8.038.063c1.66-1.66 3.686-2.01 5.087-2.01.26 0 .494.009.68.025.106 1.078.09 3.556-1.854 5.614h-2.638c.01-.022.026-.039.035-.062a3.606 3.606 0 0 1 1.43-1.756.809.809 0 1 0-.867-1.367 5.189 5.189 0 0 0-2.077 2.547.802.802 0 0 0 .031.638h-.758c-.486-1.07-.146-2.552.931-3.63zM6.7 41.119c-.847-.052-1.634-.414-2.34-1.08-.701-.658-1.027-1.445-1.178-2.036 1.254-.261 2.446-.15 3.39.335.286.147.765.392 1.13.915.389.557.48 1.17.477 1.633-.386.148-.886.27-1.48.233zm46.014-2.78c.944-.485 2.139-.597 3.39-.336-.15.591-.476 1.379-1.176 2.037-.708.665-1.495 1.027-2.34 1.079a3.475 3.475 0 0 1-1.48-.232c-.002-.464.09-1.078.477-1.634.366-.524.843-.769 1.129-.915zm-2.979 3.638l.006-.01c.064.07.135.132.22.176a5.26 5.26 0 0 0 2.725.593c1.233-.075 2.36-.585 3.35-1.516 1.382-1.297 1.721-2.897 1.8-3.736a.81.81 0 0 0-.562-.848c-1.869-.588-3.805-.506-5.3.26-.054.028-.13.07-.199.108.38-1.906.344-3.647.212-4.9l-.996-1.847a.773.773 0 0 1-.689.461l-.008.009.073 1.409c.235 2.041.219 5.67-1.976 8.942a12.131 12.131 0 0 1-3.07 3.135c-.035.025-.054.06-.084.09h-1.293v-3.208c0-.891-.73-1.62-1.62-1.62H37.64c2.058-3.054 1.32-6.359 1.288-6.513a.813.813 0 0 0-.616-.607c-.024-.008-.648-.138-1.563-.138-1.709 0-4.18.43-6.229 2.487a5.57 5.57 0 0 0-1.3 2.043c-.097-.304-.208-.605-.292-.911-1.19-4.312-1.233-8.856-.129-13.503a.81.81 0 1 0-1.575-.374 29.984 29.984 0 0 0-.824 7.67 13.435 13.435 0 0 0-.351-.317c-2.247-1.963-5.048-2.375-7.002-2.375-.34 0-.625.013-.837.026a.81.81 0 0 0-.751.688c-.155 1.024-.339 3.679 1.29 6.206 1.124 1.742 2.6 2.91 4.39 3.471a7.74 7.74 0 0 0 2.32.353c.64 0 1.283-.077 1.91-.23a.803.803 0 0 0 .304-.156c.235.735.502 1.463.8 2.18H16.403c-.891 0-1.62.729-1.62 1.62v3.24c0 .016.004.032.005.048h-.664c-.047-.06-.093-.123-.16-.17a12.131 12.131 0 0 1-3.07-3.135c-2.259-3.37-2.21-7.103-1.951-9.112.032-.292.073-.543.113-.753a.8.8 0 0 0-.3-.786.767.767 0 0 1-.461.267c-.049.016-.105.016-.154.016a.797.797 0 0 1-.486-.162.71.71 0 0 0-.186.373c-.057.332-.13.753-.179 1.255a16.464 16.464 0 0 0 .22 4.827c-.068-.037-.144-.079-.197-.106-1.497-.768-3.432-.85-5.301-.261a.809.809 0 0 0-.563.848c.08.839.419 2.438 1.8 3.736.989.93 2.116 1.441 3.352 1.516a5.24 5.24 0 0 0 2.725-.593.794.794 0 0 0 .218-.175l.006.01c.587.882 1.291 1.68 2.078 2.405H5.517c-1.045 0-1.896.85-1.896 1.896v1.838c0 1.018.809 1.845 1.817 1.888L7.355 62.9a2.04 2.04 0 0 0 2.025 1.717h9.988l.016.13c.194 1.287 1.199 2.219 2.405 2.219h15.147c1.207 0 2.212-.932 2.406-2.22l.033-.21h9.363a2.01 2.01 0 0 0 1.628-.81c.203-.26.34-.575.397-.923l1.917-12.871a1.894 1.894 0 0 0 1.817-1.888v-1.846c0-1.045-.85-1.896-1.895-1.896h-4.859a13.245 13.245 0 0 0 1.991-2.325z"/>
        <path fill="#4A4A4A" d="M14.333 60.518h-3.634a.81.81 0 1 0 0 1.62h3.634a.81.81 0 1 0 0-1.62M22.645 62.916h-.034a.796.796 0 0 0-.794.81c0 .447.38.81.828.81a.81.81 0 1 0 0-1.62M36.653 62.916H24.975a.81.81 0 1 0 0 1.62h11.678a.81.81 0 1 0 0-1.62"/>
        <path fill="#DEB93D" d="M36.631 6.864a.806.806 0 0 0 .573-.237l1.818-1.817a.81.81 0 1 0-1.146-1.146L36.06 5.482a.81.81 0 0 0 .572 1.382M31.814 4.176a.81.81 0 0 0 .992-.573l.664-2.483a.81.81 0 1 0-1.564-.419l-.665 2.483a.81.81 0 0 0 .573.992M25.92 3.603a.81.81 0 1 0 1.564-.419L26.82.701a.81.81 0 0 0-1.565.42l.665 2.482M21.521 6.627a.808.808 0 0 0 1.146 0 .81.81 0 0 0 0-1.145l-1.818-1.818a.81.81 0 1 0-1.145 1.146l1.817 1.817M19.643 9.88l-2.482-.665a.81.81 0 1 0-.42 1.565l2.483.664a.81.81 0 0 0 .42-1.565M19.224 15.202l-2.483.664a.81.81 0 0 0 .42 1.565l2.482-.665a.81.81 0 0 0-.42-1.564M37.204 20.02a.81.81 0 1 0-1.145 1.144l1.817 1.818a.807.807 0 0 0 1.146 0 .81.81 0 0 0 0-1.145l-1.818-1.818M41.984 15.866l-2.482-.664a.81.81 0 0 0-.42 1.564l2.483.665a.81.81 0 0 0 .42-1.565M41.565 9.215l-2.482.665a.81.81 0 0 0 .42 1.564l2.481-.664a.81.81 0 0 0-.419-1.565M8.924 16.724a.81.81 0 0 0 .939-.656l.405-2.277a.81.81 0 1 0-1.595-.284l-.405 2.277a.81.81 0 0 0 .656.94M1.884 17.685a.81.81 0 1 0 1.382-.845L2.06 14.867a.81.81 0 0 0-1.382.845l1.206 1.973M49.943 17.333a.81.81 0 0 0 .795-.97l-.436-2.157a.81.81 0 1 0-1.589.32l.436 2.157c.079.385.417.65.794.65M55.57 18.153a.81.81 0 0 0 1.1-.322l1.053-1.931a.81.81 0 0 0-1.422-.777l-1.055 1.931a.81.81 0 0 0 .323 1.1M62.78 20.638a.81.81 0 0 0-1.071-.408l-2.008.9a.81.81 0 1 0 .662 1.478l2.008-.9c.408-.182.591-.662.408-1.07M10.7 27.414c-.145 1.045-.963 1.75-1.798 2.13l.04.21a.796.796 0 0 1-.185.673.767.767 0 0 1-.462.267c-.049.016-.105.016-.154.016a.797.797 0 0 1-.486-.162.838.838 0 0 1-.308-.494l-.024-.162c-1.15-.008-2.025-.583-2.309-.794a.812.812 0 0 1-.162-1.134.812.812 0 0 1 1.134-.162c.154.114.932.648 1.847.414.446-.114 1.19-.503 1.264-1.021.04-.324-.154-.745-.462-1.004-.356-.292-.802-.284-1.49-.243-.77.04-1.718.097-2.503-.64a2.63 2.63 0 0 1-.778-2.414c.203-.956.972-1.596 1.79-1.912l-.016-.08a.812.812 0 0 1 1.596-.3l.032.194c.85.121 1.466.567 1.734.794a.81.81 0 1 1-1.053 1.23c-.138-.12-.648-.51-1.296-.428-.503.064-1.11.397-1.2.834-.064.3.066.68.3.899.26.251.648.243 1.305.203.777-.041 1.741-.098 2.608.607.753.624 1.158 1.596 1.037 2.479zm-4.69-8.927A6.912 6.912 0 0 0 .496 26.54a6.906 6.906 0 0 0 6.795 5.637 6.657 6.657 0 0 0 1.653-.21 6.89 6.89 0 0 0 5.119-7.962c-.697-3.743-4.301-6.213-8.051-5.517zM53.59 23.493a.807.807 0 0 1-1.11-.3c-.089-.161-.437-.696-1.069-.842-.502-.113-1.182 0-1.417.38-.154.252-.17.657-.025.94.17.324.535.446 1.159.632.745.227 1.676.502 2.243 1.466.503.835.551 1.888.13 2.681-.486.932-1.49 1.32-2.406 1.394l-.04.21a.593.593 0 0 1-.065.203.773.773 0 0 1-.689.461l-.008.009h-.032c-.049 0-.09 0-.138-.009a.809.809 0 0 1-.664-.931l.024-.162c-1.06-.405-1.693-1.223-1.887-1.523a.8.8 0 0 1 .227-1.118.8.8 0 0 1 1.118.227c.105.154.664.932 1.595 1.02.462.041 1.288-.064 1.531-.534.154-.291.122-.753-.089-1.101-.235-.397-.648-.535-1.312-.738-.737-.218-1.652-.494-2.138-1.45-.405-.793-.373-1.79.089-2.535.518-.826 1.458-1.166 2.332-1.182l.017-.09a.803.803 0 0 1 .931-.664.805.805 0 0 1 .664.924l-.032.202a3.506 3.506 0 0 1 1.36 1.329.814.814 0 0 1-.299 1.101zm-1.45-5.03a6.904 6.904 0 0 0-7.93 5.694 6.9 6.9 0 0 0 5.695 7.922c.153.025.307.049.461.057a6.36 6.36 0 0 0 1.62-.032 6.88 6.88 0 0 0 5.84-5.711 6.892 6.892 0 0 0-5.686-7.93zM32.986 16.54c-.36 1.167-1.454 1.8-2.49 2.057l.007.363a.81.81 0 0 1-.791.828h-.019a.81.81 0 0 1-.81-.791l-.007-.302c-1.343-.195-2.263-1.034-2.551-1.331a.81.81 0 0 1 1.164-1.127c.16.165 1.016.982 2.174.87.602-.057 1.57-.382 1.774-1.042.127-.415-.028-.998-.37-1.386-.394-.446-.929-.523-1.769-.613-.869-.091-1.95-.206-2.685-1.16-.61-.79-.776-1.89-.424-2.8.409-1.058 1.445-1.625 2.446-1.803l-.006-.23a.81.81 0 0 1 .791-.828c.42-.036.82.343.83.79l.008.34c.979.277 1.624.914 1.886 1.226a.81.81 0 0 1-1.238 1.044c-.15-.177-.697-.754-1.517-.787-.654-.03-1.474.275-1.689.831-.145.377-.063.893.196 1.228.297.386.79.455 1.573.539.883.093 1.982.21 2.813 1.152.722.82.999 1.97.704 2.932zM29.377 5.355a8.1 8.1 0 1 0 .378 16.197 8.1 8.1 0 0 0-.378-16.197z"/>
    </g>
</svg>
