<svg xmlns="http://www.w3.org/2000/svg" width="53" height="60" viewBox="0 0 53 60">
    <g fill="none" fill-rule="evenodd">
        <path fill="#DEB93D" d="M7.29 20.25h9.72v-9.72H7.29z"/>
        <path fill="#CDCDCD" d="M42.727 51.705c-2.843-.053-4.344-1.363-8.302-1.688a20.356 20.356 0 0 0-4.522.135l.067 3.24 1.62 1.688 15.255.067 2.633-1.08v-4.59c-2.897 1.924-5.213 2.256-6.75 2.228"/>
        <path fill="#4A4A4A" d="M22.04 47.156a.845.845 0 0 0-.408-.516c-.393-.223-.934-.072-1.16.331a.85.85 0 0 0 .33 1.162.854.854 0 0 0 1.239-.977M21.218 45.952a.81.81 0 0 0 .81-.81c0-4.987-4.058-9.044-9.044-9.044a.81.81 0 1 0 0 1.62c4.093 0 7.424 3.33 7.424 7.424 0 .447.362.81.81.81M7.29 25.11h18.63a.81.81 0 1 0 0-1.62H7.29a.81.81 0 1 0 0 1.62M7.29 29.16h25.92a.81.81 0 1 0 0-1.62H7.29a.81.81 0 1 0 0 1.62M34.02 32.4a.81.81 0 0 0-.81-.81H7.29a.81.81 0 1 0 0 1.62h25.92a.81.81 0 0 0 .81-.81M7.29 1.62h20.222c1.404 0 2.724.547 3.719 1.538l4.991 4.992a.806.806 0 0 0 1.146 0 .81.81 0 0 0 0-1.146l-4.992-4.992A6.843 6.843 0 0 0 27.512 0H7.29a.81.81 0 1 0 0 1.62M38.524 10.255a.81.81 0 1 0 0-1.62.81.81 0 0 0 0 1.62"/>
        <path fill="#4A4A4A" d="M48.6 53.388c0 .51-.413.916-.915.916h-15.99a.749.749 0 0 1-.235-.033.907.907 0 0 1-.68-.883v-2.802a2.842 2.842 0 0 1 2.843-2.843h12.134a2.842 2.842 0 0 1 2.843 2.843v2.802zM17.723 49.59a6.396 6.396 0 0 0 1.539-4.163c0-3.532-2.876-6.415-6.415-6.415-3.532 0-6.416 2.883-6.416 6.415 0 1.669.64 3.183 1.677 4.325v2.9H3.102a1.485 1.485 0 0 1-1.482-1.49V7.154c0-.819.664-1.483 1.482-1.483h24.414c.016 0 .03.01.047.01a1.046 1.046 0 0 0-.023.205v6.45c0 2.402 2.362 4.674 4.86 4.674h6.448c.01 0 .019-.004.03-.004l.002.03v25.936h-4.876a.812.812 0 0 0-.81.81v2.365a4.462 4.462 0 0 0-4.034 4.439v2.065H17.723V49.59zm-1.361-.923a4.733 4.733 0 0 1-3.515 1.555c-1.394 0-2.65-.6-3.516-1.555a4.703 4.703 0 0 1-1.28-3.24 4.805 4.805 0 0 1 4.796-4.795 4.805 4.805 0 0 1 4.795 4.795c0 1.247-.478 2.39-1.28 3.24zm-.26 8.99l-2.737-1.821a.767.767 0 0 0-.454-.138.76.76 0 0 0-.445.138l-2.738 1.82v-6.632a6.261 6.261 0 0 0 3.119.818c1.19 0 2.3-.324 3.256-.89v6.705zM37.736 15.39H32.4c-1.605 0-3.24-1.542-3.24-3.055V6.821l6.963 6.957 1.612 1.612zm-2.921 30.733h9.72v-1.531h-9.72v1.53zm11.34.024v-2.365a.812.812 0 0 0-.81-.81H40.5V17.036c0-.754-.292-1.467-.826-2.001L29.516 4.877a2.812 2.812 0 0 0-2-.826H3.102A3.108 3.108 0 0 0 0 7.154V51.16a3.11 3.11 0 0 0 3.102 3.11h5.006v4.9c0 .3.162.575.43.712a.78.78 0 0 0 .826-.04l3.547-2.365 3.556 2.365c.13.089.292.137.446.137.13 0 .267-.032.38-.097a.797.797 0 0 0 .43-.713v-4.899h11.599a2.535 2.535 0 0 0 2.373 1.653h15.99a2.54 2.54 0 0 0 2.535-2.536v-2.802a4.46 4.46 0 0 0-4.066-4.44z"/>
        <path fill="#CDCDCD" d="M48.137 29.086a.675.675 0 0 1 .424-.855l3.878-1.308c.873-4.91-.125-8.857-.451-10.016-1.544.61-8.086 3.395-11.765 10.819-3.679 7.424-1.932 14.316-1.483 15.914 1.544-.61 8.086-3.396 11.765-10.819a21.82 21.82 0 0 0 1.606-4.362l-3.119 1.051a.675.675 0 0 1-.855-.424"/>
        <path fill="#4A4A4A" d="M36.046 53.662a.81.81 0 0 1-.782-1.024 113.441 113.441 0 0 1 3.876-11.625 113.497 113.497 0 0 1 5.099-11.117.81.81 0 0 1 1.433.755 112.017 112.017 0 0 0-5.026 10.956 111.772 111.772 0 0 0-3.82 11.46.812.812 0 0 1-.78.595"/>
    </g>
</svg>
