<svg xmlns="http://www.w3.org/2000/svg" width="62" height="62" viewBox="0 0 62 62">
    <g fill="none" fill-rule="evenodd">
        <path fill="#CDCDCD" d="M28.295 11.34c.034-.198.055-.4.055-.608a3.645 3.645 0 0 0-5.434-3.173 6.07 6.07 0 0 0-11.576 2.566c0 .416.042.823.122 1.215h16.833M32.4 46.98v3.24c0 .891-.729 1.62-1.62 1.62-.891 0-1.62-.729-1.62-1.62v-3.24h3.24"/>
        <path fill="#DEB93D" d="M44.55 11.34h4.05V0h-4.05zM38.88 11.34h4.05v-8.1h-4.05zM33.21 11.34h4.05V6.48h-4.05z"/>
        <path fill="#CDCDCD" d="M46.98 24.3h-5.67a.81.81 0 0 1 0-1.62h5.67a.81.81 0 0 1 0 1.62"/>
        <path fill="#DEB93D" d="M42.12 41.31h12.96v-2.43H42.12zM42.12 45.36h12.96v-2.43H42.12z"/>
        <path fill="#4A4A4A" d="M3.24 31.691c.502 0 .911-.409.911-.911a.913.913 0 0 0-.911-.911.913.913 0 0 0-.911.911c0 .502.409.911.911.911M51.84 59.839a.913.913 0 0 0-.911.911c0 .502.409.911.911.911s.911-.409.911-.911a.913.913 0 0 0-.911-.911M49.41 59.94H8.1a.81.81 0 0 0 0 1.62h41.31a.81.81 0 0 0 0-1.62M51.03 35.64V17.01a.812.812 0 0 0-.81-.81H11.34a.812.812 0 0 0-.81.81v26.73c0 .445.364.81.81.81h27.54v-1.62H12.15V17.82h37.26v17.82h1.62"/>
        <path fill="#4A4A4A" d="M26.41 32.334a.81.81 0 0 0 1.076-.453l3.568-9.278 4.786 5.47a.811.811 0 0 0 1.22-1.066l-5.67-6.48a.81.81 0 0 0-1.366.243l-3.748 9.744-4.897-2.098a.81.81 0 0 0-1.014.327l-4.86 8.1a.81.81 0 0 0 1.39.834l4.496-7.494 5.02 2.151M41.31 26.73a.81.81 0 0 0 0 1.62h5.67a.81.81 0 0 0 0-1.62h-5.67M38.88 36.45a.81.81 0 0 0-.81-.81h-16.2a.81.81 0 0 0 0 1.62h16.2a.81.81 0 0 0 .81-.81M21.87 38.88a.81.81 0 0 0 0 1.62h6.48a.81.81 0 0 0 0-1.62h-6.48M30.78 38.88a.81.81 0 0 0 0 1.62h4.86a.81.81 0 0 0 0-1.62h-4.86M3.24 29.16a.81.81 0 0 0 .81-.81V14.58c0-1.692.904-3.289 2.36-4.166a.81.81 0 0 0-.836-1.388A6.522 6.522 0 0 0 2.43 14.58v13.77c0 .447.363.81.81.81"/>
        <path fill="#4A4A4A" d="M42.12 56.7h12.96V38.88H42.12V56.7zm15.799-13.77c1.115 0 2.021.967 2.021 2.156v2.978c0 1.189-.906 2.156-2.021 2.156H56.7v-7.29h1.219zM5.67 56.7v-1.62h4.344a.81.81 0 0 0 0-1.62H5.67V52.1c0-.548.445-.997.996-.997h7.728c.55 0 .996.45.996.996v1.361h-1.252a.81.81 0 0 0 0 1.62h1.252v1.62H5.67zm20.218-5.468V47.79h2.462v2.43c0 1.34 1.09 2.43 2.43 2.43s2.43-1.09 2.43-2.43v-2.43h2.462v3.442c0 1.054.213 2.083.614 3.038H25.274c.4-.955.614-1.984.614-3.038zm4.082-3.442h1.62v2.43a.811.811 0 0 1-1.62 0v-2.43zm27.949 4.05c2.008 0 3.641-1.694 3.641-3.776v-2.978c0-2.082-1.633-3.776-3.641-3.776H56.7v-3.24a.812.812 0 0 0-.81-.81H41.31a.812.812 0 0 0-.81.81V56.7H21.06v-.81h17.82v-1.62h-.799a6.205 6.205 0 0 1-.789-3.038V47.79h1.588v-1.62H8.91V14.58h43.74v21.06h1.62V14.175c0-.668-.547-1.215-1.215-1.215H8.505c-.668 0-1.215.547-1.215 1.215v32.4c0 .668.547 1.215 1.215 1.215h15.763v3.442a6.205 6.205 0 0 1-.789 3.038H20.25a.812.812 0 0 0-.81.81v1.62h-2.43v-4.6a2.62 2.62 0 0 0-2.616-2.617H6.666a2.62 2.62 0 0 0-2.616 2.616V56.7H.81a.812.812 0 0 0-.81.81c0 .445.364.81.81.81h59.94c.445 0 .81-.365.81-.81a.812.812 0 0 0-.81-.81H56.7v-4.86h1.219z"/>
        <path fill="#4A4A4A" d="M52.65 52.65a.81.81 0 0 0 .81-.81v-8.1a.81.81 0 0 0-1.62 0v8.1c0 .447.363.81.81.81M52.65 53.359a.855.855 0 0 0-.405.097.738.738 0 0 0-.11.06c-.032.025-.064.05-.097.078a.924.924 0 0 0-.3.676.924.924 0 0 0 .398.753.738.738 0 0 0 .109.061c.121.065.26.097.405.097a.913.913 0 0 0 .911-.911.913.913 0 0 0-.911-.911"/>
        <path fill="#DEB93D" d="M16.2 31.59a.81.81 0 0 1-.694-1.227l4.86-8.1a.811.811 0 0 1 1.118-.273l9.825 6.046 5.251-9.004a.81.81 0 0 1 1.4.816l-5.67 9.72a.81.81 0 0 1-1.124.282l-9.833-6.05-4.438 7.397a.81.81 0 0 1-.696.393"/>
    </g>
</svg>
