<svg xmlns="http://www.w3.org/2000/svg" width="63" height="58" viewBox="0 0 63 58">
    <g fill="none" fill-rule="evenodd">
        <path fill="#DEB93D" d="M18.152 26.05a2.643 2.643 0 0 0-.773 1.867c0 .708.279 1.369.773 1.863.923.919 2.467.992 3.483.218v-4.163a2.579 2.579 0 0 0-1.616-.563c-.7 0-1.369.283-1.867.778"/>
        <path fill="#DEB93D" d="M14.268 22.166c-3.18 3.175-3.18 8.335 0 11.502a8.052 8.052 0 0 0 5.751 2.39 8.19 8.19 0 0 0 1.616-.159v-3.693a4.536 4.536 0 0 1-1.616.295 4.556 4.556 0 0 1-3.236-1.34 4.533 4.533 0 0 1-1.348-3.244 4.5 4.5 0 0 1 1.348-3.236 4.518 4.518 0 0 1 3.236-1.353c.559 0 1.106.097 1.616.296v-3.682a8.19 8.19 0 0 0-1.616-.158 8.078 8.078 0 0 0-5.75 2.382"/>
        <path fill="#DEB93D" d="M10.38 18.278c-5.313 5.313-5.313 13.96 0 19.274a13.534 13.534 0 0 0 9.64 3.993c.542 0 1.085-.033 1.615-.093v-3.58c-.526.085-1.07.13-1.616.13-2.69 0-5.216-1.05-7.12-2.953-3.936-3.937-3.936-10.332 0-14.256a10.003 10.003 0 0 1 7.12-2.953c.547 0 1.09.045 1.616.13v-3.593c-.53-.06-1.073-.093-1.616-.093a13.534 13.534 0 0 0-9.639 3.994"/>
        <path fill="#CDCDCD" d="M8.798 16.41l.42-3.771L4.19 7.61l-.42 3.77-3.77.42 5.028 5.028 3.77-.42"/>
        <path fill="#DEB93D" d="M11.204 42.146a16.93 16.93 0 0 1-3.017-2.399 16.59 16.59 0 0 1-4.88-11.066.804.804 0 0 0-.806-.763.815.815 0 0 0-.81.858 18.195 18.195 0 0 0 5.352 12.117c.999.999 2.101 1.877 3.286 2.616a.815.815 0 0 0 1.144-.287.804.804 0 0 0-.27-1.076M45.935 43.031h-15.39v-9.72a.81.81 0 0 0-1.62 0v10.53c0 .447.363.81.81.81h16.2a.81.81 0 0 0 0-1.62"/>
        <path fill="#DEB93D" d="M32.042 42.221a.81.81 0 0 0 .733-.465l1.987-4.213 2.431 3.16a.81.81 0 0 0 1.39-.183l1.539-3.696 1.55 1.55a.81.81 0 0 0 1.247-.124l3.609-5.413a.81.81 0 1 0-1.348-.898l-3.06 4.591-1.708-1.707a.811.811 0 0 0-1.321.262l-1.467 3.521-2.387-3.102a.808.808 0 0 0-1.375.148l-2.552 5.414a.81.81 0 0 0 .732 1.155"/>
        <path fill="#CDCDCD" d="M46.475 7.391h-2.97V4.826a.675.675 0 0 0-.675-.675h-7.56a.675.675 0 0 0-.675.675v2.565h-2.97a1.08 1.08 0 0 0-1.08 1.08v5.4h17.01v-5.4a1.08 1.08 0 0 0-1.08-1.08M58.895 45.461h3.24v-19.44h-3.24z"/>
        <path fill="#4A4A4A" d="M38.645 55.89a.912.912 0 0 0 0 1.822.912.912 0 0 0 0-1.822M32.975 1.822a.912.912 0 0 0 0-1.822.912.912 0 0 0 0 1.822M59.705 47.081h1.62v-.81h-1.62v.81zm.81-23.781l.546 1.911H59.97l.546-1.911zm-.81 21.351h1.62v-17.82h-1.62v17.82zm3.248-18.63a.813.813 0 0 0-.07-.33l-1.558-5.453v-1.962a.81.81 0 1 0-1.62 0v1.962l-1.589 5.56-.004.026a.815.815 0 0 0-.018.114c-.003.021-.006.042-.007.063l-.002.02v21.87c0 .447.363.81.81.81h3.24a.81.81 0 0 0 .81-.81v-21.79c.003-.026.008-.052.008-.08z"/>
        <path fill="#DEB93D" d="M14.095 44.72a.764.764 0 1 1-1.527.001.764.764 0 0 1 1.527 0"/>
        <path fill="#4A4A4A" d="M19.796 28.218a.81.81 0 0 0 .573-1.383L4.344 10.809a.81.81 0 0 0-1.146 1.146L19.223 27.98a.81.81 0 0 0 .573.238M54.845 50.929a.2.2 0 0 1-.202.202H22.648a.2.2 0 0 1-.203-.202V10.024a.2.2 0 0 1 .203-.203h7.087v1.62h-4.86a.812.812 0 0 0-.81.81v36.45c0 .446.365.81.81.81h27.54c.446 0 .81-.364.81-.81v-36.45a.812.812 0 0 0-.81-.81h-4.05v-1.62h6.278a.2.2 0 0 1 .202.203v40.905zm-24.3-36.248h17.01c.446 0 .81-.364.81-.81v-.81h3.24v34.83h-25.92v-34.83h4.05v.81c0 .446.365.81.81.81zm3.24-6.48v.134c0 .822.668 1.486 1.486 1.486h7.558c.818 0 1.486-.664 1.486-1.486V8.2h2.159c.15 0 .271.122.271.272v4.588h-15.39V8.473c0-.15.122-.272.271-.272h2.16zm1.62 0h7.29v-3.24h-7.29v3.24zm19.238 0h-6.298a1.89 1.89 0 0 0-1.871-1.62h-2.159V4.828c0-.823-.668-1.487-1.486-1.487H35.27c-.818 0-1.486.664-1.486 1.487V6.58h-2.159a1.89 1.89 0 0 0-1.87 1.62h-7.108a1.825 1.825 0 0 0-1.823 1.823v40.905c0 1.004.818 1.822 1.823 1.822h31.995a1.825 1.825 0 0 0 1.822-1.822V10.024A1.825 1.825 0 0 0 54.643 8.2z"/>
        <path fill="#4A4A4A" d="M28.925 19.541c0 .447.363.81.81.81h17.01a.81.81 0 0 0 0-1.62h-17.01a.81.81 0 0 0-.81.81M46.745 22.781h-17.01a.81.81 0 1 0 0 1.62h17.01a.81.81 0 0 0 0-1.62M40.265 26.831h-10.53a.81.81 0 1 0 0 1.62h10.53a.81.81 0 0 0 0-1.62M35.405 55.991H23.66a6.082 6.082 0 0 1-6.075-6.075.81.81 0 0 0-1.62 0c0 4.243 3.452 7.695 7.695 7.695h11.745a.81.81 0 0 0 0-1.62M35.945 1.721h6.21a3.79 3.79 0 0 1 3.644 2.777.811.811 0 0 0 1.563-.43A5.415 5.415 0 0 0 42.155.1h-6.21a.81.81 0 1 0 0 1.62"/>
    </g>
</svg>
