<svg xmlns="http://www.w3.org/2000/svg" width="63" height="63" viewBox="0 0 63 63">
    <g fill="none" fill-rule="evenodd">
        <path fill="#DEB93D" d="M31.923 24.56a.779.779 0 0 0-.133.433c0 .247.121.49.344.644a4.383 4.383 0 0 1 1.92 3.612 4.349 4.349 0 0 1-2.916 4.107c-.454.162-.94.251-1.442.251a.772.772 0 0 0-.774.741c-.004.012-.004.025-.004.037 0 .429.349.777.778.777a5.906 5.906 0 0 0 4.354-1.923l.004-.005v6.513a2.472 2.472 0 0 0-.438-.114 2.179 2.179 0 0 0-.794 0c-.429.073-.842.268-1.182.56-.146.129-.284.283-.397.453a.744.744 0 0 0-.13.393.759.759 0 0 0 .34.684.78.78 0 0 0 1.086-.202.824.824 0 0 1 1.51.413c.005.016.005.032.005.048v4.65c0 .044 0 .089-.008.134a3.834 3.834 0 0 1-.22 1.202c-.02.029-.044.057-.064.081a4.843 4.843 0 0 1-3.79 1.823 4.79 4.79 0 0 1-.843-.081c-.033 0-.057-.008-.081-.008a4.592 4.592 0 0 1-.762-.219c-.032-.008-.064-.024-.097-.032a5.537 5.537 0 0 1-.696-.34l-.081-.057a5.721 5.721 0 0 1-.632-.462l-.04-.04a5.159 5.159 0 0 1-.527-.547L26.14 48a4.848 4.848 0 0 1-.98-2.341c-.21.057-.43.097-.648.121h-.008l.024-.048c0-.004 0-.012.004-.02 0-.013.008-.025.012-.037.025-.065.049-.121.081-.186 0-.008.008-.016.016-.025a.243.243 0 0 1 .033-.064c.032-.065.073-.138.113-.203a.328.328 0 0 1 .04-.073c.025-.04.057-.08.082-.121l.008-.008c.073-.106.162-.21.259-.316.032-.04.081-.09.122-.13.121-.113.234-.227.34-.348.113-.122.227-.243.332-.373.073-.08.13-.17.202-.259.017-.016.033-.032.04-.057.074-.093.147-.19.22-.287l.113-.166c.13-.178.251-.365.364-.56.106-.161.203-.331.284-.51.121-.21.227-.429.324-.656.535-1.23.834-2.592.834-4.017A10.118 10.118 0 0 0 17.805 27.2c-.202.008-.405.032-.607.057a5.467 5.467 0 0 1-.665-.741l-.06-.154c-.017-.049-.029-.106-.045-.154a4.617 4.617 0 0 1-.186-.741s-.008-.009 0-.017a4.084 4.084 0 0 1-.073-.777c0-.215.016-.425.044-.636.013-.077.029-.15.04-.227.025-.13.054-.255.086-.38.024-.098.057-.19.085-.284.032-.093.069-.182.105-.275.045-.11.09-.223.142-.333.02-.04.045-.077.069-.117a4.925 4.925 0 0 1 1.353-1.608c.072.223.166.446.279.676a4.917 4.917 0 0 0 .43.725c.003.004.003.009.007.013v.004c.175.239.373.453.58.656.052.052.1.105.158.154.202.186.42.356.648.506.052.032.105.06.157.093.203.126.418.235.636.328.057.024.11.053.166.073.264.105.539.186.818.243.017.004.033.012.053.016.085.02.17.029.26.04.056.013.109.02.17.029a3.956 3.956 0 0 0 1.017.008c.06-.004.12-.004.181-.008.081-.012.158-.036.24-.049.011.004.02.013.032.02.004.005.008.005.012.009.372.239.664.555.879.911.02.036.044.069.064.105.049.09.09.187.13.28a3.15 3.15 0 0 1 .138.445 4.438 4.438 0 0 1 .069.478c.004.093-.005.186-.009.28-.004.068 0 .141-.012.21a2.57 2.57 0 0 1-.101.458c-.065.19-.142.38-.243.559a.704.704 0 0 0-.093.291c-.008.057.004.11.008.162.004.04 0 .081.008.118a.843.843 0 0 0 .118.259c.044.069.109.122.174.174.016.008.02.024.036.033.008.016.024.024.04.032a.822.822 0 0 0 .39.105.763.763 0 0 0 .449-.154.838.838 0 0 0 .223-.239c.008-.012.008-.028.016-.04.125-.227.227-.458.312-.693.028-.089.048-.182.077-.275.028-.105.069-.207.089-.316v-.016c.008-.04.004-.081.012-.122.024-.137.036-.275.045-.413.008-.11.008-.218.008-.328 0-.158-.008-.312-.025-.466l-.036-.202a4.35 4.35 0 0 0-1.081-2.223c-.017-.017-.025-.037-.041-.053a5.276 5.276 0 0 0 2.244-2.568c.004 0 .008 0 .008.004.287.049.567.073.838.073a4.9 4.9 0 0 0 .656-.048l.073-.013c.357-.052.685-.137.98-.235.102-.036.19-.072.284-.109l.101-.036c.247-.106.462-.215.624-.308.11-.06.19-.114.25-.158l.102-.065a.733.733 0 0 0 .23-.291.759.759 0 0 0-.048-.798.758.758 0 0 0-.457-.292.755.755 0 0 0-.632.113 4.181 4.181 0 0 1-1.806.648 3.148 3.148 0 0 1-1.511-.186c-1.215-.474-1.758-1.543-1.895-1.859-.013-.028-.033-.044-.05-.073a.77.77 0 0 0-.971-.336.787.787 0 0 0-.292.231.786.786 0 0 0-.117.798c.036.077.08.174.134.28.004.003.008.011.012.016.048.1.109.21.182.324.004.004.004.008.008.012.004.012.016.024.024.036.07.114.146.227.235.348.033.045.07.085.106.134.08.101.17.203.267.308.04.044.08.089.121.13.118.121.247.234.39.348a4.29 4.29 0 0 0 .693.478c-.001.004-.001.008-.005.012-.187.409-.434.777-.73 1.09l-.007.007a3.505 3.505 0 0 1-.41.365c-.032.028-.068.053-.105.077a3.078 3.078 0 0 1-.364.23c-.053.029-.106.061-.162.09-.118.056-.24.101-.36.146-.066.024-.126.048-.191.068a3.31 3.31 0 0 1-1.248.126 3.693 3.693 0 0 1-2.19-.948 3.45 3.45 0 0 1-.519-.567c-.028-.036-.053-.077-.077-.117-.057-.085-.113-.17-.162-.255-.028-.053-.053-.11-.08-.162-.033-.073-.07-.146-.098-.215a5.617 5.617 0 0 1-.182-.571c-.02-.093-.04-.186-.057-.28a.784.784 0 0 0 .016-.238 4.563 4.563 0 0 1 .057-1.333c.012-.089.04-.174.06-.263.045-.186.094-.373.159-.55.036-.098.08-.195.121-.293a5.369 5.369 0 0 1 .405-.74 5.72 5.72 0 0 1 .292-.39c.077-.089.145-.182.226-.267.106-.11.223-.21.34-.312.094-.08.183-.166.28-.239.11-.085.235-.15.352-.222.029-.017.057-.037.085-.053.005 0 .009-.004.013-.004.247-.117.498-.219.761-.3a5.21 5.21 0 0 1 1.134-.243c0-.008.008-.024.008-.032a.63.63 0 0 1 .033-.093 5.646 5.646 0 0 1 2.883-3.358c.308-.154.628-.28.964-.372.057-.017.113-.04.17-.057.446-.113.907-.17 1.385-.17a5.34 5.34 0 0 1 1.49.202 4.884 4.884 0 0 1 3.358 4.01 3.808 3.808 0 0 1 .04.547.847.847 0 0 1 .005.1v10.215A5.658 5.658 0 0 0 33 24.349a.748.748 0 0 0-.592-.114.752.752 0 0 0-.486.324"/>
        <path fill="#CDCDCD" d="M54.262 34.31c-.016-.024-.033-.04-.04-.065a.706.706 0 0 1-.13-.364 4.903 4.903 0 0 0-.664-2.114c-.065-.106-.122-.21-.187-.308a4.819 4.819 0 0 0-3.094-2.041 4.704 4.704 0 0 0-2.349.13 3.734 3.734 0 0 0-.737.283c.13.17.267.348.373.543.315.55.494 1.11.575 1.636.243 1.595-.34 2.956-.494 3.28a.78.78 0 0 1-1.41-.664 3.53 3.53 0 0 0 .235-.68c.138-.494.243-1.207.073-1.944a3.13 3.13 0 0 0-.332-.859c-.802-1.41-2.625-2.106-4.374-1.693a4.294 4.294 0 0 1-2.754 1.013.778.778 0 0 1 0-1.556c.348 0 .688-.064.996-.186a2.791 2.791 0 0 0 1.798-2.6c0-.43.349-.786.778-.786.251 0 .47.122.616.308.097.13.162.3.162.478v.057a4.287 4.287 0 0 1-.316 1.547c0 .016-.008.032-.017.048.34.017.673.057.997.13a5.273 5.273 0 0 1 1.895.81 6.143 6.143 0 0 1 1.887-.77 6.303 6.303 0 0 1 2.957 0c.413.098.81.235 1.19.414.179-.162.349-.34.503-.535a4.152 4.152 0 0 0-.3-.227c.405-.316.762-.68 1.061-1.093a4.658 4.658 0 0 0 .26-2.552 4.898 4.898 0 0 0-2.155-3.28.904.904 0 0 1-.357-.033c-.818-.283-1.717-.089-2.3.486-.745.746-.607 1.782-.591 1.896a.774.774 0 0 1-.648.89c-.04.009-.081.009-.122.009a.788.788 0 0 1-.77-.656 4.328 4.328 0 0 1 .057-1.442c.13-.575.405-1.223.972-1.798a3.636 3.636 0 0 1 1.766-.956c.316-.081.64-.113.964-.105 0-.025 0-.049-.008-.073a4.609 4.609 0 0 0-.308-1.54 4.843 4.843 0 0 0-3.03-2.907h-.007c-.3-.09-.616-.146-.94-.178 0-.008-.008-.025-.008-.033-.024 0-.049-.008-.073-.008a.784.784 0 0 1-.672-.55c-.446-1.556-1.653-2.763-3.135-3.265-.057-.016-.113-.04-.17-.057a5.593 5.593 0 0 0-1.385-.17c-.389 0-.778.04-1.142.114-.097.024-.195.04-.292.073a4.923 4.923 0 0 0-3.386 3.83c-.048.276-.072.552-.072.843 0 1.774 1.15 3.28 2.737 3.823a3.9 3.9 0 0 0 1.304.22c.454 0 .908-.074 1.32-.22a3.971 3.971 0 0 0 1.467-.89.751.751 0 0 1 .72-.187.728.728 0 0 1 .381.219c.3.308.284.802-.032 1.093a5.566 5.566 0 0 1-7.897-.194v19.545a4.013 4.013 0 0 1 2.438-.858c.291 0 .583.032.858.097.008 0 .016.008.016.008.794.17 1.515.591 2.066 1.199.138.137.26.291.373.461a.773.773 0 0 1-.211 1.078.773.773 0 0 1-1.077-.21 2.44 2.44 0 0 0-2.025-1.07 2.44 2.44 0 0 0-2.438 2.438v5.038c0 .47.08.916.226 1.337a4.849 4.849 0 0 0 3.856 1.903c1.45 0 2.738-.648 3.629-1.652v.016c.048-.049.089-.105.137-.162.017-.024.033-.04.05-.065.015-.016.023-.032.04-.048.089-.251.145-.51.186-.778 0-.04.024-.065.032-.105.008-.073.025-.146.025-.227a3.454 3.454 0 0 0-1.02-2.454.787.787 0 0 1-.001-1.102.695.695 0 0 1 .292-.178.76.76 0 0 1 .81.178 4.95 4.95 0 0 1 1.352 2.495c.178.024.357.032.543.032a5.277 5.277 0 0 0 4.22-2.114c.17-.478.267-.996.267-1.53v-.009c-.105.016-.21.033-.316.04a4.152 4.152 0 0 1-1.199-.024 4.82 4.82 0 0 1-2.34-1.02.775.775 0 0 1-.13-1.094.788.788 0 0 1 1.094-.121c.226.178.542.38.955.534.009 0 .017.008.033.008.186.065.389.122.615.154a3.16 3.16 0 0 0 1.288-.073c.316-.072.575-.194.762-.3a3.903 3.903 0 0 0-.081-.688c.137-.065.267-.146.397-.21.008 0 .008-.008.016-.008a6.842 6.842 0 0 0 2.51-2.22 5.887 5.887 0 0 0 .446-2.26 4.47 4.47 0 0 0-.04-.575"/>
        <path fill="#4A4A4A" d="M23.49 46.808v3.419c0 .696-.567 1.263-1.264 1.263h-8.002a1.265 1.265 0 0 1-1.264-1.263v-3.419c0-1.053-.437-2.057-1.24-2.843a9.276 9.276 0 0 1-2.786-7.306c.26-3.88 3.013-7.16 6.618-8.262a8.934 8.934 0 0 1 2.284-.389c.13-.008.251-.008.38-.008h.009c5.135 0 9.315 4.18 9.315 9.315 0 .737-.09 1.458-.26 2.155a7.507 7.507 0 0 1-.234.834 8.932 8.932 0 0 1-.377.93c-.042.09-.09.177-.135.265a9.324 9.324 0 0 1-.534.918c-.12.18-.246.356-.38.529-.072.094-.142.19-.218.282a9.508 9.508 0 0 1-.673.737c-.13.13-.25.268-.356.405-.178.21-.324.438-.446.673a3.675 3.675 0 0 0-.42 1.539c-.017.073-.017.154-.017.226zm.98-34.757c.069-.237.16-.463.261-.683.025-.055.054-.107.081-.16.087-.17.183-.334.287-.49.032-.047.062-.096.095-.142.278-.386.61-.728.984-1.017.051-.039.104-.075.157-.112.142-.102.29-.195.442-.281.062-.034.121-.07.184-.102.191-.097.389-.184.592-.256.018-.006.034-.015.052-.021l.043-.012c.054-.018.112-.026.167-.042.188-.057.38-.108.576-.141.252-.04.509-.064.769-.064.245 0 .486.023.723.06.038.005.076.01.113.017.238.042.472.098.697.173l.019.006a4.9 4.9 0 0 1 .684.29l.008.004c.218.113.425.243.623.387l.035.026a4.95 4.95 0 0 1 1.434 1.673c.008.013.013.028.02.041.103.2.191.41.266.626.008.023.018.045.025.07.072.216.126.44.166.668a4.882 4.882 0 0 1 .078.84V23.632a5.933 5.933 0 0 0-.493-.48c-.014-.013-.03-.024-.045-.036a5.924 5.924 0 0 0-.511-.392.764.764 0 0 0-.46-.12.76.76 0 0 0-.62.33.778.778 0 0 0 .208 1.08c.033.022.06.049.092.071.063.046.126.088.186.148.122.095.237.198.347.305l.04.04a4.36 4.36 0 0 1 .675.886c.034.06.07.12.101.182.052.101.097.204.14.309.021.049.044.097.062.147.046.123.084.248.119.375.01.037.023.073.032.11.038.153.066.309.087.467l.007.04c.021.175.033.353.033.533 0 .273-.033.539-.08.798-.028.152-.078.294-.121.44-.036.12-.066.242-.111.356-.046.117-.105.226-.16.337a4.293 4.293 0 0 1-.21.387c-.06.096-.129.186-.196.276a4.326 4.326 0 0 1-.524.587c-.12.111-.246.215-.378.312-.08.06-.161.12-.246.174a4.36 4.36 0 0 1-.46.25c-.083.04-.164.084-.25.119-.185.074-.377.13-.573.178-.07.017-.135.043-.205.056a4.328 4.328 0 0 1-.842.085.779.779 0 0 0-.306 1.495l.003.002c.092.038.193.06.299.06h.004v.001c.24 0 .473-.018.705-.046l.085-.013a5.867 5.867 0 0 0 2.272-.804 5.947 5.947 0 0 0 1.29-1.06l.004-.004v6.51c-.05-.018-.103-.026-.154-.042a2.38 2.38 0 0 0-.508-.092c-.04-.003-.08-.011-.12-.012-.077-.001-.152.008-.228.014-.068.004-.135.008-.202.019-.068.011-.134.028-.2.045a2.197 2.197 0 0 0-.62.252c-.051.03-.102.058-.15.092a2.331 2.331 0 0 0-.226.18c-.037.033-.076.062-.111.098-.105.105-.204.219-.29.346a.773.773 0 0 0 .21 1.081c.019.012.04.014.059.025.041.023.083.05.128.06.01.005.023.004.034.008a.75.75 0 0 0 .14.026.745.745 0 0 0 .172 0c.027-.003.053-.005.08-.011a.739.739 0 0 0 .23-.093c.007-.004.015-.006.022-.011a.76.76 0 0 0 .22-.21.81.81 0 0 1 .261-.245.828.828 0 0 1 .248-.1c.018-.004.036-.005.054-.007a.823.823 0 0 1 .24 0c.019.002.038.002.058.006a.814.814 0 0 1 .653.81v4.657a4.086 4.086 0 0 1-4.081 4.073c-.243 0-.478-.03-.709-.07-.022-.005-.046-.007-.069-.011-.105-.017-.21-.057-.316-.09-.137-.04-.275-.072-.413-.13a2.769 2.769 0 0 1-.348-.17 2.937 2.937 0 0 1-.316-.17 3.071 3.071 0 0 1-.324-.242 5.112 5.112 0 0 1-.25-.197 4.033 4.033 0 0 1-.302-.315 3.226 3.226 0 0 1-.21-.258c-.03-.039-.057-.084-.087-.127-.044-.064-.09-.127-.13-.194-.033-.055-.064-.113-.095-.17-.025-.05-.052-.096-.076-.149a2.74 2.74 0 0 1-.16-.365c-.02-.056-.037-.115-.056-.172-.017-.057-.038-.111-.051-.167-.019-.055-.031-.115-.046-.173-.012-.054-.027-.107-.037-.162a4.053 4.053 0 0 1-.08-.67 11.447 11.447 0 0 0 1.475-1.798c.121.275.397.47.713.47.429 0 .777-.348.777-.778 0-.656-.137-1.288-.38-1.863.445-1.199.68-2.486.68-3.807 0-6.18-5.176-11.194-11.389-10.927-.113.008-.218.008-.332.025-.143-.155-.259-.327-.38-.496-.06-.088-.132-.168-.186-.258-.061-.1-.103-.209-.156-.312-.086-.17-.178-.338-.244-.518-.018-.05-.027-.105-.044-.156a4.725 4.725 0 0 1-.189-.739s-.008-.008 0-.016a4.08 4.08 0 0 1-.072-.778c0-.215.018-.427.046-.637.01-.076.027-.15.041-.226.024-.129.05-.256.084-.381a4.762 4.762 0 0 1 .19-.558c.045-.112.09-.224.144-.333.02-.04.044-.079.065-.12.33-.62.79-1.172 1.356-1.607a5.2 5.2 0 0 0 .277.678l.017.037c.116.23.248.46.413.688l.007.013.001.002c.175.24.372.455.58.659a5.272 5.272 0 0 0 .807.66c.05.033.103.06.155.09.205.126.417.235.637.33.056.024.11.052.166.074.266.104.539.184.818.243.017.004.034.012.052.016.085.019.173.028.26.041.056.008.112.02.169.027.193.023.388.037.583.037.143 0 .289-.015.434-.028.06-.006.121-.004.182-.011.083-.01.16-.035.242-.049.01.007.018.015.029.021.004.004.01.005.012.01.373.237.665.553.88.91.022.035.046.07.066.106.05.09.089.185.127.28a2.596 2.596 0 0 1 .18.67c.011.084.023.167.027.251.005.094-.001.188-.007.282-.003.07 0 .139-.01.208-.02.155-.056.308-.103.46-.064.19-.142.378-.244.56a.77.77 0 0 0-.094.29c-.007.055.005.109.01.163.003.04-.002.08.008.118.02.085.06.163.107.238l.01.02a.757.757 0 0 0 .176.174c.013.01.02.024.034.033.008.016.024.024.04.032a.822.822 0 0 0 .39.106.757.757 0 0 0 .448-.156.764.764 0 0 0 .223-.239c.008-.013.011-.027.019-.04.126-.225.227-.456.31-.692.031-.09.051-.183.077-.275.03-.105.068-.209.089-.315v-.017c.008-.04.006-.082.013-.124a4.147 4.147 0 0 0 .053-.74 4.332 4.332 0 0 0-.026-.464c-.009-.069-.023-.136-.035-.204a4.329 4.329 0 0 0-1.081-2.223c-.015-.016-.026-.035-.042-.05a5.3 5.3 0 0 0 2.246-2.569h.008a4.663 4.663 0 0 0 1.492.028c.025-.003.048-.01.073-.013.358-.053.688-.136.98-.237.1-.034.193-.07.285-.107.032-.013.069-.025.1-.038.25-.105.461-.214.623-.306.112-.062.19-.114.252-.157a4.04 4.04 0 0 0 .1-.068.763.763 0 0 0 .235-.289.762.762 0 0 0-.052-.798.77.77 0 0 0-.454-.294.76.76 0 0 0-.635.115 4.225 4.225 0 0 1-1.806.65 3.184 3.184 0 0 1-1.508-.187c-1.216-.473-1.76-1.544-1.897-1.861-.012-.027-.035-.045-.049-.07a.768.768 0 0 0-.973-.337.755.755 0 0 0-.29.23.771.771 0 0 0-.117.797c.034.078.08.173.133.278.003.006.008.013.01.02.052.099.113.207.184.322l.007.013c.007.012.017.025.025.036a5.4 5.4 0 0 0 .236.346 5.114 5.114 0 0 0 .37.443c.041.045.08.088.125.131.117.119.247.234.386.347.032.027.06.053.093.079.184.142.381.278.601.4l-.004.012a3.983 3.983 0 0 1-.737 1.095 3.7 3.7 0 0 1-.878.673c-.054.03-.109.062-.165.089a3.532 3.532 0 0 1-.36.147c-.063.023-.124.05-.188.068a3.395 3.395 0 0 1-.565.12 3.731 3.731 0 0 1-2.875-.94 3.643 3.643 0 0 1-.52-.567c-.028-.04-.049-.08-.076-.119a3.745 3.745 0 0 1-.16-.255c-.03-.054-.054-.109-.08-.163a3.455 3.455 0 0 1-.28-.783 3.883 3.883 0 0 1-.057-.28.756.756 0 0 0 .014-.239 4.576 4.576 0 0 1 .056-1.333c.016-.09.044-.175.064-.263.044-.187.093-.373.158-.551.036-.1.08-.194.122-.29a4.926 4.926 0 0 1 .404-.744c.09-.136.19-.263.292-.389.074-.09.146-.18.226-.264.106-.112.223-.213.34-.315.093-.08.18-.166.28-.24.11-.082.232-.149.35-.222a4.85 4.85 0 0 1 .805-.401c.084-.033.164-.073.25-.1.085-.031.173-.054.261-.075a4.95 4.95 0 0 1 .758-.15.784.784 0 0 0 .672-.552zm11.194.678c.008-.059.016-.118.027-.176a4.8 4.8 0 0 1 .158-.64c.012-.037.028-.072.04-.108a4.8 4.8 0 0 1 .244-.575l.037-.077c.107-.203.23-.397.363-.583l.057-.075c.283-.377.618-.712.996-.994l.058-.043c.191-.138.393-.265.604-.375l.036-.018a4.85 4.85 0 0 1 .644-.272l.049-.018c.218-.072.444-.126.674-.167l.143-.022c.22-.033.442-.053.668-.055l.038-.002c.262 0 .522.023.776.064.167.029.329.075.49.121.09.024.181.038.268.067l.021.006.042.017c.207.073.407.161.602.26.063.032.125.069.187.104.149.084.293.175.432.274.057.04.114.078.168.12.369.286.697.623.973 1.003.04.055.076.113.113.17.095.143.182.292.262.445.035.068.071.135.103.205.08.171.146.35.206.533.014.045.034.088.047.133.04.138.122.254.225.347a.773.773 0 0 0 .446.207 4.923 4.923 0 0 1 .99.211c.181.058.353.133.525.21.092.043.19.077.28.125.222.118.434.253.634.402.12.091.229.196.34.297.081.074.165.145.242.224.114.12.22.248.321.379a4.724 4.724 0 0 1 .445.67c.034.062.064.127.095.19.086.177.17.356.234.544l.01.039c.154.455.245.939.26 1.443a3.823 3.823 0 0 0-1.552.29c-.056.023-.11.05-.164.075a3.684 3.684 0 0 0-.358.195c-.068.042-.136.082-.202.128-.11.08-.214.169-.315.26-.045.04-.097.072-.14.115a3.646 3.646 0 0 0-1.003 1.974c-.003.014-.003.026-.005.04a4.173 4.173 0 0 0-.02 1.226c.008.065.032.121.056.178.005.011.014.02.02.032a.78.78 0 0 0 .136.195c.034.036.068.07.109.099.028.02.059.035.09.052.04.021.077.044.12.058.06.02.123.03.187.034.018.001.035.01.053.01a.81.81 0 0 0 .12-.01c.027-.004.048-.02.074-.027a.759.759 0 0 0 .443-.298.777.777 0 0 0 .134-.565c-.019-.115-.155-1.148.59-1.894.129-.128.277-.23.432-.318a2.196 2.196 0 0 1 .505-.205c.053-.015.104-.037.158-.047.186-.037.377-.054.57-.043.013 0 .028.004.042.004.192.015.384.052.572.115l.02.005c.087.03.173.035.258.034.027 0 .054.002.08 0l.018-.001c.091.059.173.128.26.193.086.065.175.127.256.197.076.065.145.137.217.207.086.084.172.167.251.256.062.07.118.143.176.215.079.1.155.201.227.307a5.107 5.107 0 0 1 .332.576c.035.071.07.143.101.215.058.135.109.273.155.414.022.065.045.13.064.197.047.163.082.331.11.5.009.047.021.093.028.14.031.222.049.446.049.673l-.003.048a4.466 4.466 0 0 1-.079.802 4.811 4.811 0 0 1-.507 1.462l-.02.035a4.877 4.877 0 0 1-.985 1.25l-.048-.019a6.311 6.311 0 0 0-.538-.211c-.057-.02-.113-.042-.17-.06a6.657 6.657 0 0 0-.625-.162c-.024-.005-.046-.014-.07-.018a6.709 6.709 0 0 0-.61-.088c-.116-.012-.231-.013-.347-.019-.084-.003-.169-.011-.253-.011-.148-.001-.294.008-.44.017-.052.003-.104.003-.156.008-.16.014-.319.037-.478.063l-.108.016c-.167.03-.333.07-.498.115l-.076.019a6.588 6.588 0 0 0-.51.167l-.049.018c-.176.067-.35.143-.52.226l-.018.009a6.521 6.521 0 0 0-.518.284 5.225 5.225 0 0 0-.554-.326l-.102-.049a5.523 5.523 0 0 0-.546-.235c-.056-.02-.115-.032-.172-.05a5.7 5.7 0 0 0-.875-.204c-.105-.016-.207-.04-.313-.05-.052-.007-.101-.007-.15-.01-.054-.004-.106-.01-.16-.012-.007 0-.015 0-.023-.002.065-.162.13-.332.17-.51.012-.039.016-.08.027-.119.022-.092.042-.183.06-.277.044-.243.076-.49.076-.746a.78.78 0 0 0-.062-.305c-.013-.032-.04-.055-.057-.084a.767.767 0 0 0-.659-.397.744.744 0 0 0-.36.102.771.771 0 0 0-.422.681 2.788 2.788 0 0 1-2.788 2.79.778.778 0 0 0-.78.778c0 .43.349.779.78.779.017 0 .032-.005.049-.005.235-.003.46-.029.68-.069.083-.014.166-.028.247-.046l.018-.004c.173-.042.34-.096.504-.159.462-.17.88-.42 1.254-.728.048-.011.096-.017.144-.027.165-.032.329-.063.493-.077l.043-.001a3.9 3.9 0 0 1 .6-.004c.092.004.182.02.273.03.085.011.17.016.253.032.124.023.244.056.362.093a3.944 3.944 0 0 1 .65.244c.043.02.086.037.127.058.15.077.288.169.424.264.049.034.1.063.147.1.13.1.245.214.358.33.039.04.084.076.12.118.144.163.272.34.38.529l.002.005c.1.176.174.355.234.532.01.029.022.057.031.086a3.341 3.341 0 0 1 .128.61 3.708 3.708 0 0 1 0 .842c-.016.141-.036.278-.063.404a4.536 4.536 0 0 1-.252.878c-.021.05-.038.087-.049.109l-.007.017a.774.774 0 0 0-.07.286c-.002.02.003.04.004.06.001.075.01.148.033.219.01.03.025.056.038.085a.674.674 0 0 0 .205.264c.01.008.015.019.025.026a.39.39 0 0 0 .138.097c.074.034.154.04.233.05.033.005.065.024.098.024.27 0 .524-.145.666-.388.012-.02.03-.037.04-.059l.016-.037a7.615 7.615 0 0 0 .095-.221 5.84 5.84 0 0 0 .101-.274c.01-.03.02-.056.03-.089a6.548 6.548 0 0 0 .221-.889c.01-.052.023-.096.03-.15.006-.041.008-.087.012-.13a5.57 5.57 0 0 0 .034-.361c.003-.057.004-.115.005-.173a5.372 5.372 0 0 0-.003-.403c-.002-.043-.002-.085-.005-.128a5.151 5.151 0 0 0-.242-1.225l-.01-.043a5.672 5.672 0 0 0-.13-.32c-.01-.022-.018-.045-.029-.068-.02-.045-.046-.09-.068-.135-.044-.091-.086-.181-.137-.271l-.02-.03a4.538 4.538 0 0 0-.354-.512c.227-.114.454-.203.688-.267.376-.124.767-.2 1.164-.226l.041-.002c.17-.01.34-.008.51 0 .037.003.075.003.112.006.19.014.381.038.571.076l.043.011c.239.05.467.125.692.207a4.589 4.589 0 0 1 .808.384c.114.068.229.134.337.211.128.09.246.195.365.298.106.092.217.178.316.28.134.138.251.294.37.448.052.07.114.13.163.202.065.097.122.202.187.308a4.996 4.996 0 0 1 .444.996c.016.053.029.107.043.16.036.125.07.25.096.378.037.192.065.386.078.581.003.048.023.088.035.133.01.034.013.07.027.103a.756.756 0 0 0 .088.152c.008.013.014.028.023.04.017.13.022.267.028.401.002.059.01.116.01.174 0 .287-.023.57-.062.848-.004.026-.005.054-.01.08-.04.266-.1.527-.175.783-.025.083-.058.163-.086.245a6.006 6.006 0 0 1-.185.484 6.118 6.118 0 0 1-.347.667c-.075.125-.15.25-.233.37-.045.064-.096.125-.143.187-.36.474-.786.897-1.272 1.253l-.118.086c-.16.111-.327.215-.499.312-.017.01-.036.018-.053.027-.004.003-.008.002-.012.004h-.002c-.018.01-.048.023-.069.035a3.424 3.424 0 0 1-1.834.388c-.08-.006-.152.003-.236-.01a3.251 3.251 0 0 1-1.132-.391 3.547 3.547 0 0 1-.468-.306.767.767 0 0 0-.99.034c-.035.03-.076.051-.107.088a.764.764 0 0 0-.125.693.758.758 0 0 0 .251.402c.053.042.124.088.184.132.054.04.1.076.16.118l.035.021c.032.022.067.042.101.063.123.077.256.152.401.224l.098.05c.169.079.35.151.546.216.062.02.127.036.19.054.07.02.136.043.208.06.009 0 .017.008.033.008.102.028.214.046.328.062.023.004.042.011.065.015.102.015.196.013.296.021.13.012.265.032.388.032.291 0 .566-.032.824-.072v.007c0 .027-.003.052-.004.079a4.304 4.304 0 0 1-.066.681c-.009.053-.016.107-.027.16a4.52 4.52 0 0 1-.21.712l-.025.058a4.417 4.417 0 0 1-.271.56l-.037.068a4.456 4.456 0 0 1-.384.548c-.01.013-.023.026-.035.04a4.521 4.521 0 0 1-.424.438l-.074.067a4.403 4.403 0 0 1-2.53 1.059l-.14.007a4.49 4.49 0 0 1-.603-.012c-.029-.002-.056-.002-.085-.005v-.008a4.99 4.99 0 0 0-1.465-3.335c-.031-.031-.072-.046-.107-.071a.755.755 0 0 0-1.158.32.767.767 0 0 0 .09.741c.026.038.04.08.073.113.017.016.03.036.046.053.105.11.197.228.286.348a3.51 3.51 0 0 1 .458.836c.046.123.082.249.114.377.017.069.04.136.053.206.038.208.062.42.062.635 0 .066-.016.13-.02.195l-.003.03c-.001.009-.004.015-.006.022-.007.028-.025.052-.029.08a4.026 4.026 0 0 1-.207.822 4.089 4.089 0 0 1-.194.446c-.04.078-.079.157-.123.232-.07.119-.148.232-.23.343-.06.082-.119.165-.184.242a4.066 4.066 0 0 1-.262.273c-.077.075-.153.152-.235.22-.097.082-.202.153-.306.225-.086.06-.17.122-.26.175-.121.07-.25.127-.378.185-.083.038-.164.082-.25.114a4 4 0 0 1-.501.142c-.06.014-.118.036-.18.048a4.085 4.085 0 0 1-4.81-4.014V39.97c0-.155.018-.306.046-.454.008-.04.019-.077.028-.115a2.427 2.427 0 0 1 .293-.702c.025-.04.048-.083.075-.122.07-.1.15-.194.233-.283.062-.064.13-.12.197-.177.042-.036.083-.072.127-.105.08-.058.166-.111.254-.16l.065-.035c.102-.052.207-.099.317-.136.122-.048.248-.082.378-.106.052-.01.106-.01.159-.017.087-.01.174-.023.265-.023.04 0 .078.009.118.01.132.007.264.022.392.05.068.014.132.033.197.053.118.036.233.079.343.132.044.021.09.039.133.062.145.08.282.177.408.286.026.021.05.045.075.068.131.123.254.258.358.411.016.024.041.037.06.06a.785.785 0 0 0 .142.139c.03.022.064.033.098.05.051.027.103.05.16.064.036.01.072.012.11.015a.732.732 0 0 0 .295-.029c.017-.005.034-.004.051-.01a.52.52 0 0 0 .127-.064c.012-.007.026-.008.038-.016a.778.778 0 0 0 .21-1.08 3.99 3.99 0 0 0-2.019-1.54 3.975 3.975 0 0 0-1.296-.224c-.253 0-.498.03-.737.077-.117.022-.228.06-.341.092-.1.03-.2.055-.296.092-.17.063-.33.14-.488.224l-.065.035c-.18.1-.349.21-.51.335v-19.54c.178.186.367.36.569.52l.055.04c.179.14.366.266.56.382.032.019.062.039.094.057.214.122.437.231.667.325l.062.023c.224.088.455.16.692.219.013.003.024.009.037.011l.032.007c.148.034.298.061.45.084.075.012.148.025.222.034.087.01.175.011.262.016.113.008.225.021.338.021.09 0 .175-.011.262-.016.11-.005.22-.009.328-.02.079-.009.157-.021.235-.034a5.63 5.63 0 0 0 .42-.078c.026-.005.051-.007.076-.014.027-.006.052-.016.08-.023.127-.032.253-.07.378-.112.07-.023.14-.046.21-.072.12-.046.24-.099.358-.153.052-.024.105-.046.157-.072a5.604 5.604 0 0 0 1.356-.949.76.76 0 0 0 .212-.407.741.741 0 0 0-.056-.49.754.754 0 0 0-.128-.204.77.77 0 0 0-.509-.234.75.75 0 0 0-.592.205 4.038 4.038 0 0 1-2.787 1.11c-.043 0-.085-.01-.128-.011a4.038 4.038 0 0 1-.63-.064c-.1-.019-.192-.053-.289-.079-.146-.04-.292-.079-.431-.134-.1-.04-.195-.09-.291-.137a3.993 3.993 0 0 1-.369-.2 4.071 4.071 0 0 1-.263-.184 4.053 4.053 0 0 1-.544-.484 4.078 4.078 0 0 1-.287-.348c-.055-.074-.11-.146-.161-.223a4.097 4.097 0 0 1-.251-.463c-.03-.062-.064-.121-.09-.185a4.017 4.017 0 0 1-.306-1.53l.003-.051c.002-.217.022-.43.052-.64zm-.834 35.127a5.672 5.672 0 0 0 1.946 1.973l.04.024c.139.083.282.16.429.23.03.016.061.03.092.045.13.06.262.114.398.164.05.019.1.038.15.055.117.04.236.074.357.107.046.012.09.029.136.04.021.005.044.007.065.012.167.037.336.067.507.089l.09.014c.213.024.43.04.65.04.024 0 .047-.006.071-.006.246-.003.488-.024.727-.06.15-.022.295-.057.442-.09.05-.012.103-.018.153-.031.024 0 .04 0 .057-.017.024-.006.046-.017.07-.024a5.511 5.511 0 0 0 .821-.304c.168-.078.333-.16.492-.253.086-.05.168-.107.25-.161.15-.099.298-.198.437-.31.07-.056.133-.119.2-.178.144-.128.289-.256.42-.398a.062.062 0 0 1 .01-.009c.01-.008.021-.011.03-.02.145-.144.276-.298.4-.456.03-.038.058-.078.088-.117a5.01 5.01 0 0 0 .264-.395l.067-.11c.198-.35.354-.72.463-1.105l.014-.04c.056.009.105.009.162.017.039.003.076-.003.115 0 .283.016.56.016.834-.005.028-.002.056-.001.083-.004a5.97 5.97 0 0 0 4.137-2.262l.047-.059c.185-.24.354-.494.502-.762.017-.03.031-.062.048-.092.135-.254.253-.517.352-.79.008-.025.02-.048.028-.072a6.02 6.02 0 0 0 .228-.88c.01-.054.017-.108.026-.162.048-.307.081-.618.081-.939 0-.17-.009-.343-.024-.519.302-.16.588-.341.861-.537.064-.045.121-.098.183-.145a7.59 7.59 0 0 0 .582-.482c.083-.077.157-.16.235-.24.15-.152.298-.307.434-.47.085-.102.162-.209.241-.315.114-.152.224-.306.326-.467a7.768 7.768 0 0 0 .461-.837c.071-.15.137-.3.199-.454a7.67 7.67 0 0 0 .152-.429c.058-.173.112-.346.157-.524.032-.127.055-.256.08-.386.04-.2.079-.399.102-.603.003-.022.009-.042.011-.064.026-.213.034-.434.039-.654.001-.055.011-.108.011-.164 0-.304-.022-.604-.057-.902-.003-.02-.008-.041-.01-.062a7.555 7.555 0 0 0-.157-.84l-.002-.007a7.664 7.664 0 0 0-.63-1.682l-.05-.098-.003-.005-.005-.01a7.62 7.62 0 0 0-.244-.424l-.034-.06c-.04-.057-.065-.122-.105-.178-.033-.05-.073-.098-.106-.146l-.038-.05c-.05-.069-.104-.134-.156-.201-.047-.061-.094-.122-.144-.18l-.018-.023-.045-.053a7.697 7.697 0 0 0-.755-.792c.006-.006.01-.014.017-.02.194-.208.369-.43.533-.66.047-.065.094-.129.139-.196.151-.23.287-.47.408-.716l.087-.192a6.42 6.42 0 0 0 .565-2.628 6.447 6.447 0 0 0-1.344-3.927 6.458 6.458 0 0 0-1.897-1.661l.001-.082a6.426 6.426 0 0 0-5.283-6.344 6.351 6.351 0 0 0-.322-.676C45.108 8.358 42.92 6.97 40.5 6.97c-.279 0-.552.024-.822.06-.065.007-.128.018-.192.028-.218.035-.433.08-.643.136l-.155.04a6.457 6.457 0 0 0-.748.27c-.03.012-.058.028-.087.041a6.296 6.296 0 0 0-.775.418c-.193.122-.38.252-.559.393-.024.02-.05.037-.075.056-.202.164-.392.34-.572.527-.038.039-.073.08-.11.121-.141.153-.274.312-.4.478-.04.052-.08.104-.118.157-.15.21-.29.427-.414.654l-.023-.037a6.416 6.416 0 0 0-.384-.605c-.044-.063-.09-.122-.137-.183a6.534 6.534 0 0 0-.373-.446c-.044-.049-.087-.1-.133-.147a6.429 6.429 0 0 0-.557-.513c-.034-.028-.072-.052-.107-.08a6.455 6.455 0 0 0-1.28-.778c-.042-.019-.082-.042-.125-.06a6.39 6.39 0 0 0-.727-.261c-.063-.02-.127-.033-.191-.05a6.372 6.372 0 0 0-.6-.127 6.486 6.486 0 0 0-1.034-.09c-2.672 0-5.078 1.684-6.025 4.155a6.453 6.453 0 0 0-.937.248c-.037.013-.075.023-.112.036a6.338 6.338 0 0 0-.817.367c-.046.024-.092.047-.138.073a6.426 6.426 0 0 0-.847.57 6.445 6.445 0 0 0-.657.6l-.07.077a6.49 6.49 0 0 0-.585.733l-.013.02a6.42 6.42 0 0 0-1.05 2.819c-.002.01-.006.02-.007.03l-.003.01c-.012.039-.034.074-.04.116-.023.17-.044.412-.044.701l-.002.048c-.086.05-.163.112-.246.166-.151.099-.304.194-.446.303-.055.043-.103.093-.157.138a6.507 6.507 0 0 0-.473.421c-.036.036-.066.077-.1.114-.157.166-.311.335-.45.516-.028.038-.05.08-.078.117a6.616 6.616 0 0 0-.382.575c-.032.055-.055.115-.086.17a6.602 6.602 0 0 0-.284.576c-.037.088-.061.182-.095.273-.062.171-.129.34-.177.517-.039.142-.06.29-.09.436-.025.13-.06.258-.078.39-.038.28-.058.565-.058.852 0 .276.017.543.057.802 0 .005.003.01.003.014.034.269.09.53.156.79.014.056.022.113.038.169.064.227.15.445.24.663.032.08.057.162.092.24.079.17.177.331.27.495.067.117.125.238.2.35.005.008.008.017.014.025-4.52 1.102-8.036 5.095-8.368 9.858a10.923 10.923 0 0 0 3.273 8.578c.486.478.753 1.077.753 1.684v3.419a2.89 2.89 0 0 0 2.884 2.883h8.002a2.89 2.89 0 0 0 2.884-2.883V47.86c.024.042.055.079.081.12.037.06.078.115.117.173.09.132.18.264.28.388.033.042.07.08.105.12.452.53.996.975 1.614 1.307l.017.009c.237.127.485.235.74.327.015.005.028.014.043.019l.073.024.044.013c.159.052.32.096.485.134.018.004.035.011.054.015.073.024.146.033.219.049.032.005.062.007.092.01.293.048.59.079.896.079.216 0 .428-.015.639-.039.05-.006.098-.015.148-.022.151-.022.3-.046.447-.08.026-.005.053-.007.078-.013.054-.013.106-.032.16-.047.108-.03.216-.06.321-.096.06-.02.12-.043.18-.066.125-.047.249-.097.37-.153l.114-.055c.14-.068.277-.141.41-.22l.055-.034c.15-.092.296-.19.437-.294l.007-.005a5.671 5.671 0 0 0 1.494-1.668zM34.818 4.63h.012a.81.81 0 0 0 .81-.799l.044-3.008A.81.81 0 0 0 34.886 0a.804.804 0 0 0-.822.798l-.044 3.009a.81.81 0 0 0 .798.822M59.93 40.232l-2.706-1.317a.81.81 0 0 0-.708 1.457l2.706 1.317a.809.809 0 0 0 .709-1.457M46.965 8.079a.81.81 0 0 0 1.11-.28l1.544-2.584a.81.81 0 1 0-1.39-.83l-1.544 2.583a.81.81 0 0 0 .28 1.11M56.47 17.554a.805.805 0 0 0 .393-.102l2.628-1.466a.81.81 0 1 0-.79-1.415l-2.628 1.466a.81.81 0 0 0 .396 1.517M61.56 27.861l-3.008-.045c-.467.006-.816.351-.822.799a.81.81 0 0 0 .798.821l3.009.045h.012a.81.81 0 0 0 .012-1.62M4.86 36.91a.81.81 0 0 0-.81-.81H.81a.81.81 0 0 0 0 1.62h3.24a.81.81 0 0 0 .81-.81M6.638 29.279l-2.806-1.62a.81.81 0 1 0-.81 1.403l2.806 1.62a.81.81 0 0 0 .81-1.403"/>
        <path fill="#4A4A4A" d="M9.562 21.562a.81.81 0 0 0-.296 1.107l1.62 2.806a.81.81 0 1 0 1.403-.81l-1.62-2.806a.81.81 0 0 0-1.107-.297M5.22 43.302l-2.806 1.62a.81.81 0 1 0 .81 1.403l2.806-1.62a.81.81 0 1 0-.81-1.403M9.332 18.369a.806.806 0 0 0 1.07-.41A26.872 26.872 0 0 1 23.28 4.707a.81.81 0 1 0-.702-1.46A28.496 28.496 0 0 0 8.923 17.299a.809.809 0 0 0 .41 1.07M55.364 45.904c-5.107 6.124-12.59 9.636-20.534 9.636a.81.81 0 0 0 0 1.62c8.425 0 16.363-3.724 21.778-10.218a.81.81 0 0 0-1.244-1.038M32.397 55.503a.848.848 0 1 0 .002 1.696.848.848 0 0 0-.002-1.696M25.11 3.61a.848.848 0 0 0 0-1.695.848.848 0 0 0 0 1.695M21.465 40.991h-1.246v-1.246c0-.687.559-1.246 1.246-1.246a1.247 1.247 0 0 1 0 2.492zm-6.48 0a1.247 1.247 0 0 1 0-2.492c.687 0 1.246.56 1.246 1.246v1.246h-1.246zm6.48-4.05a2.807 2.807 0 0 0-2.804 2.804v1.246h-.872v-1.246a2.807 2.807 0 0 0-2.804-2.804 2.807 2.807 0 0 0-2.804 2.804 2.807 2.807 0 0 0 2.804 2.804h1.246v6.511a.779.779 0 0 0 1.558 0v-6.51h.872v6.51a.779.779 0 0 0 1.558 0v-6.51h1.246a2.807 2.807 0 0 0 2.804-2.805 2.807 2.807 0 0 0-2.804-2.804zM23.49 53.951H12.96a.78.78 0 1 0 0 1.558h10.53a.779.779 0 1 0 0-1.558M22.68 56.381h-8.91a.78.78 0 1 0 0 1.558h8.91a.779.779 0 1 0 0-1.558M18.225 61.241c-.557 0-1.03-.367-1.189-.872h2.378c-.16.505-.632.872-1.189.872zm2.025-2.43H16.2a.78.78 0 0 0-.78.78v.404a2.808 2.808 0 0 0 2.805 2.804 2.807 2.807 0 0 0 2.804-2.804v-.405a.779.779 0 0 0-.779-.779z"/>
    </g>
</svg>
