<svg width="210" height="77" xmlns="http://www.w3.org/2000/svg"><g fill="none" fill-rule="evenodd"><path fill="none" d="M-911-1969H513v5857H-911z"/><path d="M199.719 2.164c.075-.083.115-.176.171-.187.763-.155 1.529-.295 2.292-.448.509-.102 1.119-.08 1.493-.365.433-.328.951.04 1.343-.379.174-.185.6-.016.943-.21.396-.224.945-.175 1.425-.258.355-.061.704-.165 1.06-.213.606-.08 1.08.187 1.405.67.125.186.163.465.145.694-.006.07-.326.138-.508.169-.707.12-1.423.2-2.125.342-.533.108-1.055.276-1.576.435-.666.204-1.319.456-1.992.632-.604.157-1.233.217-1.84.365-.388.095-.757.27-1.136.407-.048.018-.105.012-.155.026-.522.145-1.04.308-1.567.436-.669.162-1.349.278-2.014.453-.306.08-.578.281-.882.373-.218.066-.468.017-.695.064-.452.092-.908.182-1.343.332-.78.268-1.537.6-2.319.863-.375.126-.786.143-1.174.234-.737.173-1.49.308-2.197.563-.688.249-1.39.455-2.072.691-1.034.357-2.088.628-3.124.964-.693.225-1.341.54-2.082.675-.664.122-1.272.539-1.913.806-.157.066-.35.037-.516.087-.78.235-1.562.462-2.33.731-.764.268-1.505.604-2.27.869-.628.217-1.288.34-1.91.568-.44.162-.827.458-1.261.641-.436.184-.9.3-1.35.45-.551.181-1.104.357-1.65.552-.584.21-1.16.439-1.742.658-.681.258-1.374.49-2.042.778-.786.339-1.538.759-2.33 1.084-.579.237-1.214.34-1.797.571-.575.23-1.106.57-1.676.816-.465.2-.966.319-1.44.5-.317.121-.614.296-.924.434-1.059.473-2.114.954-3.182 1.404-.856.36-1.758.624-2.587 1.037-.759.378-1.513.734-2.325.989-.444.138-.838.43-1.259.644-.587.299-1.18.586-1.768.883-.634.32-1.234.787-1.906.937-.884.196-1.573.733-2.373 1.063-.81.333-1.554.822-2.337 1.225-.374.193-.774.335-1.153.52-1.033.506-2.057 1.03-3.093 1.53-.502.242-1.113.346-1.511.697-.483.426-1.04.661-1.58.945-.627.33-1.297.578-1.923.908-.555.292-1.065.666-1.614.969-.71.39-1.448.73-2.156 1.121-.46.255-.894.559-1.33.854-.232.156-.454.329-.663.514-.709.624-1.433 1.234-2.103 1.897a3.7 3.7 0 0 0-.758 1.103c-.264.592-.61 1.185-.455 1.884.07.316.137.633.228.944.016.056.137.087.213.12.799.353 1.684.43 2.473.237.992-.244 2.01-.053 2.956-.325.488-.14 1.032-.025 1.492-.384.245-.192.659-.166.996-.243.636-.145 1.276-.275 1.906-.445.889-.24 1.78-.48 2.651-.775.734-.248 1.428-.618 2.165-.856.943-.303 1.916-.512 2.866-.794.403-.12.783-.316 1.168-.49.258-.117.495-.293.763-.377.881-.275 1.787-.481 2.656-.79.63-.224 1.19-.698 1.829-.831 1.083-.226 1.98-.921 3.1-1.06.571-.071 1.089-.507 1.65-.726.821-.322 1.665-.587 2.49-.899.415-.156.809-.365 1.215-.543.269-.117.544-.219.813-.334.154-.066.296-.16.453-.217.72-.262 1.46-.476 2.16-.784.69-.304 1.308-.832 2.02-1.011.506-.127.918-.384 1.376-.565.856-.337 1.706-.597 2.644-.512.51.047.894.396.923.911.012.212-.011.313-.279.317-.786.011-1.488.264-2.223.58-.549.237-1.099.514-1.662.74a2.938 2.938 0 0 0-1.143.791c-.333.378-.808.629-1.168.987a6.899 6.899 0 0 0-.922 1.14c-.274.424-.48.894-.704 1.35-.068.139-.099.296-.147.445.197-.004.46.072.58-.026.46-.375 1.011-.46 1.544-.644.627-.217 1.292-.265 1.89-.46.986-.323 1.954-.186 2.904-.134.689.038 1.385.358 2.031.763a3.409 3.409 0 0 0 1.748.54c1.061.016 2.06-.242 3.065-.48.634-.149 1.236-.43 1.855-.646.96-.334 1.932-.636 2.88-.999.897-.343 1.773-.74 2.651-1.128.509-.225.98-.595 1.509-.699 1.02-.201 1.804-.863 2.733-1.235.698-.28 1.323-.738 2-1.08.726-.365 1.475-.686 2.215-1.026.65-.297 1.33-.507 2.003-.73.74-.244 1.302.062 1.939.086.174.006.357.194.508.33.213.19.493.336-.054.558a7.34 7.34 0 0 0-1.796 1.067c-.694.555-1.493.878-2.276 1.248-.394.187-.796.359-1.196.533-.836.366-1.679.716-2.509 1.096-.676.31-1.33.666-2.006.976-.536.244-1.088.454-1.636.67-.846.335-1.706.636-2.538 1.002-.598.263-1.154.618-1.736.916-.495.254-1.001.485-1.502.727-.455.22-.919.423-1.362.664-.861.467-1.859.626-2.613 1.371-.43.424-1.149.551-1.728.83-.612.295-1.258.49-1.776 1.007-.363.362-.918.595-1.43.73-.653.174-1.124.623-1.69.92-.874.458-1.697 1.013-2.545 1.52-.525.315-1.032.677-1.592.91-.901.372-1.58 1.082-2.496 1.458-.76.312-1.366.98-2.07 1.445-.425.28-.913.462-1.358.713-.152.086-.245.27-.39.375-.637.466-1.274.936-1.932 1.373-.533.355-1.12.633-1.639 1.007-.674.487-1.295 1.045-1.954 1.554-.35.27-.734.495-1.094.751-.413.293-.821.59-1.222.9-.642.494-1.229 1.083-1.928 1.476-.647.364-1.165.874-1.77 1.28-.713.477-1.347 1.073-2.004 1.63-.417.354-.772.799-1.23 1.083-.614.381-1.033 1.022-1.609 1.34-.575.318-.89.834-1.39 1.188-.664.471-1.147 1.214-1.837 1.626-1.037.62-1.67 1.63-2.593 2.348-1.529 1.19-2.814 2.632-4.13 4.045-.88.945-1.868 1.792-2.809 2.682-.51.483-1.168.883-1.5 1.466-.49.863-1.22 1.437-1.915 2.074-.071.066-.151.12-.227.18-.008-.123-.043-.253-.014-.366.019-.073.125-.135.205-.178.82-.44 1.077-1.383 1.775-1.95.495-.402.85-.973 1.278-1.46 1.094-1.243 2.185-2.49 3.296-3.718.444-.492.95-.93 1.404-1.414.687-.734 1.325-1.515 2.035-2.225.636-.637 1.343-1.204 2.014-1.806.447-.4.9-.793 1.325-1.214.53-.524 1.017-1.09 1.554-1.607.703-.675 1.42-1.339 2.164-1.97.581-.492 1.218-.92 1.82-1.39.198-.156.351-.37.544-.533.548-.463 1.16-.823 1.605-1.439.285-.394.886-.554 1.328-.845.164-.107.265-.308.422-.43.626-.486 1.272-.947 1.894-1.438.671-.53 1.268-1.18 2.001-1.598.59-.335 1.008-.847 1.577-1.178.23-.134.463-.264.691-.402.62-.374 1.088-.938 1.777-1.25.63-.285 1.146-.81 1.73-1.203.511-.344 1.055-.64 1.572-.976.38-.247.73-.54 1.112-.785.584-.374 1.19-.713 1.773-1.087.53-.34 1.026-.738 1.568-1.06.628-.372 1.298-.674 1.934-1.033.562-.317 1.099-.678 1.653-1.008.336-.2.684-.379 1.025-.568.841-.464 1.683-.927 2.522-1.394.524-.291 1.037-.604 1.569-.88.593-.31 1.2-.593 1.806-.879.333-.157.675-.294 1.01-.448.032-.015.037-.091.055-.139-.078-.025-.155-.071-.233-.072-.645-.006-1.29.025-1.933-.011-.668-.038-1.384-.01-1.986-.245-.767-.3-1.543-.132-2.299-.291-.496-.105-1.014.107-1.527-.197-.22-.13-.638.074-.965.129-.103.017-.206.063-.306.058-1.035-.059-1.923.302-2.758.883a1.722 1.722 0 0 1-.9.31c-.305.004-.688-.088-.905-.284-.61-.549-1.244-1.151-1.089-2.08.079-.468.324-.91.512-1.357.098-.233.257-.442.349-.678.074-.191.226-.41-.245-.26-.749.238-1.421.677-2.14.886-.822.24-1.534.764-2.416.842-.349.03-.679.285-1.015.443-.288.135-.565.293-.859.414-.605.25-1.217.48-1.827.719-.142.056-.285.113-.429.165-.791.287-1.627.458-2.346.936-.177.118-.421.133-.632.203-.614.206-1.23.41-1.84.625-.476.168-.944.357-1.419.527-.35.126-.707.233-1.06.352-.481.163-.96.33-1.443.492-.291.097-.59.176-.878.28-.57.208-1.132.437-1.704.638-.29.102-.596.164-.895.241-.347.09-.697.167-1.041.264-.444.125-.885.261-1.326.398-.584.18-1.162.385-1.753.543-.402.108-.825.134-1.23.232-.412.1-.813.244-1.218.369-.308.095-.61.248-.922.276-1.09.1-2.204.308-3.271.176-.662-.082-1.391-.262-2.05-.714-.484-.332-.684-.837-1.131-1.147-.142-.098-.226-.426-.182-.613.121-.514-.633-.952-.098-1.502.093-.096-.008-.38-.02-.576-.166.068-.347.112-.496.206-.74.469-1.46.97-2.21 1.423-.81.489-1.634.96-2.476 1.392-.42.216-.9.316-1.344.488-.515.199-1.021.42-1.532.63a.362.362 0 0 1-.1.027c-.72.074-1.442.15-2.164.217-.08.007-.165-.036-.248-.056.063-.062.126-.126.191-.186.473-.435.895-.951 1.432-1.283.664-.41 1.222-.912 1.788-1.434.629-.579 1.3-1.127 2.014-1.594.672-.439 1.258-.982 1.904-1.431.763-.532 1.497-1.104 2.245-1.653.868-.636 1.643-1.396 2.474-2.082.29-.24.628-.419.942-.629.215-.143.433-.283.635-.441.604-.472 1.195-.96 1.801-1.428.49-.377.994-.736 1.492-1.102.027-.02.06-.032.09-.048-.04-.021-.096-.071-.122-.059-.568.276-1.234-.108-1.805.3-.244.174-.615.18-.933.244-.424.084-.866.105-1.276.232-.808.25-1.595.563-2.396.833-.422.142-.862.228-1.282.374-.427.149-.843.333-1.259.513-.432.187-.86.38-1.285.585-.82.395-1.725.582-2.483 1.15-.458.344-1.06.506-1.61.715-.773.294-1.471.687-2.161 1.156-.699.476-1.572.69-2.35 1.06-.35.167-.64.457-.984.646-.634.35-1.279.684-1.935.991-.47.22-.942.389-1.335.78-.277.276-.743.358-1.112.55-.896.467-1.772.973-2.68 1.415-.622.304-1.299.496-1.925.793-.699.33-1.352.76-2.056 1.078-.54.244-1.14.355-1.696.572-.688.268-1.428.391-2.058.84-.271.194-.692.19-1.05.251-.5.086-1.01.223-1.508.199a1.723 1.723 0 0 1-1.01-.43c-.683-.638-.421-1.735.405-2.092.321-.139.564-.45.86-.657.22-.154.473-.258.7-.403.925-.593 1.851-1.185 2.768-1.791.657-.435 1.299-.891 1.948-1.338.24-.166.46-.391.726-.49.959-.352 1.606-1.186 2.589-1.549.747-.276 1.331-.965 2.032-1.4.616-.382 1.246-.705 1.8-1.21.513-.468 1.24-.7 1.855-1.063.484-.285.937-.622 1.414-.92.407-.254.834-.476 1.242-.73.515-.32 1.017-.66 1.528-.987.351-.225.701-.455 1.066-.658.439-.245.966-.385 1.322-.713.515-.476 1.176-.648 1.729-1.026.577-.395 1.139-.818 1.741-1.172.658-.386 1.37-.683 2.031-1.064.5-.288.943-.675 1.443-.965.407-.236.873-.353 1.252-.67.322-.268.713-.456 1.08-.668.457-.264.923-.511 1.381-.773.913-.522 1.825-1.045 2.733-1.576.513-.3 1.132-.421 1.528-.938.068-.088.376.006.573.016-.067.166-.126.335-.202.496-.311.669-.552 1.386-.962 1.989-.462.68-1.066 1.265-1.63 1.873-.273.296-.644.436-1.026.583-.418.16-.77.486-1.165.718-.113.067-.271.057-.409.083.04-.149.035-.342.129-.439.528-.544 1.09-1.055 1.62-1.599.174-.18.287-.42.429-.632-.247.087-.512.142-.738.268-.86.478-1.71.975-2.56 1.472-.557.325-1.102.669-1.662.987-.68.389-1.38.744-2.056 1.142-.702.413-1.38.868-2.079 1.29-.39.234-.808.422-1.198.657-.527.318-1.031.674-1.56.988-.406.24-.846.423-1.25.666-.426.255-.825.554-1.24.829-.186.123-.367.285-.574.341-.49.133-.81.493-1.187.78-.12.092-.297.106-.428.186-.867.53-1.745 1.044-2.588 1.61-.748.501-1.446 1.077-2.187 1.59-.3.207-.667.315-.985.5-.195.114-.344.303-.532.432-.508.35-1.026.687-1.542 1.027-.489.321-.98.64-1.47.957-.232.15-.471.29-.7.442-.712.475-1.427.945-2.129 1.433a118.18 118.18 0 0 0-2.314 1.652c-.473.346-.927.72-1.398 1.069-.062.045-.175.017-.262.031-.05.008-.096.034-.144.051.046.02.094.06.137.054.35-.04.707-.056 1.046-.142.409-.103.81-.248 1.2-.41.482-.199.938-.46 1.425-.644.575-.216 1.183-.345 1.752-.571.592-.235 1.13-.643 1.738-.79.621-.15 1.125-.481 1.674-.746.64-.31 1.234-.783 1.905-.935.617-.14 1.098-.468 1.63-.723.566-.27 1.08-.649 1.643-.924.774-.377 1.579-.69 2.36-1.053.329-.153.628-.37.947-.545.807-.444 1.614-.89 2.43-1.319.358-.187.74-.327 1.104-.504a169.98 169.98 0 0 0 2.312-1.153c.34-.172.664-.374 1.005-.543.397-.196.803-.377 1.208-.554.203-.088.422-.139.621-.233.675-.32 1.332-.68 2.019-.97.467-.198.988-.266 1.457-.459.792-.325 1.577-.63 2.432-.784.584-.104 1.126-.427 1.698-.618.342-.115.712-.143 1.06-.245 1.056-.31 2.14-.237 3.213-.196.325.013.652.253.95.436.063.039.065.344-.01.413-.28.256-.622.445-.908.697-.35.31-.663.662-1 .986-.783.75-1.51 1.573-2.372 2.215-.821.61-1.54 1.359-2.38 1.899-.703.453-1.136 1.19-1.9 1.535-.085.039-.127.175-.189.266.137-.019.294 0 .406-.062.53-.294 1.055-.6 1.568-.921.393-.246.754-.541 1.15-.78.629-.378 1.28-.72 1.911-1.092.38-.223.735-.487 1.113-.712.422-.25.856-.479 1.285-.716.564-.312 1.232-.522 1.663-.963.413-.424.93-.439 1.368-.692.353-.204.685-.444 1.035-.656.555-.336 1.112-.67 1.678-.99.722-.408 1.444-.817 2.182-1.195.63-.322 1.341-.521 1.91-.924a9.932 9.932 0 0 1 1.593-.924c.66-.303 1.32-.605 1.97-.927.593-.291 1.174-.605 1.757-.914.565-.3 1.116-.632 1.694-.907.626-.298 1.286-.527 1.912-.825.477-.227.915-.536 1.388-.772.554-.275 1.13-.506 1.692-.764.47-.216.932-.448 1.4-.665.404-.187.813-.362 1.218-.546.511-.232 1.023-.464 1.53-.703.778-.366 1.546-.755 2.331-1.102.682-.302 1.388-.546 2.072-.84.617-.267 1.21-.589 1.83-.846.705-.29 1.436-.518 2.141-.808.62-.256 1.213-.58 1.833-.838.455-.19.942-.302 1.402-.482.564-.222 1.112-.484 1.672-.716.422-.174.85-.33 1.278-.49.457-.171.916-.337 1.374-.504.353-.127.708-.246 1.058-.38.426-.163.844-.346 1.271-.506.269-.1.553-.162.82-.265.74-.286 1.468-.606 2.215-.87.433-.154.9-.207 1.34-.347.283-.09.538-.267.815-.384.247-.105.504-.194.763-.266.938-.263 1.89-.481 2.815-.785.716-.235 1.39-.599 2.1-.857.524-.191 1.08-.294 1.615-.456.473-.143.932-.33 1.406-.47.64-.187 1.295-.321 1.928-.525.573-.185 1.114-.473 1.691-.643.759-.224 1.546-.354 2.308-.568.63-.178 1.238-.43 1.863-.63.324-.103.665-.154.993-.246.739-.207 1.47-.446 2.212-.633.588-.149 1.196-.218 1.785-.363.406-.1.795-.27 1.192-.408a.559.559 0 0 1 .1-.025c.49-.074.98-.147 1.499-.248zm-1.354 1.239c.234 0 .468.003.702-.003.04-.001.079-.04.118-.061-.03-.016-.062-.047-.089-.044-.262.033-.524.071-.842.108-.125 0-.253-.016-.373.008-.048.01-.077.108-.114.166.196-.009.491.284.598-.174zm3.867-.991c-.161 0-.324-.013-.483.008-.045.005-.123.132-.108.162.08.15.543.024.702-.17.198 0 .397.01.593-.008.044-.004.124-.133.108-.162-.083-.155-.653-.022-.812.17zm1.768-.44c.198 0 .397.01.594-.009.043-.004.124-.133.108-.162-.084-.154-.654-.022-.812.17-.198 0-.397-.01-.594.008-.043.004-.123.133-.108.162.084.155.654.022.812-.17zm-2.873.66l-.276.082c.038.046.078.133.112.131.148-.01.294-.047.44-.075a.616.616 0 0 0-.276-.138zm-4.198.99c-.15.377.171.183.28.21.058.015.144-.082.217-.128-.13-.027-.258-.054-.497-.081zm-.719.386c.148 0 .295 0 .442-.005v-.1c-.147-.004-.294-.004-.442.105zm9.337-2.367l-.71.064c.256-.003.51-.006.71-.064zm-4.972 1.211l-.6.064c.219-.003.437-.006.6-.064zm-5.083 1.432l.276-.073-.095-.148c-.079.055-.158.11-.181.22zm3.702-1.157c.063.019.127.054.19.052.118-.003.236-.027.353-.043-.11-.021-.218-.045-.328-.062-.053-.008-.107-.002-.215.053z" fill="#000"/><path d="M199.719 2.164c.075-.083.115-.176.171-.187.763-.155 1.529-.295 2.292-.448.509-.102 1.119-.08 1.493-.365.433-.328.951.04 1.343-.379.174-.185.6-.016.943-.21.396-.224.945-.175 1.425-.258.355-.061.704-.165 1.06-.213.606-.08 1.08.187 1.405.67.125.186.163.465.145.694-.006.07-.326.138-.508.169-.707.12-1.423.2-2.125.342-.533.108-1.055.276-1.576.435-.666.204-1.319.456-1.992.632-.604.157-1.233.217-1.84.365-.388.095-.757.27-1.136.407-.048.018-.105.012-.155.026-.522.145-1.04.308-1.567.436-.669.162-1.349.278-2.014.453-.306.08-.578.281-.882.373-.218.066-.468.017-.695.064-.452.092-.908.182-1.343.332-.78.268-1.537.6-2.319.863-.375.126-.786.143-1.174.234-.737.173-1.49.308-2.197.563-.688.249-1.39.455-2.072.691-1.034.357-2.088.628-3.124.964-.693.225-1.341.54-2.082.675-.664.122-1.272.539-1.913.806-.157.066-.35.037-.516.087-.78.235-1.562.462-2.33.731-.764.268-1.505.604-2.27.869-.628.217-1.288.34-1.91.568-.44.162-.827.458-1.261.641-.436.184-.9.3-1.35.45-.551.181-1.104.357-1.65.552-.584.21-1.16.439-1.742.658-.681.258-1.374.49-2.042.778-.786.339-1.538.759-2.33 1.084-.579.237-1.214.34-1.797.571-.575.23-1.106.57-1.676.816-.465.2-.966.319-1.44.5-.317.121-.614.296-.924.434-1.059.473-2.114.954-3.182 1.404-.856.36-1.758.624-2.587 1.037-.759.378-1.513.734-2.325.989-.444.138-.838.43-1.259.644-.587.299-1.18.586-1.768.883-.634.32-1.234.787-1.906.937-.884.196-1.573.733-2.373 1.063-.81.333-1.554.822-2.337 1.225-.374.193-.774.335-1.153.52-1.033.506-2.057 1.03-3.093 1.53-.502.242-1.113.346-1.511.697-.483.426-1.04.661-1.58.945-.627.33-1.297.578-1.923.908-.555.292-1.065.666-1.614.969-.71.39-1.448.73-2.156 1.121-.46.255-.894.559-1.33.854-.232.156-.454.329-.663.514-.709.624-1.433 1.234-2.103 1.897a3.7 3.7 0 0 0-.758 1.103c-.264.592-.61 1.185-.455 1.884.07.316.137.633.228.944.016.056.137.087.213.12.799.353 1.684.43 2.473.237.992-.244 2.01-.053 2.956-.325.488-.14 1.032-.025 1.492-.384.245-.192.659-.166.996-.243.636-.145 1.276-.275 1.906-.445.889-.24 1.78-.48 2.651-.775.734-.248 1.428-.618 2.165-.856.943-.303 1.916-.512 2.866-.794.403-.12.783-.316 1.168-.49.258-.117.495-.293.763-.377.881-.275 1.787-.481 2.656-.79.63-.224 1.19-.698 1.829-.831 1.083-.226 1.98-.921 3.1-1.06.571-.071 1.089-.507 1.65-.726.821-.322 1.665-.587 2.49-.899.415-.156.809-.365 1.215-.543.269-.117.544-.219.813-.334.154-.066.296-.16.453-.217.72-.262 1.46-.476 2.16-.784.69-.304 1.308-.832 2.02-1.011.506-.127.918-.384 1.376-.565.856-.337 1.706-.597 2.644-.512.51.047.894.396.923.911.012.212-.011.313-.279.317-.786.011-1.488.264-2.223.58-.549.237-1.099.514-1.662.74a2.938 2.938 0 0 0-1.143.791c-.333.378-.808.629-1.168.987a6.899 6.899 0 0 0-.922 1.14c-.274.424-.48.894-.704 1.35-.068.139-.099.296-.147.445.197-.004.46.072.58-.026.46-.375 1.011-.46 1.544-.644.627-.217 1.292-.265 1.89-.46.986-.323 1.954-.186 2.904-.134.689.038 1.385.358 2.031.763a3.409 3.409 0 0 0 1.748.54c1.061.016 2.06-.242 3.065-.48.634-.149 1.236-.43 1.855-.646.96-.334 1.932-.636 2.88-.999.897-.343 1.773-.74 2.651-1.128.509-.225.98-.595 1.509-.699 1.02-.201 1.804-.863 2.733-1.235.698-.28 1.323-.738 2-1.08.726-.365 1.475-.686 2.215-1.026.65-.297 1.33-.507 2.003-.73.74-.244 1.302.062 1.939.086.174.006.357.194.508.33.213.19.493.336-.054.558a7.34 7.34 0 0 0-1.796 1.067c-.694.555-1.493.878-2.276 1.248-.394.187-.796.359-1.196.533-.836.366-1.679.716-2.509 1.096-.676.31-1.33.666-2.006.976-.536.244-1.088.454-1.636.67-.846.335-1.706.636-2.538 1.002-.598.263-1.154.618-1.736.916-.495.254-1.001.485-1.502.727-.455.22-.919.423-1.362.664-.861.467-1.859.626-2.613 1.371-.43.424-1.149.551-1.728.83-.612.295-1.258.49-1.776 1.007-.363.362-.918.595-1.43.73-.653.174-1.124.623-1.69.92-.874.458-1.697 1.013-2.545 1.52-.525.315-1.032.677-1.592.91-.901.372-1.58 1.082-2.496 1.458-.76.312-1.366.98-2.07 1.445-.425.28-.913.462-1.358.713-.152.086-.245.27-.39.375-.637.466-1.274.936-1.932 1.373-.533.355-1.12.633-1.639 1.007-.674.487-1.295 1.045-1.954 1.554-.35.27-.734.495-1.094.751-.413.293-.821.59-1.222.9-.642.494-1.229 1.083-1.928 1.476-.647.364-1.165.874-1.77 1.28-.713.477-1.347 1.073-2.004 1.63-.417.354-.772.799-1.23 1.083-.614.381-1.033 1.022-1.609 1.34-.575.318-.89.834-1.39 1.188-.664.471-1.147 1.214-1.837 1.626-1.037.62-1.67 1.63-2.593 2.348-1.529 1.19-2.814 2.632-4.13 4.045-.88.945-1.868 1.792-2.809 2.682-.51.483-1.168.883-1.5 1.466-.49.863-1.22 1.437-1.915 2.074-.071.066-.151.12-.227.18-.008-.123-.043-.253-.014-.366.019-.073.125-.135.205-.178.82-.44 1.077-1.383 1.775-1.95.495-.402.85-.973 1.278-1.46 1.094-1.243 2.185-2.49 3.296-3.718.444-.492.95-.93 1.404-1.414.687-.734 1.325-1.515 2.035-2.225.636-.637 1.343-1.204 2.014-1.806.447-.4.9-.793 1.325-1.214.53-.524 1.017-1.09 1.554-1.607.703-.675 1.42-1.339 2.164-1.97.581-.492 1.218-.92 1.82-1.39.198-.156.351-.37.544-.533.548-.463 1.16-.823 1.605-1.439.285-.394.886-.554 1.328-.845.164-.107.265-.308.422-.43.626-.486 1.272-.947 1.894-1.438.671-.53 1.268-1.18 2.001-1.598.59-.335 1.008-.847 1.577-1.178.23-.134.463-.264.691-.402.62-.374 1.088-.938 1.777-1.25.63-.285 1.146-.81 1.73-1.203.511-.344 1.055-.64 1.572-.976.38-.247.73-.54 1.112-.785.584-.374 1.19-.713 1.773-1.087.53-.34 1.026-.738 1.568-1.06.628-.372 1.298-.674 1.934-1.033.562-.317 1.099-.678 1.653-1.008.336-.2.684-.379 1.025-.568.841-.464 1.683-.927 2.522-1.394.524-.291 1.037-.604 1.569-.88.593-.31 1.2-.593 1.806-.879.333-.157.675-.294 1.01-.448.032-.015.037-.091.055-.139-.078-.025-.155-.071-.233-.072-.645-.006-1.29.025-1.933-.011-.668-.038-1.384-.01-1.986-.245-.767-.3-1.543-.132-2.299-.291-.496-.105-1.014.107-1.527-.197-.22-.13-.638.074-.965.129-.103.017-.206.063-.306.058-1.035-.059-1.923.302-2.758.883a1.722 1.722 0 0 1-.9.31c-.305.004-.688-.088-.905-.284-.61-.549-1.244-1.151-1.089-2.08.079-.468.324-.91.512-1.357.098-.233.257-.442.349-.678.074-.191.226-.41-.245-.26-.749.238-1.421.677-2.14.886-.822.24-1.534.764-2.416.842-.349.03-.679.285-1.015.443-.288.135-.565.293-.859.414-.605.25-1.217.48-1.827.719-.142.056-.285.113-.429.165-.791.287-1.627.458-2.346.936-.177.118-.421.133-.632.203-.614.206-1.23.41-1.84.625-.476.168-.944.357-1.419.527-.35.126-.707.233-1.06.352-.481.163-.96.33-1.443.492-.291.097-.59.176-.878.28-.57.208-1.132.437-1.704.638-.29.102-.596.164-.895.241-.347.09-.697.167-1.041.264-.444.125-.885.261-1.326.398-.584.18-1.162.385-1.753.543-.402.108-.825.134-1.23.232-.412.1-.813.244-1.218.369-.308.095-.61.248-.922.276-1.09.1-2.204.308-3.271.176-.662-.082-1.391-.262-2.05-.714-.484-.332-.684-.837-1.131-1.147-.142-.098-.226-.426-.182-.613.121-.514-.633-.952-.098-1.502.093-.096-.008-.38-.02-.576-.166.068-.347.112-.496.206-.74.469-1.46.97-2.21 1.423-.81.489-1.634.96-2.476 1.392-.42.216-.9.316-1.344.488-.515.199-1.021.42-1.532.63a.362.362 0 0 1-.1.027c-.72.074-1.442.15-2.164.217-.08.007-.165-.036-.248-.056.063-.062.126-.126.191-.186.473-.435.895-.951 1.432-1.283.664-.41 1.222-.912 1.788-1.434.629-.579 1.3-1.127 2.014-1.594.672-.439 1.258-.982 1.904-1.431.763-.532 1.497-1.104 2.245-1.653.868-.636 1.643-1.396 2.474-2.082.29-.24.628-.419.942-.629.215-.143.433-.283.635-.441.604-.472 1.195-.96 1.801-1.428.49-.377.994-.736 1.492-1.102.027-.02.06-.032.09-.048-.04-.021-.096-.071-.122-.059-.568.276-1.234-.108-1.805.3-.244.174-.615.18-.933.244-.424.084-.866.105-1.276.232-.808.25-1.595.563-2.396.833-.422.142-.862.228-1.282.374-.427.149-.843.333-1.259.513-.432.187-.86.38-1.285.585-.82.395-1.725.582-2.483 1.15-.458.344-1.06.506-1.61.715-.773.294-1.471.687-2.161 1.156-.699.476-1.572.69-2.35 1.06-.35.167-.64.457-.984.646-.634.35-1.279.684-1.935.991-.47.22-.942.389-1.335.78-.277.276-.743.358-1.112.55-.896.467-1.772.973-2.68 1.415-.622.304-1.299.496-1.925.793-.699.33-1.352.76-2.056 1.078-.54.244-1.14.355-1.696.572-.688.268-1.428.391-2.058.84-.271.194-.692.19-1.05.251-.5.086-1.01.223-1.508.199a1.723 1.723 0 0 1-1.01-.43c-.683-.638-.421-1.735.405-2.092.321-.139.564-.45.86-.657.22-.154.473-.258.7-.403.925-.593 1.851-1.185 2.768-1.791.657-.435 1.299-.891 1.948-1.338.24-.166.46-.391.726-.49.959-.352 1.606-1.186 2.589-1.549.747-.276 1.331-.965 2.032-1.4.616-.382 1.246-.705 1.8-1.21.513-.468 1.24-.7 1.855-1.063.484-.285.937-.622 1.414-.92.407-.254.834-.476 1.242-.73.515-.32 1.017-.66 1.528-.987.351-.225.701-.455 1.066-.658.439-.245.966-.385 1.322-.713.515-.476 1.176-.648 1.729-1.026.577-.395 1.139-.818 1.741-1.172.658-.386 1.37-.683 2.031-1.064.5-.288.943-.675 1.443-.965.407-.236.873-.353 1.252-.67.322-.268.713-.456 1.08-.668.457-.264.923-.511 1.381-.773.913-.522 1.825-1.045 2.733-1.576.513-.3 1.132-.421 1.528-.938.068-.088.376.006.573.016-.067.166-.126.335-.202.496-.311.669-.552 1.386-.962 1.989-.462.68-1.066 1.265-1.63 1.873-.273.296-.644.436-1.026.583-.418.16-.77.486-1.165.718-.113.067-.271.057-.409.083.04-.149.035-.342.129-.439.528-.544 1.09-1.055 1.62-1.599.174-.18.287-.42.429-.632-.247.087-.512.142-.738.268-.86.478-1.71.975-2.56 1.472-.557.325-1.102.669-1.662.987-.68.389-1.38.744-2.056 1.142-.702.413-1.38.868-2.079 1.29-.39.234-.808.422-1.198.657-.527.318-1.031.674-1.56.988-.406.24-.846.423-1.25.666-.426.255-.825.554-1.24.829-.186.123-.367.285-.574.341-.49.133-.81.493-1.187.78-.12.092-.297.106-.428.186-.867.53-1.745 1.044-2.588 1.61-.748.501-1.446 1.077-2.187 1.59-.3.207-.667.315-.985.5-.195.114-.344.303-.532.432-.508.35-1.026.687-1.542 1.027-.489.321-.98.64-1.47.957-.232.15-.471.29-.7.442-.712.475-1.427.945-2.129 1.433a118.18 118.18 0 0 0-2.314 1.652c-.473.346-.927.72-1.398 1.069-.062.045-.175.017-.262.031-.05.008-.096.034-.144.051.046.02.094.06.137.054.35-.04.707-.056 1.046-.142.409-.103.81-.248 1.2-.41.482-.199.938-.46 1.425-.644.575-.216 1.183-.345 1.752-.571.592-.235 1.13-.643 1.738-.79.621-.15 1.125-.481 1.674-.746.64-.31 1.234-.783 1.905-.935.617-.14 1.098-.468 1.63-.723.566-.27 1.08-.649 1.643-.924.774-.377 1.579-.69 2.36-1.053.329-.153.628-.37.947-.545.807-.444 1.614-.89 2.43-1.319.358-.187.74-.327 1.104-.504a169.98 169.98 0 0 0 2.312-1.153c.34-.172.664-.374 1.005-.543.397-.196.803-.377 1.208-.554.203-.088.422-.139.621-.233.675-.32 1.332-.68 2.019-.97.467-.198.988-.266 1.457-.459.792-.325 1.577-.63 2.432-.784.584-.104 1.126-.427 1.698-.618.342-.115.712-.143 1.06-.245 1.056-.31 2.14-.237 3.213-.196.325.013.652.253.95.436.063.039.065.344-.01.413-.28.256-.622.445-.908.697-.35.31-.663.662-1 .986-.783.75-1.51 1.573-2.372 2.215-.821.61-1.54 1.359-2.38 1.899-.703.453-1.136 1.19-1.9 1.535-.085.039-.127.175-.189.266.137-.019.294 0 .406-.062.53-.294 1.055-.6 1.568-.921.393-.246.754-.541 1.15-.78.629-.378 1.28-.72 1.911-1.092.38-.223.735-.487 1.113-.712.422-.25.856-.479 1.285-.716.564-.312 1.232-.522 1.663-.963.413-.424.93-.439 1.368-.692.353-.204.685-.444 1.035-.656.555-.336 1.112-.67 1.678-.99.722-.408 1.444-.817 2.182-1.195.63-.322 1.341-.521 1.91-.924a9.932 9.932 0 0 1 1.593-.924c.66-.303 1.32-.605 1.97-.927.593-.291 1.174-.605 1.757-.914.565-.3 1.116-.632 1.694-.907.626-.298 1.286-.527 1.912-.825.477-.227.915-.536 1.388-.772.554-.275 1.13-.506 1.692-.764.47-.216.932-.448 1.4-.665.404-.187.813-.362 1.218-.546.511-.232 1.023-.464 1.53-.703.778-.366 1.546-.755 2.331-1.102.682-.302 1.388-.546 2.072-.84.617-.267 1.21-.589 1.83-.846.705-.29 1.436-.518 2.141-.808.62-.256 1.213-.58 1.833-.838.455-.19.942-.302 1.402-.482.564-.222 1.112-.484 1.672-.716.422-.174.85-.33 1.278-.49.457-.171.916-.337 1.374-.504.353-.127.708-.246 1.058-.38.426-.163.844-.346 1.271-.506.269-.1.553-.162.82-.265.74-.286 1.468-.606 2.215-.87.433-.154.9-.207 1.34-.347.283-.09.538-.267.815-.384.247-.105.504-.194.763-.266.938-.263 1.89-.481 2.815-.785.716-.235 1.39-.599 2.1-.857.524-.191 1.08-.294 1.615-.456.473-.143.932-.33 1.406-.47.64-.187 1.295-.321 1.928-.525.573-.185 1.114-.473 1.691-.643.759-.224 1.546-.354 2.308-.568.63-.178 1.238-.43 1.863-.63.324-.103.665-.154.993-.246.739-.207 1.47-.446 2.212-.633.588-.149 1.196-.218 1.785-.363.406-.1.795-.27 1.192-.408a.559.559 0 0 1 .1-.025c.49-.074.98-.147 1.499-.248zm-1.354 1.239c.234 0 .468.003.702-.003.04-.001.079-.04.118-.061-.03-.016-.062-.047-.089-.044-.262.033-.524.071-.842.108-.125 0-.253-.016-.373.008-.048.01-.077.108-.114.166.196-.009.491.284.598-.174zm3.867-.991c-.161 0-.324-.013-.483.008-.045.005-.123.132-.108.162.08.15.543.024.702-.17.198 0 .397.01.593-.008.044-.004.124-.133.108-.162-.083-.155-.653-.022-.812.17zm1.768-.44c.198 0 .397.01.594-.009.043-.004.124-.133.108-.162-.084-.154-.654-.022-.812.17-.198 0-.397-.01-.594.008-.043.004-.123.133-.108.162.084.155.654.022.812-.17zm-2.873.66l-.276.082c.038.046.078.133.112.131.148-.01.294-.047.44-.075a.616.616 0 0 0-.276-.138zm-4.198.99c-.15.377.171.183.28.21.058.015.144-.082.217-.128-.13-.027-.258-.054-.497-.081zm-.719.386c.148 0 .295 0 .442-.005v-.1c-.147-.004-.294-.004-.442.105zm9.337-2.367l-.71.064c.256-.003.51-.006.71-.064zm-4.972 1.211l-.6.064c.219-.003.437-.006.6-.064zm-5.083 1.432l.276-.073-.095-.148c-.079.055-.158.11-.181.22zm3.702-1.157c.063.019.127.054.19.052.118-.003.236-.027.353-.043-.11-.021-.218-.045-.328-.062-.053-.008-.107-.002-.215.053z"/><path d="M116.699 19.775c-.521.309-1.1.077-1.543.254-.5.2-.988.086-1.456.2-1.031.25-2.086.297-3.12.467-.915.152-1.818.26-2.742.3-.579.024-1.222.003-1.713.249-.476.238-.908.116-1.355.18-.59.083-1.249.017-1.756.264-.407.198-.762.119-1.136.175-.572.086-1.213.018-1.703.261-.476.236-.926.058-1.35.193-.989.316-2.024.178-3.008.364-.507.095-1.065.012-1.492.213-.451.212-.867.13-1.297.185-.538.07-1.14.02-1.594.255-.437.226-.9.012-1.228.209-.563.337-1.26-.065-1.76.412-.029.028-.107 0-.162.005-.743.072-1.51.058-2.223.242-.837.216-1.687.2-2.516.339-.835.14-1.668.302-2.504.446-.742.127-1.466.36-2.234.422-.463.038-.911.258-1.368.393-.066.02-.139.02-.209.03-.927.11-1.864.17-2.778.345-.767.146-1.502.45-2.263.637-.489.12-1.019.093-1.493.247-.449.144-.93.121-1.367.396-.328.206-.809.164-1.218.248-.861.178-1.719.371-2.58.547-.424.087-.863.114-1.278.23-.664.187-1.311.433-1.97.639a7.732 7.732 0 0 1-.953.231c-.69.122-1.388.195-2.07.345-.37.082-.709.301-1.075.42-.324.104-.672.135-.999.234-.68.206-1.344.467-2.03.647-.587.155-1.205.196-1.792.35-.637.165-1.251.414-1.882.606-.359.11-.737.158-1.094.271-.302.096-.584.256-.88.37a6.393 6.393 0 0 1-.822.273c-.539.128-1.09.207-1.624.351-.303.081-.579.258-.873.378-.249.101-.501.203-.761.27-.61.16-1.237.266-1.839.453-.711.222-1.4.516-2.105.76-.478.164-.98.27-1.451.45-.486.187-.936.471-1.425.645-.629.222-1.289.353-1.92.567-.542.183-1.055.448-1.594.64-.688.244-1.395.437-2.084.68-.413.145-.801.361-1.213.513-.477.176-.976.294-1.45.479-.548.214-1.077.477-1.618.711-.234.101-.47.23-.717.266-.878.129-1.604.617-2.393.958-.746.323-1.505.617-2.26.922-.42.17-.835.357-1.265.498-.952.311-1.76.935-2.755 1.18-.59.143-1.108.554-1.675.81-.648.293-1.318.536-1.97.82-.377.165-.74.365-1.106.553-.202.104-.404.312-.6.306-.542-.018-.873.385-1.312.563-.813.331-1.603.723-2.392 1.11-.944.463-1.876.95-2.817 1.42-.467.232-.944.446-1.415.67-.067.033-.13.076-.195.114.086.035.176.108.256.098.131-.016.253-.096.385-.13.108-.029.224-.03.337-.043-.041.125-.044.302-.13.365-.205.15-.443.258-.677.358-.695.3-1.395.587-2.094.876-.047.02-.106.01-.16.014-1.13.074-2.26.15-3.39.215-.126.008-.256-.054-.384-.084.1-.117.175-.276.3-.345 1.011-.555 2.025-1.104 3.05-1.632.765-.394 1.555-.738 2.318-1.133.558-.289 1.06-.715 1.643-.918.775-.27 1.416-.777 2.237-.996.883-.236 1.665-.84 2.5-1.27.444-.23.9-.439 1.357-.64.708-.313 1.425-.605 2.131-.92.542-.24 1.063-.53 1.613-.75.611-.246 1.256-.393 1.783-.842.2-.17.541-.173.81-.27.141-.052.26-.162.4-.214.716-.264 1.442-.503 2.153-.78.354-.138.677-.353 1.024-.512.45-.205.909-.392 1.365-.583.575-.24 1.15-.481 1.729-.714.252-.102.516-.177.768-.28.669-.272 1.331-.56 2.003-.827.206-.081.433-.152.651-.154.625-.006 1.054-.458 1.593-.65.688-.244 1.413-.399 2.077-.694.824-.365 1.775-.347 2.537-.91.254-.188.648-.183.97-.29.498-.166.988-.356 1.483-.529.45-.157.895-.344 1.358-.45.616-.14 1.203-.318 1.75-.649.238-.143.547-.176.828-.239.39-.087.79-.133 1.174-.237.593-.161 1.183-.339 1.763-.541.556-.195 1.093-.445 1.648-.642.303-.108.633-.142.942-.239.384-.12.752-.29 1.138-.403.363-.108.771-.107 1.104-.267.581-.281 1.231-.232 1.827-.507.61-.282 1.334-.312 2.003-.474.546-.133 1.084-.3 1.626-.45.64-.18 1.273-.397 1.924-.526a10.131 10.131 0 0 0 1.518-.426c.69-.251 1.45-.305 2.172-.473.395-.092.769-.268 1.162-.367.604-.15 1.219-.256 1.824-.401.514-.123 1.02-.276 1.53-.414a.568.568 0 0 1 .157-.022c.6.01 1.134-.2 1.684-.422.424-.171.953-.086 1.374-.26.515-.213 1.064-.165 1.59-.382.662-.271 1.445-.237 2.167-.376.518-.1 1.022-.269 1.533-.406.05-.013.102-.02.154-.027.537-.074 1.095-.081 1.607-.236.788-.239 1.608-.282 2.39-.464.991-.231 1.973-.421 2.984-.528.553-.058 1.088-.278 1.632-.424.017-.005.037.001.055-.001.574-.073 1.154-.12 1.721-.227.588-.112 1.164-.283 1.745-.427.035-.009.072-.003.108-.007.666-.073 1.333-.14 1.999-.221.857-.104 1.714-.213 2.57-.332.413-.058.868-.057 1.223-.238.504-.258 1.074-.032 1.495-.236.489-.238.96-.065 1.405-.196.916-.267 1.87-.292 2.783-.482.552-.115 1.087-.086 1.623-.169 1.14-.177 2.276-.382 3.419-.542.753-.106 1.515-.153 2.274-.227.74-.073 1.531-.009 2.203-.262.586-.22 1.153-.024 1.677-.197.703-.23 1.457-.039 2.099-.251.511-.17 1.002-.03 1.457-.185.756-.258 1.548-.075 2.283-.234 1.243-.267 2.485-.273 3.736-.312.819-.025 1.686.01 2.436-.253.732-.257 1.45.006 2.117-.2.853-.26 1.754-.005 2.542-.248.661-.204 1.274-.103 1.904-.164 1.032-.1 2.069-.158 3.104-.22.117-.008.24.068.36.106-.121.036-.242.092-.366.104-.816.08-1.67.032-2.436.267-.468.144-.938.034-1.34.2-.523.214-1.11.035-1.547.237-.529.245-1.024.086-1.52.185-.642.128-1.271.336-1.918.423-.696.094-1.428-.011-2.102.148-.802.19-1.647.039-2.428.396-.274.125-.654.02-1.04.02z" fill="#000"/><path d="M116.699 19.775c-.521.309-1.1.077-1.543.254-.5.2-.988.086-1.456.2-1.031.25-2.086.297-3.12.467-.915.152-1.818.26-2.742.3-.579.024-1.222.003-1.713.249-.476.238-.908.116-1.355.18-.59.083-1.249.017-1.756.264-.407.198-.762.119-1.136.175-.572.086-1.213.018-1.703.261-.476.236-.926.058-1.35.193-.989.316-2.024.178-3.008.364-.507.095-1.065.012-1.492.213-.451.212-.867.13-1.297.185-.538.07-1.14.02-1.594.255-.437.226-.9.012-1.228.209-.563.337-1.26-.065-1.76.412-.029.028-.107 0-.162.005-.743.072-1.51.058-2.223.242-.837.216-1.687.2-2.516.339-.835.14-1.668.302-2.504.446-.742.127-1.466.36-2.234.422-.463.038-.911.258-1.368.393-.066.02-.139.02-.209.03-.927.11-1.864.17-2.778.345-.767.146-1.502.45-2.263.637-.489.12-1.019.093-1.493.247-.449.144-.93.121-1.367.396-.328.206-.809.164-1.218.248-.861.178-1.719.371-2.58.547-.424.087-.863.114-1.278.23-.664.187-1.311.433-1.97.639a7.732 7.732 0 0 1-.953.231c-.69.122-1.388.195-2.07.345-.37.082-.709.301-1.075.42-.324.104-.672.135-.999.234-.68.206-1.344.467-2.03.647-.587.155-1.205.196-1.792.35-.637.165-1.251.414-1.882.606-.359.11-.737.158-1.094.271-.302.096-.584.256-.88.37a6.393 6.393 0 0 1-.822.273c-.539.128-1.09.207-1.624.351-.303.081-.579.258-.873.378-.249.101-.501.203-.761.27-.61.16-1.237.266-1.839.453-.711.222-1.4.516-2.105.76-.478.164-.98.27-1.451.45-.486.187-.936.471-1.425.645-.629.222-1.289.353-1.92.567-.542.183-1.055.448-1.594.64-.688.244-1.395.437-2.084.68-.413.145-.801.361-1.213.513-.477.176-.976.294-1.45.479-.548.214-1.077.477-1.618.711-.234.101-.47.23-.717.266-.878.129-1.604.617-2.393.958-.746.323-1.505.617-2.26.922-.42.17-.835.357-1.265.498-.952.311-1.76.935-2.755 1.18-.59.143-1.108.554-1.675.81-.648.293-1.318.536-1.97.82-.377.165-.74.365-1.106.553-.202.104-.404.312-.6.306-.542-.018-.873.385-1.312.563-.813.331-1.603.723-2.392 1.11-.944.463-1.876.95-2.817 1.42-.467.232-.944.446-1.415.67-.067.033-.13.076-.195.114.086.035.176.108.256.098.131-.016.253-.096.385-.13.108-.029.224-.03.337-.043-.041.125-.044.302-.13.365-.205.15-.443.258-.677.358-.695.3-1.395.587-2.094.876-.047.02-.106.01-.16.014-1.13.074-2.26.15-3.39.215-.126.008-.256-.054-.384-.084.1-.117.175-.276.3-.345 1.011-.555 2.025-1.104 3.05-1.632.765-.394 1.555-.738 2.318-1.133.558-.289 1.06-.715 1.643-.918.775-.27 1.416-.777 2.237-.996.883-.236 1.665-.84 2.5-1.27.444-.23.9-.439 1.357-.64.708-.313 1.425-.605 2.131-.92.542-.24 1.063-.53 1.613-.75.611-.246 1.256-.393 1.783-.842.2-.17.541-.173.81-.27.141-.052.26-.162.4-.214.716-.264 1.442-.503 2.153-.78.354-.138.677-.353 1.024-.512.45-.205.909-.392 1.365-.583.575-.24 1.15-.481 1.729-.714.252-.102.516-.177.768-.28.669-.272 1.331-.56 2.003-.827.206-.081.433-.152.651-.154.625-.006 1.054-.458 1.593-.65.688-.244 1.413-.399 2.077-.694.824-.365 1.775-.347 2.537-.91.254-.188.648-.183.97-.29.498-.166.988-.356 1.483-.529.45-.157.895-.344 1.358-.45.616-.14 1.203-.318 1.75-.649.238-.143.547-.176.828-.239.39-.087.79-.133 1.174-.237.593-.161 1.183-.339 1.763-.541.556-.195 1.093-.445 1.648-.642.303-.108.633-.142.942-.239.384-.12.752-.29 1.138-.403.363-.108.771-.107 1.104-.267.581-.281 1.231-.232 1.827-.507.61-.282 1.334-.312 2.003-.474.546-.133 1.084-.3 1.626-.45.64-.18 1.273-.397 1.924-.526a10.131 10.131 0 0 0 1.518-.426c.69-.251 1.45-.305 2.172-.473.395-.092.769-.268 1.162-.367.604-.15 1.219-.256 1.824-.401.514-.123 1.02-.276 1.53-.414a.568.568 0 0 1 .157-.022c.6.01 1.134-.2 1.684-.422.424-.171.953-.086 1.374-.26.515-.213 1.064-.165 1.59-.382.662-.271 1.445-.237 2.167-.376.518-.1 1.022-.269 1.533-.406.05-.013.102-.02.154-.027.537-.074 1.095-.081 1.607-.236.788-.239 1.608-.282 2.39-.464.991-.231 1.973-.421 2.984-.528.553-.058 1.088-.278 1.632-.424.017-.005.037.001.055-.001.574-.073 1.154-.12 1.721-.227.588-.112 1.164-.283 1.745-.427.035-.009.072-.003.108-.007.666-.073 1.333-.14 1.999-.221.857-.104 1.714-.213 2.57-.332.413-.058.868-.057 1.223-.238.504-.258 1.074-.032 1.495-.236.489-.238.96-.065 1.405-.196.916-.267 1.87-.292 2.783-.482.552-.115 1.087-.086 1.623-.169 1.14-.177 2.276-.382 3.419-.542.753-.106 1.515-.153 2.274-.227.74-.073 1.531-.009 2.203-.262.586-.22 1.153-.024 1.677-.197.703-.23 1.457-.039 2.099-.251.511-.17 1.002-.03 1.457-.185.756-.258 1.548-.075 2.283-.234 1.243-.267 2.485-.273 3.736-.312.819-.025 1.686.01 2.436-.253.732-.257 1.45.006 2.117-.2.853-.26 1.754-.005 2.542-.248.661-.204 1.274-.103 1.904-.164 1.032-.1 2.069-.158 3.104-.22.117-.008.24.068.36.106-.121.036-.242.092-.366.104-.816.08-1.67.032-2.436.267-.468.144-.938.034-1.34.2-.523.214-1.11.035-1.547.237-.529.245-1.024.086-1.52.185-.642.128-1.271.336-1.918.423-.696.094-1.428-.011-2.102.148-.802.19-1.647.039-2.428.396-.274.125-.654.02-1.04.02z"/><path d="M64.483 33.22c.234-.148.472-.231.7-.337.071-.032.126-.117.168-.19.066-.114.133-.346.168-.34.26.045.518.127.763.23.02.008-.055.262-.096.399-.323 1.069-1.271 1.62-1.94 2.403-.587.688-1.212 1.343-1.834 2-.937.99-1.797 2.088-2.86 2.912-.744.576-1.285 1.335-2.036 1.881-.677.493-1.322 1.03-1.984 1.547-.804.627-1.62 1.241-2.412 1.884-.568.461-1.303.858-1.613 1.467-.416.82-1.159 1.17-1.737 1.742-.248.246-.614.37-.93.542-.031.017-.135-.028-.135-.044-.002-.197-.055-.434.032-.583.157-.268.397-.488.609-.722.9-1 1.762-2.038 2.716-2.983.755-.748 1.626-1.376 2.44-2.064.506-.427.99-.882 1.505-1.295.46-.37.875-.846 1.322-1.15.828-.563 1.433-1.307 2.119-1.99.75-.746 1.525-1.466 2.26-2.227.412-.427.762-.915 1.141-1.376.359-.435.704-.883 1.083-1.3.142-.155.365-.236.55-.406z" fill="#000"/><path d="M64.483 33.22c.234-.148.472-.231.7-.337.071-.032.126-.117.168-.19.066-.114.133-.346.168-.34.26.045.518.127.763.23.02.008-.055.262-.096.399-.323 1.069-1.271 1.62-1.94 2.403-.587.688-1.212 1.343-1.834 2-.937.99-1.797 2.088-2.86 2.912-.744.576-1.285 1.335-2.036 1.881-.677.493-1.322 1.03-1.984 1.547-.804.627-1.62 1.241-2.412 1.884-.568.461-1.303.858-1.613 1.467-.416.82-1.159 1.17-1.737 1.742-.248.246-.614.37-.93.542-.031.017-.135-.028-.135-.044-.002-.197-.055-.434.032-.583.157-.268.397-.488.609-.722.9-1 1.762-2.038 2.716-2.983.755-.748 1.626-1.376 2.44-2.064.506-.427.99-.882 1.505-1.295.46-.37.875-.846 1.322-1.15.828-.563 1.433-1.307 2.119-1.99.75-.746 1.525-1.466 2.26-2.227.412-.427.762-.915 1.141-1.376.359-.435.704-.883 1.083-1.3.142-.155.365-.236.55-.406z"/><path d="M76.257 45.4c.434-.552.9-.879 1.673-.627.353.115.735-.064 1.113-.246.311-.15.786.001.995-.436.012-.026.325.032.325.046-.006.186.026.472-.084.537-.453.266-.56.564-.345 1.024.112.242-.32.702-.643.708-.721.013-1.449.055-2.163-.013-.534-.05-.79-.459-.871-.994z" fill="#000"/><path d="M76.257 45.4c.434-.552.9-.879 1.673-.627.353.115.735-.064 1.113-.246.311-.15.786.001.995-.436.012-.026.325.032.325.046-.006.186.026.472-.084.537-.453.266-.56.564-.345 1.024.112.242-.32.702-.643.708-.721.013-1.449.055-2.163-.013-.534-.05-.79-.459-.871-.994z"/></g></svg>
