<?xml version="1.0" encoding="UTF-8"?>
<svg width="101px" height="100px" viewBox="0 0 101 100" version="1.1" xmlns="http://www.w3.org/2000/svg" xmlns:xlink="http://www.w3.org/1999/xlink">
    <!-- Generator: sketchtool 50.2 (55047) - http://www.bohemiancoding.com/sketch -->
    <title>A2041AB0-B2B2-4633-B213-C13430F3037A</title>
    <desc>Created with sketchtool.</desc>
    <defs></defs>
    <g id="Home" stroke="none" stroke-width="1" fill="none" fill-rule="evenodd" opacity="0.8">
        <g id="Homepage-materials" transform="translate(-954.000000, -6104.000000)">
            <g id="Group-9" transform="translate(954.250000, 6104.000000)">
                <g id="Group-26" transform="translate(19.000000, 19.000000)">
                    <g id="RogueLogo" transform="translate(0.120066, 0.000000)">
                        <path d="M55.8327138,29.939059 C55.8327138,28.3372547 56.9680263,26.9958468 58.4774476,26.7121709 C56.8835146,12.0717223 44.6251672,0.852080644 29.939059,0.852080644 C15.2529492,0.852080644 2.99460067,12.0717247 1.40067015,26.7121708 C2.91009154,26.9958467 4.0454041,28.3372547 4.0454041,29.939059 C4.0454041,31.5408632 2.91009162,32.8822711 1.40067033,33.1659471 C2.99460331,47.8063956 15.2529507,59.0260373 29.939059,59.0260373 C44.6251672,59.0260373 56.8835146,47.8063956 58.4774472,33.1659518 C56.9680263,32.8822711 55.8327138,31.5408632 55.8327138,29.939059 Z M59.3569309,32.8326496 C57.9102501,48.111433 45.1979545,59.8781179 29.939059,59.8781179 C14.6801634,59.8781179 1.96786785,48.111433 0.521187024,32.8326496 L0.479024943,32.3873646 L0.920117541,32.3663989 C2.19572599,32.3057677 3.20427783,31.2379537 3.20427783,29.939059 C3.20427783,28.6401642 2.19572599,27.5723502 0.920117541,27.511719 L0.479024943,27.4907534 L0.521187024,27.0454683 C1.96786785,11.7666849 14.6801634,0 29.939059,0 C45.1979545,0 57.9102501,11.7666849 59.3569309,27.0454683 L59.399093,27.4907534 L58.9580004,27.511719 C57.6823919,27.5723502 56.6738401,28.6401642 56.6738401,29.939059 C56.6738401,31.2379537 57.6823919,32.3057677 58.9580004,32.3663989 L59.399093,32.3873646 L59.3569309,32.8326496 Z" id="Combined-Shape" fill="#4A4A4A" fill-rule="nonzero"></path>
                        <circle id="Oval-12" fill="#4A4A4A" cx="59.6386054" cy="29.939059" r="1"></circle>
                        <circle id="Oval-12" fill="#4A4A4A" cx="0.718537415" cy="29.939059" r="1"></circle>
                        <g id="Group-3" transform="translate(4.311224, 8.622449)">
                            <path d="M37.8479136,44.0335835 C41.7148837,40.1666134 44.1066544,34.8244439 44.1066544,28.9236464 C44.1066544,23.022849 41.7148837,17.6806795 37.8479136,13.8137094 C33.9809435,9.94673927 28.638774,7.55496853 22.7379765,7.55496853 C16.837179,7.55496853 11.4950096,9.94673927 7.62803946,13.8137094" id="Oval-6" transform="translate(25.867347, 25.794276) rotate(-225.000000) translate(-25.867347, -25.794276) "></path>
                            <path d="M37.9375187,45.5097653 L35.1529425,45.3597823 C35.1488595,45.4355874 35.1446583,45.6076847 35.1405753,45.6834898 L35.1125386,46.2040186 C34.9898893,46.2227541 34.8683289,46.221275 34.7773627,46.2163754 C34.6863965,46.2114757 34.5603267,46.199617 34.4403995,46.1678158 L34.5751392,43.6662455 C34.657359,43.6453324 34.7845176,43.6369764 34.8855911,43.6424204 C35.153436,43.6568471 35.2423787,43.7934145 35.226591,44.0865278 L35.2186971,44.2330844 C35.2146141,44.3088896 35.2005778,44.4753888 35.1964948,44.5511939 L35.1962226,44.5562476 C35.3377255,44.5638692 35.4340176,44.5639874 35.5704669,44.5713368 L37.981071,44.7011769 C37.9987177,44.8440409 37.9956053,44.9959234 37.9896169,45.1071043 C37.9836285,45.2182852 37.9701366,45.374677 37.9375187,45.5097653 Z M34.2355349,37.7461319 C34.7112054,37.6247346 35.1063986,37.8633857 35.2856192,38.11537 C35.306715,37.9115036 35.4483122,37.7500088 35.6404037,37.6226362 L36.0196828,37.3691425 C36.1542822,37.2825588 36.264158,37.160499 36.3199896,37.0313392 C36.4774231,37.0956245 36.6305663,37.2863623 36.6831301,37.4923227 C36.7557181,37.7767442 36.6274786,37.9087139 36.3546274,38.0880367 L35.884781,38.3959837 C35.7330694,38.4973812 35.6195413,38.6255963 35.6871233,38.8904025 L35.7384355,39.0914592 L36.9643905,38.7785795 C37.0227006,38.9047251 37.0664015,39.055492 37.0939349,39.163376 C37.1177138,39.2565486 37.1553616,39.42453 37.163382,39.5582869 L33.8385921,40.4068165 L33.7955047,40.3812503 C33.6780665,39.9620249 33.5706404,39.58203 33.475525,39.2093397 C33.3015639,38.5277087 33.4950581,37.9351112 34.2355349,37.7461319 Z M34.174117,39.4906936 L35.1352657,39.2453959 C35.0915648,39.094629 35.0491154,38.948766 35.0328457,38.8850163 C34.9377303,38.512326 34.6896272,38.4816271 34.4395324,38.5454545 C34.1845338,38.6105335 33.991293,38.7538691 34.0864084,39.1265594 C34.1114388,39.2246358 34.1439783,39.3521351 34.174117,39.4906936 Z M33.1457081,32.8853059 C33.1790608,32.93606 33.2207517,32.9995025 33.2526543,33.0572655 L33.9854466,32.8361221 C34.062182,32.9068152 34.1303375,33.0013144 34.197043,33.1028226 C34.2665279,33.2085602 34.3441092,33.363481 34.3673112,33.4632973 L34.3473721,33.50668 L30.8979073,34.4411623 C30.808725,34.3423128 30.6890902,34.1786914 30.6140466,34.0644947 C30.5417823,33.9545276 30.4362862,33.7755591 30.3879489,33.6559245 L32.6298273,30.8745984 C32.7417281,30.9342948 32.8825104,31.0840192 32.9658922,31.2109044 C33.1076413,31.4266092 33.100995,31.5823759 32.8647471,31.8587442 L32.6384082,32.1225448 C32.6787698,32.174749 32.7232401,32.2424211 32.7510341,32.2847161 L33.1457081,32.8853059 Z M32.2315306,33.3649328 L32.6211286,33.2481981 C32.5849964,33.1932145 32.5362966,33.1283218 32.5057233,33.0817973 L32.3028275,32.7730434 C32.2750336,32.7307483 32.2403516,32.6687558 32.2069988,32.6180018 L31.9920192,32.8622258 C31.7954077,33.0883234 31.5055054,33.4120622 31.2736078,33.6674038 L31.2902841,33.6927809 C31.5549304,33.5794298 31.9572169,33.4543569 32.2315306,33.3649328 Z M28.0904807,27.9795336 L25.8497366,29.7511522 C25.7355476,29.6998054 25.6361827,29.6214779 25.5527161,29.5556828 C25.4732241,29.4930209 25.3554363,29.3808379 25.2930599,29.2801129 L25.2942771,29.2295175 L28.1367038,27.152426 C28.3002709,27.2555854 28.5012925,27.4011581 28.664251,27.5296151 C28.8749047,27.6956694 28.9875008,27.8553147 28.8679245,28.154161 L27.6384488,31.0709386 C27.4895629,31.030907 27.323937,30.9712353 27.1848261,30.8615768 C26.9940453,30.711188 26.9769825,30.5366286 27.0905255,30.2781369 L27.6774147,28.9041276 C27.798674,28.6194967 27.9546303,28.3235506 28.0966041,28.0616929 C28.123119,28.0117061 28.1143283,27.9983322 28.0904807,27.9795336 Z M20.8806258,24.7949277 C20.9025314,24.7328884 20.9429724,24.6183544 20.9909899,24.5279645 C21.11342,24.3028322 21.3307172,24.2346429 21.6075078,24.3323753 L22.8769267,24.7805962 C23.148945,24.8766435 23.2553123,25.107421 23.159265,25.3794394 L22.171831,28.1759788 L22.1266299,28.1975893 L20.0697895,27.4713366 C20.0863692,27.3483774 20.1169829,27.246475 20.1473136,27.1605745 C20.1776443,27.074674 20.2503718,26.9447039 20.333763,26.8453352 L21.6365877,27.3053514 C21.6820838,27.1765006 21.7093273,27.0841428 21.7531384,26.9600642 L21.8710913,26.6260066 C21.7453277,26.5869678 21.6117046,26.5397867 21.5448931,26.5161961 L20.8147386,26.2583848 C20.8181209,26.1576018 20.8526703,26.0141514 20.881316,25.9330231 C20.9116468,25.8471226 20.9714596,25.7233269 21.033794,25.6379921 L22.0884615,26.0103862 L22.2165247,25.6476951 C22.2603357,25.5236165 22.2971238,25.4346288 22.3426199,25.305778 L22.3443049,25.3010057 C22.2328581,25.2670221 22.1214113,25.2330384 21.9877882,25.1858572 L20.8806258,24.7949277 Z M15.2885252,24.5180542 L14.4131297,24.5014212 C14.4149565,24.4052795 14.4169755,24.2990177 14.4340786,24.1981043 C14.4844266,23.9459651 14.6794021,23.8079361 14.9728872,23.8135125 L16.1164674,23.835241 C16.4048925,23.8407212 16.5835946,24.0263456 16.5781144,24.3147707 L16.5211009,27.3154037 L16.4850073,27.3501513 L16.186462,27.3444788 C15.8777966,27.338614 15.713698,27.1836386 15.7206203,26.8193122 L15.7645582,24.5068513 C15.5972868,24.5188589 15.4352678,24.5208423 15.2885252,24.5180542 Z" id="travel" fill="#4A4A4A" transform="translate(26.203729, 35.016454) rotate(-225.000000) translate(-26.203729, -35.016454) "></path>
                        </g>
                        <g id="Group" transform="translate(13.412698, 9.101474)" fill="#4A4A4A">
                            <path d="M2.7041469,6.50092036 C3.06625531,6.84118761 3.08488736,7.31685783 2.97384218,7.61428336 C3.15488716,7.51655975 3.36688078,7.54659912 3.57823803,7.63947831 L3.99721945,7.8217288 C4.14310172,7.88832547 4.30489674,7.91348593 4.44291698,7.88811104 C4.47593009,8.06010583 4.40147573,8.30028274 4.25913783,8.46257332 C4.06257597,8.68668889 3.88245965,8.65136086 3.58357304,8.51852366 L3.0695961,8.28929935 C2.90200353,8.21639916 2.73308644,8.19159485 2.55008057,8.40025418 L2.41113167,8.5586807 L3.34440078,9.43565814 C3.27156323,9.55752735 3.17023738,9.68082117 3.09567943,9.76583053 C3.03128848,9.83924769 2.91232948,9.96711788 2.80555017,10.0500439 L0.274524351,7.67168111 L0.272115799,7.62007732 C0.556103437,7.2807522 0.812979094,6.97233958 1.07054291,6.6786709 C1.54161357,6.14156634 2.14045236,5.97122599 2.7041469,6.50092036 Z M1.22028029,7.43965749 L1.95196327,8.1272078 C2.05328912,8.00391398 2.15122597,7.88448423 2.19528294,7.83425143 C2.45284675,7.54058275 2.34212719,7.30966579 2.1517403,7.13076239 C1.95762032,6.94835109 1.732363,6.86355617 1.47479919,7.15722484 C1.40701924,7.23450608 1.3189053,7.33497168 1.22028029,7.43965749 Z M8.22108656,3.95912141 C8.45531819,4.45054709 8.81091236,5.01966288 9.33089547,4.75412209 C9.85540016,4.48627225 9.63545376,3.84788495 9.40122212,3.35645927 C9.16699049,2.86503359 8.8136271,2.30059804 8.2891224,2.56844788 C7.7691393,2.83398867 7.98685493,3.46769573 8.22108656,3.95912141 Z M7.46598066,4.34473282 C7.23174903,3.85330714 7.07251391,3.24793012 7.29617324,2.72635277 C7.41710612,2.44927646 7.61231507,2.19828328 8.01473678,1.9927778 C8.42620167,1.78265422 8.72836786,1.77965186 9.01889986,1.84660459 C9.55034644,1.98257054 9.92209639,2.47942219 10.156328,2.97084786 C10.3905597,3.46227354 10.547504,4.07463985 10.3283662,4.59390815 C10.2029117,4.87329352 10.016746,5.11966859 9.60528109,5.32979217 C9.20285939,5.53529765 8.89165001,5.54291811 8.6056396,5.47365633 C8.06967143,5.33999944 7.70021229,4.83615849 7.46598066,4.34473282 Z M16.6556691,1.96453604 L17.4453466,1.90745468 C17.8475735,1.87581421 17.9921266,2.09118418 18.0106402,2.39327031 L18.0945901,3.76307464 C17.8037772,3.88152755 17.3327761,4.02750005 16.7742434,4.06417458 C15.7477509,4.13157641 15.2112206,3.45561583 15.1422732,2.33060543 C15.0647073,1.06496873 15.8170383,0.398506741 16.607035,0.346633765 C17.0951221,0.314584856 17.537116,0.437213423 17.8930058,0.63870655 C17.8922744,0.874074921 17.7264503,1.13597167 17.5721351,1.25592052 C17.3153612,1.10544197 16.9913337,1.01167284 16.7095514,1.03017531 C16.201337,1.06354582 15.9117078,1.44861739 15.96278,2.28195843 C16.0125754,3.09446594 16.3365098,3.4340202 16.8749152,3.39866728 C17.0359337,3.38809444 17.180899,3.36288767 17.3101305,3.32825533 L17.288744,2.97929377 C17.2820408,2.86991776 17.27438,2.7449166 17.2767828,2.61925465 L17.0251915,2.6357747 C16.7635365,2.65295556 16.6373463,2.5723427 16.6213862,2.31192363 C16.614683,2.20254762 16.6315429,2.06547769 16.6556691,1.96453604 Z M26.1780832,2.702514 L25.4827171,4.83357004 C25.2100561,5.66918134 24.5885918,5.99174814 23.762199,5.70284018 C22.9358061,5.41393221 22.6257872,4.7657177 22.8984481,3.9301064 L23.5938142,1.79905036 L23.6385457,1.77612916 L23.9203791,1.87465847 C24.2117662,1.97652775 24.3257773,2.18164072 24.2096141,2.5376408 L23.6642922,4.2088634 C23.5174747,4.65880794 23.5801742,4.93962654 23.967098,5.07489559 C24.349245,5.20849465 24.5683789,5.02620536 24.7151963,4.57626081 L25.4137892,2.43531588 C25.5460539,2.45401335 25.6957492,2.50083854 25.7960628,2.53590829 C25.8915995,2.56930806 26.0619523,2.63437208 26.1780832,2.702514 Z M30.9347245,10.1772079 C30.8913627,10.2280846 30.8113102,10.322011 30.7332569,10.3899252 C30.5362333,10.5579846 30.3100606,10.5393596 30.0907665,10.3391112 L29.0850384,9.42073068 C28.8695252,9.22393484 28.8572714,8.9622058 29.0473962,8.73913076 L31.0020124,6.44576284 L31.0518276,6.44253557 L32.6814097,7.93058828 C32.6202618,8.0417774 32.5539968,8.1274155 32.4939573,8.19786025 C32.4339179,8.268305 32.3182831,8.36453652 32.2042022,8.42738983 L31.1720075,7.48484136 C31.0819484,7.59050848 31.0223544,7.66831939 30.9356308,7.77007291 L30.7021442,8.04402471 C30.803784,8.12987763 30.9096501,8.22654927 30.9625832,8.27488509 L31.5410659,8.80312654 C31.5003766,8.89820024 31.4149892,9.02205223 31.3582853,9.08858338 C31.2982459,9.15902813 31.196844,9.25433757 31.107448,9.31189417 L30.2718618,8.54887874 L30.0183621,8.84631212 C29.9316385,8.94806565 29.8644827,9.01897144 29.7744236,9.12463856 L29.771088,9.12855216 C29.861385,9.2040474 29.951682,9.27954265 30.0575481,9.37621429 L30.9347245,10.1772079 Z" id="Rogue"></path>
                        </g>
                        <g id="Group-2" transform="translate(19.640023, 18.681973)" fill="#4A4A4A" fill-rule="nonzero">
                            <path d="M1.11340933,4.61795688 C0.95967958,4.61795688 0.835056996,4.74360785 0.835056996,4.89860619 L0.835056996,17.7574474 C0.835056996,17.9124458 0.95967958,18.0380967 1.11340933,18.0380967 L19.4846632,18.0380967 C19.638393,18.0380967 19.7630156,17.9124458 19.7630156,17.7574474 L19.7630156,4.89860619 C19.7630156,4.74360785 19.638393,4.61795688 19.4846632,4.61795688 L1.11340933,4.61795688 Z M1.11340933,3.77600894 L19.4846632,3.77600894 C20.0995822,3.77600894 20.5980726,4.27861285 20.5980726,4.89860619 L20.5980726,17.7574474 C20.5980726,18.3774408 20.0995822,18.8800447 19.4846632,18.8800447 L1.11340933,18.8800447 C0.498490336,18.8800447 7.53058575e-17,18.3774408 0,17.7574474 L0,4.89860619 C-7.53058575e-17,4.27861285 0.498490336,3.77600894 1.11340933,3.77600894 Z" id="Rectangle-15"></path>
                            <g id="Group-5" transform="translate(6.123751, 0.336765)">
                                <path d="M1.26523787,3.42652312 L7.08533209,3.42652312 L7.08533209,1.06648109 L1.26523787,1.06648109 L1.26523787,3.42652312 Z M1.26523787,0.224533154 L7.08533209,0.224533154 C7.54652133,0.224533154 7.92038908,0.601486086 7.92038908,1.06648109 L7.92038908,4.26847106 L0.430180877,4.26847106 L0.430180877,1.06648109 C0.430180877,0.601486086 0.804048628,0.224533154 1.26523787,0.224533154 Z" id="Rectangle-15"></path>
                                <path d="M0.898318889,2.329403 C0.667724267,2.329403 0.480790392,2.14092653 0.480790392,1.90842903 C0.480790392,1.67593153 0.667724267,1.48745506 0.898318889,1.48745506 L5.57969902,1.48745506 C5.81029364,1.48745506 5.99722752,1.67593153 5.99722752,1.90842903 C5.99722752,2.14092653 5.81029364,2.329403 5.57969902,2.329403 L0.898318889,2.329403 Z" id="Path-13"></path>
                            </g>
                            <path d="M1.45502355,18.8800447 C1.45502355,18.6475472 1.64195743,18.4590707 1.87255205,18.4590707 C2.10314667,18.4590707 2.29008055,18.6475472 2.29008055,18.8800447 L2.29008055,19.3520458 C2.29008055,19.5845433 2.10314667,19.7730198 1.87255205,19.7730198 C1.64195743,19.7730198 1.45502355,19.5845433 1.45502355,19.3520458 L1.45502355,18.8800447 Z" id="Path-15"></path>
                            <path d="M18.307992,18.8800447 C18.307992,18.6475472 18.4949259,18.4590707 18.7255205,18.4590707 C18.9561151,18.4590707 19.143049,18.6475472 19.143049,18.8800447 L19.143049,19.3520458 C19.143049,19.5845433 18.9561151,19.7730198 18.7255205,19.7730198 C18.4949259,19.7730198 18.307992,19.5845433 18.307992,19.3520458 L18.307992,18.8800447 Z" id="Path-15"></path>
                            <polygon id="Path-16" points="3.3275756 8.96802123 4.1626326 8.96802123 4.1626326 18.4080436 3.3275756 18.4080436"></polygon>
                            <polygon id="Path-16" points="5.20012766 8.96802123 6.03518465 8.96802123 6.03518465 18.4080436 5.20012766 18.4080436"></polygon>
                            <polygon id="Path-16" points="14.5628879 8.96802123 15.3979449 8.96802123 15.3979449 18.4080436 14.5628879 18.4080436"></polygon>
                            <path d="M16.43544,9.44002234 C16.43544,9.20752484 16.6223738,9.01904837 16.8529685,9.01904837 C17.0835631,9.01904837 17.270497,9.20752484 17.270497,9.44002234 L17.270497,16.5200391 C17.270497,16.7525366 17.0835631,16.9410131 16.8529685,16.9410131 C16.6223738,16.9410131 16.43544,16.7525366 16.43544,16.5200391 L16.43544,9.44002234 Z" id="Path-16"></path>
                            <polygon id="Path-16" points="3.3275756 4.24801005 4.1626326 4.24801005 4.1626326 7.08001676 3.3275756 7.08001676"></polygon>
                            <path d="M5.20012766,6.13601452 C5.20012766,5.90351702 5.38706153,5.71504055 5.61765615,5.71504055 C5.84825078,5.71504055 6.03518465,5.90351702 6.03518465,6.13601452 L6.03518465,7.08001676 C6.03518465,7.31251426 5.84825078,7.50099073 5.61765615,7.50099073 C5.38706153,7.50099073 5.20012766,7.31251426 5.20012766,7.08001676 L5.20012766,6.13601452 Z" id="Path-16"></path>
                            <polygon id="Path-16" points="14.5628879 4.24801005 15.3979449 4.24801005 15.3979449 7.08001676 14.5628879 7.08001676"></polygon>
                            <polygon id="Path-16" points="16.43544 4.24801005 17.270497 4.24801005 17.270497 7.08001676 16.43544 7.08001676"></polygon>
                            <path d="M3.14542707,7.55201787 C3.11468112,7.55201787 3.0897566,7.57714807 3.0897566,7.60814774 L3.0897566,8.91189136 C3.0897566,8.94289103 3.11468112,8.96802123 3.14542707,8.96802123 L6.31105222,8.96802123 C6.34179817,8.96802123 6.36672269,8.94289103 6.36672269,8.91189136 L6.36672269,7.60814774 C6.36672269,7.57714807 6.34179817,7.55201787 6.31105222,7.55201787 L3.14542707,7.55201787 Z M3.14542707,6.71006994 L6.31105222,6.71006994 C6.80298742,6.71006994 7.20177969,7.11215306 7.20177969,7.60814774 L7.20177969,8.91189136 C7.20177969,9.40788604 6.80298742,9.80996916 6.31105222,9.80996916 L3.14542707,9.80996916 C2.65349187,9.80996916 2.25469961,9.40788604 2.25469961,8.91189136 L2.25469961,7.60814774 C2.25469961,7.11215306 2.65349187,6.71006994 3.14542707,6.71006994 Z" id="Rectangle-16"></path>
                            <path d="M14.3807394,7.55201787 C14.3499934,7.55201787 14.3250689,7.57714807 14.3250689,7.60814774 L14.3250689,8.91189136 C14.3250689,8.94289103 14.3499934,8.96802123 14.3807394,8.96802123 L17.5463645,8.96802123 C17.5771105,8.96802123 17.602035,8.94289103 17.602035,8.91189136 L17.602035,7.60814774 C17.602035,7.57714807 17.5771105,7.55201787 17.5463645,7.55201787 L14.3807394,7.55201787 Z M14.3807394,6.71006994 L17.5463645,6.71006994 C18.0382997,6.71006994 18.437092,7.11215306 18.437092,7.60814774 L18.437092,8.91189136 C18.437092,9.40788604 18.0382997,9.80996916 17.5463645,9.80996916 L14.3807394,9.80996916 C13.8888042,9.80996916 13.4900119,9.40788604 13.4900119,8.91189136 L13.4900119,7.60814774 C13.4900119,7.11215306 13.8888042,6.71006994 14.3807394,6.71006994 Z" id="Rectangle-16"></path>
                            <path d="M9.6450413,6.63608057 C9.61841453,6.62058074 9.584367,6.62977903 9.56899403,6.65662553 L8.92245748,7.78570063 C8.9070845,7.81254713 8.91620751,7.84687561 8.94283428,7.86237545 L10.4680879,8.75024782 C10.4947146,8.76574765 10.5287621,8.75654936 10.5441351,8.72970286 L11.1906717,7.60062776 C11.2060446,7.57378126 11.1969216,7.53945278 11.1702949,7.52395294 L9.6450413,6.63608057 Z M10.0625698,5.90693227 L11.5878234,6.79480464 C12.0138517,7.04280198 12.1598198,7.59205774 11.9138522,8.02160173 L11.2673157,9.15067683 C11.0213481,9.58022082 10.4765877,9.72739346 10.0505594,9.47939612 L8.52530578,8.59152375 C8.09927741,8.34352641 7.95330931,7.79427065 8.1992769,7.36472666 L8.84581346,6.23565156 C9.09178105,5.80610757 9.63654142,5.65893493 10.0625698,5.90693227 Z" id="Rectangle-16"></path>
                            <path d="M7.82491027,15.0395096 C7.79521196,15.0475329 7.77758767,15.078311 7.78554531,15.1082543 L7.99905422,15.9116559 C8.00701186,15.9415993 8.03753803,15.959369 8.06723634,15.9513457 L10.2206222,15.3695863 C10.2503205,15.361563 10.2679448,15.3307849 10.2599872,15.3008415 L10.0464783,14.4974399 C10.0385207,14.4674966 10.0079945,14.4497268 9.97829617,14.4577501 L7.82491027,15.0395096 Z M7.60878162,14.2262503 L9.76216752,13.6444909 C10.2373404,13.516118 10.7257592,13.8004337 10.8530814,14.2795278 L11.0665903,15.0829294 C11.1939125,15.5620234 10.9119238,16.0544727 10.4367509,16.1828455 L8.28336499,16.764605 C7.80819208,16.8929778 7.3197733,16.6086621 7.1924511,16.1295681 L6.97894219,15.3261665 C6.85161999,14.8470724 7.13360871,14.3546232 7.60878162,14.2262503 Z" id="Rectangle-16"></path>
                            <path d="M11.6528408,10.8560257 C11.4222462,10.8560257 11.2353123,11.0445022 11.2353123,11.2769997 L11.2353123,11.8510551 C11.2353123,12.0835526 11.4222462,12.272029 11.6528408,12.272029 L12.2221978,12.272029 C12.4527925,12.272029 12.6397263,12.0835526 12.6397263,11.8510551 L12.6397263,11.2769997 C12.6397263,11.0445022 12.4527925,10.8560257 12.2221978,10.8560257 L11.6528408,10.8560257 Z M11.6528408,10.0140778 L12.2221978,10.0140778 C12.9139817,10.0140778 13.4747833,10.5795072 13.4747833,11.2769997 L13.4747833,11.8510551 C13.4747833,12.5485476 12.9139817,13.113977 12.2221978,13.113977 L11.6528408,13.113977 C10.9610569,13.113977 10.4002553,12.5485476 10.4002553,11.8510551 L10.4002553,11.2769997 C10.4002553,10.5795072 10.9610569,10.0140778 11.6528408,10.0140778 Z" id="Rectangle-16"></path>
                        </g>
                        <g id="Group-4" transform="translate(7.185374, 25.867347)" fill="#000000" fill-rule="nonzero">
                            <path d="M0.596677338,4.4552002 C0.482775263,4.42333274 0.415068909,4.30064879 0.445450963,4.18117794 C0.475833017,4.06170708 0.592798413,3.99069049 0.706700488,4.02255796 C2.02651452,4.39181483 3.00960729,4.51147751 3.64542154,4.38787712 C4.08799534,4.3018421 4.4542886,4.12639962 5.285065,3.64968017 C5.40326941,3.58185133 5.45612207,3.55161953 5.52214671,3.5142143 C6.37683747,3.03000257 6.90448592,2.82094418 7.48204866,2.82094418 C8.11355437,2.82094418 8.59857076,3.0296781 9.67906244,3.64968537 C10.1452093,3.91716959 10.3513116,4.02943398 10.6055834,4.14572542 C10.8661406,4.26489153 11.0990324,4.34517859 11.3187232,4.38788634 C11.9545261,4.51148606 12.9376027,4.39182054 14.2573953,4.0225584 C14.3712971,3.99069002 14.488263,4.06170568 14.5186459,4.18117629 C14.5490289,4.30064691 14.4813234,4.4233314 14.3674215,4.45519977 C12.9915848,4.84014238 11.9529394,4.96657205 11.2409277,4.8281574 C10.9860175,4.778603 10.7231829,4.68799352 10.4349568,4.55617301 C10.1649777,4.43269783 9.95167933,4.31651367 9.47417477,4.04251221 C8.4600965,3.46061424 8.01419292,3.26871309 7.48204866,3.26871309 C6.99722309,3.26871309 6.52007963,3.45776102 5.72502354,3.90818765 C5.65989502,3.9450852 5.60782515,3.97486925 5.48995388,4.0425063 C4.61753967,4.54311853 4.22685931,4.73024163 3.7232161,4.82814837 C3.01119484,4.96656317 1.97253434,4.84013675 0.596677338,4.4552002 Z" id="Path-17"></path>
                            <path d="M0.596677338,6.84330109 C0.482775263,6.81143363 0.415068909,6.68874968 0.445450963,6.56927883 C0.475833017,6.44980797 0.592798413,6.37879138 0.706700488,6.41065885 C2.02651452,6.77991572 3.00960729,6.8995784 3.64542154,6.77597801 C4.08799534,6.68994299 4.4542886,6.51450051 5.285065,6.03778106 C5.40326941,5.96995222 5.45612207,5.93972042 5.52214671,5.90231519 C6.37683747,5.41810346 6.90448592,5.20904507 7.48204866,5.20904507 C8.11355437,5.20904507 8.59857076,5.41777899 9.67906244,6.03778626 C10.1452093,6.30527048 10.3513116,6.41753488 10.6055834,6.53382631 C10.8661406,6.65299243 11.0990324,6.73327948 11.3187232,6.77598723 C11.9545261,6.89958695 12.9376027,6.77992143 14.2573953,6.41065929 C14.3712971,6.37879092 14.488263,6.44980657 14.5186459,6.56927718 C14.5490289,6.6887478 14.4813234,6.81143229 14.3674215,6.84330066 C12.9915848,7.22824327 11.9529394,7.35467295 11.2409277,7.21625829 C10.9860175,7.16670389 10.7231829,7.07609441 10.4349568,6.9442739 C10.1649777,6.82079872 9.95167933,6.70461456 9.47417477,6.4306131 C8.4600965,5.84871514 8.01419292,5.65681398 7.48204866,5.65681398 C6.99722309,5.65681398 6.52007963,5.84586191 5.72502354,6.29628854 C5.65989502,6.33318609 5.60782515,6.36297014 5.48995388,6.43060719 C4.61753967,6.93121942 4.22685931,7.11834252 3.7232161,7.21624926 C3.01119484,7.35466406 1.97253434,7.22823764 0.596677338,6.84330109 Z" id="Path-17"></path>
                            <path d="M0.596677338,2.06709931 C0.482775263,2.03523185 0.415068909,1.9125479 0.445450963,1.79307705 C0.475833017,1.67360619 0.592798413,1.6025896 0.706700488,1.63445707 C2.02651452,2.00371394 3.00960729,2.12337662 3.64542154,1.99977623 C4.08799534,1.91374121 4.4542886,1.73829873 5.285065,1.26157928 C5.40326941,1.19375044 5.45612207,1.16351864 5.52214671,1.12611341 C6.37683747,0.641901683 6.90448592,0.432843286 7.48204866,0.432843286 C8.11355437,0.432843286 8.59857076,0.641577212 9.67906244,1.26158448 C10.1452093,1.5290687 10.3513116,1.64133309 10.6055834,1.75762453 C10.8661406,1.87679064 11.0990324,1.9570777 11.3187232,1.99978545 C11.9545261,2.12338517 12.9376027,2.00371965 14.2573953,1.6344575 C14.3712971,1.60258913 14.488263,1.67360479 14.5186459,1.7930754 C14.5490289,1.91254602 14.4813234,2.03523051 14.3674215,2.06709888 C12.9915848,2.45204149 11.9529394,2.57847116 11.2409277,2.44005651 C10.9860175,2.39050211 10.7231829,2.29989263 10.4349568,2.16807212 C10.1649777,2.04459694 9.95167933,1.92841278 9.47417477,1.65441131 C8.4600965,1.07251335 8.01419292,0.880612203 7.48204866,0.880612203 C6.99722309,0.880612203 6.52007963,1.06966013 5.72502354,1.52008676 C5.65989502,1.55698431 5.60782515,1.58676836 5.48995388,1.65440541 C4.61753967,2.15501764 4.22685931,2.34214074 3.7232161,2.44004747 C3.01119484,2.57846228 1.97253434,2.45203586 0.596677338,2.06709931 Z" id="Path-17"></path>
                            <path d="M31.9024928,4.4552002 C31.7885908,4.42333274 31.7208844,4.30064879 31.7512665,4.18117794 C31.7816485,4.06170708 31.8986139,3.99069049 32.012516,4.02255796 C33.33233,4.39181483 34.3154228,4.51147751 34.9512371,4.38787712 C35.3563474,4.30912489 35.7493386,4.12938926 36.4073926,3.75469927 C36.4582593,3.72573621 36.4989325,3.702442 36.5908805,3.64968017 C37.671357,3.02967681 38.1563666,2.82094418 38.7878642,2.82094418 C39.4193699,2.82094418 39.9043863,3.0296781 40.9848779,3.64968537 C41.8156628,4.12640598 42.1819598,4.30184927 42.6245387,4.38788634 C43.2603416,4.51148606 44.2434182,4.39182054 45.5632108,4.0225584 C45.6771126,3.99069002 45.7940785,4.06170568 45.8244614,4.18117629 C45.8548444,4.30064691 45.7871389,4.4233314 45.6732371,4.45519977 C44.2974003,4.84014238 43.2587549,4.96657205 42.5467432,4.8281574 C42.043096,4.73024869 41.6524123,4.54312501 40.7799903,4.04251221 C39.765912,3.46061424 39.3200084,3.26871309 38.7878642,3.26871309 C38.2557288,3.26871309 37.8098321,3.46061276 36.7957694,4.0425063 C36.7036187,4.09538472 36.6624703,4.11895105 36.61106,4.14822362 C35.915345,4.54435743 35.4913411,4.73827678 35.0290316,4.82814837 C34.3170103,4.96656317 33.2783498,4.84013675 31.9024928,4.4552002 Z" id="Path-17"></path>
                            <path d="M31.9024928,6.84330109 C31.7885908,6.81143363 31.7208844,6.68874968 31.7512665,6.56927883 C31.7816485,6.44980797 31.8986139,6.37879138 32.012516,6.41065885 C33.33233,6.77991572 34.3154228,6.8995784 34.9512371,6.77597801 C35.3563474,6.69722578 35.7493386,6.51749015 36.4073926,6.14280016 C36.4582593,6.1138371 36.4989325,6.09054289 36.5908805,6.03778106 C37.671357,5.4177777 38.1563666,5.20904507 38.7878642,5.20904507 C39.4193699,5.20904507 39.9043863,5.41777899 40.9848779,6.03778626 C41.8156628,6.51450687 42.1819598,6.68995016 42.6245387,6.77598723 C43.2603416,6.89958695 44.2434182,6.77992143 45.5632108,6.41065929 C45.6771126,6.37879092 45.7940785,6.44980657 45.8244614,6.56927718 C45.8548444,6.6887478 45.7871389,6.81143229 45.6732371,6.84330066 C44.2974003,7.22824327 43.2587549,7.35467295 42.5467432,7.21625829 C42.043096,7.11834958 41.6524123,6.9312259 40.7799903,6.4306131 C39.765912,5.84871514 39.3200084,5.65681398 38.7878642,5.65681398 C38.2557288,5.65681398 37.8098321,5.84871365 36.7957694,6.43060719 C36.7036187,6.48348561 36.6624703,6.50705194 36.61106,6.53632451 C35.915345,6.93245832 35.4913411,7.12637767 35.0290316,7.21624926 C34.3170103,7.35466406 33.2783498,7.22823764 31.9024928,6.84330109 Z" id="Path-17"></path>
                            <path d="M31.9025313,2.06709931 C31.7886016,2.03523185 31.7208788,1.9125479 31.7512682,1.79307705 C31.7816577,1.67360619 31.8986515,1.6025896 32.0125812,1.63445707 C33.3327157,2.00371394 34.3160472,2.12337662 34.9520158,1.99977623 C35.3572245,1.921024 35.7503111,1.74128837 36.4085249,1.36659838 C36.459404,1.33763532 36.5000871,1.31434111 36.5920574,1.26157928 C37.6727963,0.641575919 38.1579237,0.432843286 38.7895745,0.432843286 C39.4212336,0.432843286 39.9063677,0.641577212 40.9871218,1.26158448 C41.8181083,1.73830509 42.1844943,1.91374838 42.6271806,1.99978545 C43.263138,2.12338517 44.2464532,2.00371965 45.5665663,1.6344575 C45.6804958,1.60258913 45.7974901,1.67360479 45.8278804,1.7930754 C45.8582707,1.91254602 45.7905488,2.03523051 45.6766193,2.06709888 C44.3004485,2.45204149 43.2615508,2.57847116 42.5493663,2.44005651 C42.0455968,2.3421478 41.6548182,2.15502412 40.7821843,1.65441131 C39.7678598,1.07251335 39.321848,0.880612203 38.7895745,0.880612203 C38.2573099,0.880612203 37.811305,1.07251187 36.796996,1.65440541 C36.7048229,1.70728383 36.6636645,1.73085016 36.6122417,1.76012273 C35.9163579,2.15625654 35.492251,2.35017589 35.0298293,2.44004747 C34.3176351,2.57846228 33.2787224,2.45203586 31.9025313,2.06709931 Z" id="Path-17"></path>
                        </g>
                    </g>
                </g>
            </g>
        </g>
    </g>
</svg>